<?xml version="1.0" standalone="no"?>
<!DOCTYPE svg PUBLIC "-//W3C//DTD SVG 1.1//EN" "http://www.w3.org/Graphics/SVG/1.1/DTD/svg11.dtd" >
<svg xmlns="http://www.w3.org/2000/svg">
<metadata></metadata>
<defs>
<font id="katanaregular" horiz-adv-x="944" >
<font-face units-per-em="2048" ascent="1638" descent="-410" />
<missing-glyph horiz-adv-x="673" />
<glyph horiz-adv-x="0" />
<glyph unicode="&#xd;" horiz-adv-x="1138" />
<glyph unicode=" "  horiz-adv-x="673" />
<glyph unicode="&#x09;" horiz-adv-x="673" />
<glyph unicode="&#xa0;" horiz-adv-x="673" />
<glyph unicode="!" horiz-adv-x="534" d="M23 63q0 -35 29.5 -50t62.5 -15t53 34t37 58q25 168 -43 184q-66 16 -103 -26q-36 -42 -36 -185zM24.5 721.5q4.5 -109.5 16.5 -275.5l201 9q72 283 116.5 456.5t65.5 251.5q8 33 17.5 55.5t16.5 41t11 39t4 49.5q-43 0 -103.5 -6.5t-121 -22.5t-111.5 -44t-78 -69 q-12 -78 -21 -144.5t-13.5 -148.5t0 -191.5z" />
<glyph unicode="&#x22;" horiz-adv-x="653" d="M23 1245l36 -192q0 -51 32 -80t67 -29q33 0 55 55q14 29 24.5 51.5t20.5 43.5q45 240 -37 245q-88 10 -141 -4q-57 -12 -57 -90zM332 1245l37 -192q0 -51 31.5 -80t66.5 -29q37 0 59 55q20 57 41 95q45 240 -37 245q-88 10 -141 -4q-57 -12 -57 -90z" />
<glyph unicode="#" horiz-adv-x="1429" d="M8 438l29 62l45 61q29 -2 65.5 -9t75.5 -11q0 78 2 151.5t6 153.5q-82 18 -132 43.5t-50 60.5l27 62l45 61q27 -2 59.5 -8t67.5 -12q4 41 9 82t13 82q29 39 80 65.5t110.5 43.5t119 24.5t104.5 7.5q0 -29 -4 -48.5t-11 -38t-16.5 -41t-17.5 -56.5q-12 -35 -19.5 -68 t-15.5 -64q47 4 105.5 9.5t121.5 13.5q4 39 9.5 75t11.5 77q31 39 82 65.5t109.5 43.5t118 24.5t106.5 7.5q0 -29 -4.5 -48.5t-11.5 -38t-16 -41t-18 -56.5q-4 -18 -8 -31t-10 -29q55 12 95 23.5t63 25.5q-6 -37 -6 -51v-22q0 -8 -4.5 -22.5t-16.5 -51.5 q-20 -59 -34.5 -103.5t-35 -73t-53.5 -43t-90 -16.5q-10 -47 -20.5 -95t-20.5 -95q82 12 146.5 27.5t95.5 33.5q-6 -37 -6 -51v-22q0 -8 -3 -22.5t-18 -51.5q-23 -63 -37 -108.5t-37.5 -73t-62.5 -41t-111 -13.5h-24q-8 -43 -14.5 -88t-14.5 -92q-16 -25 -36.5 -57.5 t-55.5 -32.5q-29 0 -48 11t-42 36v86v141q-82 2 -177.5 7.5t-189.5 15.5q-8 -49 -15 -100.5t-15 -106.5q-16 -25 -37 -57.5t-56 -32.5q-29 0 -47 11t-43 36v86q0 49 -1 98.5t-1 98.5q-94 18 -154.5 43.5t-60.5 66.5zM479 520q55 8 140.5 14.5t183.5 18.5q2 29 2 57v60v57 q0 29 2 59q-61 0 -128.5 5.5t-137.5 11.5q-16 -72 -30.5 -140.5t-31.5 -142.5z" />
<glyph unicode="$" horiz-adv-x="1103" d="M20 307q0 -33 10.5 -68.5t31 -66.5t53 -51.5t78.5 -20.5q82 0 296 68l-43 -154l201 9l-18 174q35 20 71.5 47.5t71.5 62.5q72 68 72 158q0 4 -1 18.5t-1 20.5q-10 8 -40 34.5t-65 53.5q-16 14 -40.5 37.5t-59.5 58.5v273l35 4q72 0 139.5 -20.5t134.5 -20.5 q33 0 52.5 25.5t30.5 60t15.5 69.5t4.5 56q0 33 -14.5 54t-39 34.5t-57.5 18.5t-70 5h-84q-33 0 -147 -20l18 133h-200l43 -172q-152 -53 -207 -80q-55 -29 -98 -66q-35 -35 -35 -67q0 -4 1 -8l1 -4q2 -2 12 -10.5t21.5 -19.5t21.5 -19.5t12 -10.5q37 -63 66 -124.5 t58.5 -122t64.5 -119t84 -113.5q-4 -23 -29 -23h-37q-47 0 -93 13.5t-86 29t-74 28.5t-56 13q-39 0 -59.5 -18t-30.5 -46t-12.5 -58.5t-2.5 -55.5zM438 924q0 4 2 11t2 9l66 6v-135q-31 18 -50.5 49t-19.5 60z" />
<glyph unicode="%" horiz-adv-x="1701" d="M12 719q0 -10 1 -32.5t3 -50.5t6.5 -56.5t10.5 -53.5q16 -53 49 -86.5t90 -33.5q104 0 189 68.5t146.5 172t94.5 223t33 222.5v26q0 16 -1 39t-1 39v27q-16 53 -34.5 90t-72.5 37q-129 0 -212 -40t-136 -114t-86 -175t-63 -224l-3 -9l-6 -16q-4 -12 -6 -19.5t-2 -33.5z M143 -135q43 0 103.5 7t121 24.5t111.5 44t78 67.5q12 27 54 96.5t104.5 162.5t139.5 203t157 218q82 111 154.5 209t130 176t96.5 131.5t53 71.5q0 66 -13.5 99.5t-39 48t-65.5 15.5t-95 1q-6 0 -16.5 -4t-32 -24.5t-58 -67t-95 -129t-144.5 -212t-205 -315.5l-489 -639 q-8 -35 -17.5 -56.5t-16.5 -40t-11.5 -37.5t-4.5 -50zM248 739v27q0 53 4 115.5t17.5 123t39 116t68.5 93.5q35 -59 43 -115t8 -122q0 -29 -9 -92.5t-28.5 -129t-48.5 -114.5t-68 -49q-2 0 -4 1l-2 1q-4 2 -10 14.5t-6 14.5v30q0 23 -2 44.5t-2 41.5zM1022 311 q0 -12 1 -33.5t3 -49t6 -56.5t10 -53q18 -53 50 -87t90 -34q70 0 131 31.5t112.5 86t92.5 124t68.5 146.5t43 153.5t15.5 144.5v27q0 14 -1.5 37.5t-1.5 42.5v24q-16 53 -34.5 90t-71.5 37q-129 0 -212 -40t-136 -113.5t-86 -175t-64 -224.5l-3 -8q-3 -8 -5 -16 q-4 -12 -6 -18.5t-2 -35.5zM1257 332v28q0 51 4.5 114t17.5 124t38.5 116.5t71.5 92.5q33 -57 41 -114.5t8 -123.5q0 -29 -9.5 -92t-29 -128.5t-48 -115t-67.5 -49.5q-2 0 -4 1l-2 1q-4 2 -10 14.5t-6 16.5v29q0 23 -2.5 44t-2.5 42z" />
<glyph unicode="&#x26;" horiz-adv-x="1181" d="M-8 336q-29 -109 33 -213q0 -49 43 -76t101 -37t117.5 -11t94.5 -1q8 0 30.5 1t54.5 2t68.5 4t73.5 7q27 4 51.5 6t45.5 5q51 6 79 12q33 6 113 110l119 -118l135 100l-127 164l74 74q8 86 -137 163l-93 -55l-135 150q119 160 141 286q10 66 18.5 111t12.5 72 q10 76 -53 192l-201 45q-92 4 -147 6t-76 4q-16 4 -28.5 5.5t-18.5 1.5q-35 0 -94.5 -1.5t-117.5 -11.5t-101 -36.5t-43 -75.5q-51 -80 -23 -172q31 -80 80 -148q43 -68 86 -96q18 -14 41.5 -31.5t58.5 -40.5q-18 -29 -36.5 -37t-63.5 -82q-23 -39 -47.5 -68.5t-50.5 -51.5 q-49 -43 -78 -158zM279 319v46l12 10t30.5 25.5t38 30.5t31.5 24q82 63 178 45l183 -181q0 -18 -97 -92q-2 -2 -22 -2h-15q-53 0 -102 3t-102 22q-16 8 -39 18.5t-44.5 20.5t-36.5 18t-15 12zM279 979v45q0 2 15 10t36.5 18.5t44 21.5t39.5 18q53 18 102 22t107 6l55 -63 q-55 -256 -109 -246l-45 -18q-80 20 -147 75q-16 29 -26.5 43.5t-28.5 28.5q-18 16 -30 28z" />
<glyph unicode="'" horiz-adv-x="344" d="M23 1245l36 -192q0 -51 32 -80t67 -29q33 0 55 55q14 29 24.5 51.5t20.5 43.5q45 240 -37 245q-88 10 -141 -4q-57 -12 -57 -90z" />
<glyph unicode="(" horiz-adv-x="821" d="M20 289q0 -25 1.5 -57.5t1.5 -63.5v-39q10 -39 21 -71.5t26 -61.5q31 -59 106 -59q254 8 303 71q57 61 -106 111q-33 98 -45.5 187t-12.5 188q0 31 6.5 86t18.5 119.5t29.5 132t40.5 122.5q18 45 40.5 74t45 45.5t43 23.5t34.5 11q70 104 114 160.5t54 70.5q23 35 -59 35 q-74 0 -142.5 -27.5t-129 -76.5t-112.5 -117t-95 -147q-86 -160 -134.5 -338.5t-48.5 -337.5v-41z" />
<glyph unicode=")" horiz-adv-x="821" d="M43 1339q-23 35 59 35q74 0 142.5 -27.5t129 -76.5t113 -117t95.5 -147q88 -160 135 -338.5t47 -337.5v-41q0 -25 -1 -57.5t-1 -63.5v-39q-10 -37 -20.5 -71.5t-28 -61.5t-42 -43t-61.5 -16q-256 10 -309 71.5t111 110.5q35 98 46 187t11 188q0 31 -6 85t-17.5 119.5 t-30 133t-42.5 122.5q-16 45 -39 74t-46.5 45.5t-44 23.5t-32.5 11q-72 104 -115 160.5t-53 70.5z" />
<glyph unicode="*" horiz-adv-x="851" d="M14 1214l136 185q84 -98 157 -232q106 219 131 328q20 -33 32.5 -54.5t23 -41t20.5 -43t27 -60.5q29 -61 50 -103t24 -79t-15 -73.5t-70 -86.5l11 -26l225 -174q-90 -102 -215 -160l-166 237q-70 -41 -119 -64.5t-85 -30.5t-61.5 0t-45.5 30l-25 61l-14 80l158 125z" />
<glyph unicode="+" horiz-adv-x="876" d="M14 680q0 -31 12.5 -54.5t43 -44t82 -39t129.5 -36.5l-50 -287q129 -47 265 -37l-37 283l12 24q72 0 111 13.5t62.5 41t37.5 73t37 108.5q14 39 24.5 63.5t17.5 45t13 44t12 60.5q-47 -29 -126.5 -63.5t-196.5 -75.5q20 72 33.5 140.5t17.5 133.5l-227 -35v-256l-201 23 l-45 -64z" />
<glyph unicode="," horiz-adv-x="299" d="M23 57q0 129 38 150q18 18 109 16q70 -2 51 -141q-16 -127 -96 -211q-82 -82 -29 129q-29 8 -46 22.5t-27 34.5z" />
<glyph unicode="-" horiz-adv-x="876" d="M14 653q0 -61 56.5 -99t132.5 -57.5t151.5 -26.5t116.5 -7q72 0 111 13t62.5 41t37.5 73t37 108q14 39 23.5 62.5t17.5 44t14 44t12 60.5q-92 -53 -207.5 -95t-232.5 -54q-96 -10 -260 18l-45 -63z" />
<glyph unicode="." horiz-adv-x="299" d="M23 57q0 -31 31.5 -45t66.5 -14q37 0 59.5 30.5t40.5 53.5q18 139 -51 141q-76 4 -109 -16q-38 -21 -38 -150z" />
<glyph unicode="/" horiz-adv-x="1263" d="M20 -2q43 0 103.5 7t121 23.5t112 43t77.5 67.5q49 115 373 549q166 221 261 344t124 160q0 66 -13.5 99.5t-39 48t-65.5 15.5t-95 1q-16 0 -47 -2t-35 -2l-23 -23q-70 -205 -397 -641l-407 -506q-8 -35 -17.5 -57.5t-16.5 -40.5t-11.5 -37.5t-4.5 -48.5z" />
<glyph unicode="0" horiz-adv-x="968" d="M20 446q0 -16 1.5 -48.5t4.5 -71.5t8 -80t15 -76q27 -72 72 -122t127 -50q98 0 186 46t162 123t132 176t98 209t61.5 219.5t21.5 205.5v39q0 25 -1 55.5t-1 56.5v37q-10 37 -20 70t-26.5 57.5t-41 39t-63.5 14.5q-184 0 -303 -57.5t-196 -162t-124 -250t-90 -319.5 q0 -2 -4 -13.5t-8 -23.5t-7.5 -23.5t-3.5 -50.5zM360 473v43q0 74 4.5 164t23 178t55 166t102.5 129q47 -82 58 -165t11 -175q0 -27 -5 -78t-17 -112.5t-29.5 -126t-42 -116.5t-55.5 -85t-70 -33q-2 0 -6 2l-4 2q-4 4 -13.5 22.5t-9.5 22.5v41q0 31 -1 62.5t-1 58.5z" />
<glyph unicode="1" horiz-adv-x="544" d="M20 -2q43 0 103.5 7t121 23.5t112 43t77.5 67.5q23 133 32 268.5t12 272.5t2 273.5t-1 271.5v86q-25 25 -43 36t-47 11q-35 0 -55.5 -33t-34.5 -57q-27 -160 -51.5 -293t-50 -259t-56 -254t-71.5 -280q-8 -35 -17.5 -57.5t-16.5 -40.5t-11.5 -37.5t-4.5 -48.5z" />
<glyph unicode="2" horiz-adv-x="921" d="M23 1182v20q2 6 11 26.5t20.5 44t21.5 44t14 26.5q6 0 17.5 1.5t23.5 1.5t23.5 1t15.5 1q47 0 115.5 -14.5t143.5 -40t148.5 -63.5t132 -84t95.5 -100.5t37 -115.5v-10q0 -6 -3 -22.5t-6.5 -36t-7.5 -37t-6 -23.5q-45 -20 -121.5 -62.5t-150.5 -95.5t-128 -113.5 t-54 -115.5v-13q2 -6 10 -12t12 -12q43 -27 102.5 -40t120 -19.5t116.5 -7.5t93 -3q8 0 21 1l14 1q10 -51 10 -49q0 -23 -4 -53.5t-18 -63.5l-19 -24l-71 -117l-18 -2q-17 -2 -29 -2q-41 0 -105.5 14.5t-140.5 36.5q-70 29 -146 4q-78 -25 -135 58q-29 45 -53.5 79.5 t-44.5 63.5q-37 57 -37 102q0 2 15.5 31t37 69t47 86t48 87t39 69.5t20.5 32.5q14 14 50 51t76 79t75.5 79t48.5 49v15q-6 0 -28.5 2t-49.5 4t-49.5 4t-30.5 2q-33 -4 -52.5 -19.5t-39 -33t-43 -30.5t-62.5 -13q-43 0 -67.5 30.5t-36.5 73.5t-15 87t-3 71z" />
<glyph unicode="3" horiz-adv-x="927" d="M18 1284q4 -156 35 -190q35 -29 160 26q92 0 142.5 -6t99.5 -22q14 -6 37.5 -16.5t45 -22t38 -19.5t16.5 -10v-45l-12 -11q-13 -12 -31 -28q-18 -14 -28.5 -28.5t-28.5 -43.5q-33 -27 -69 -46t-77 -29h-92l-90 -11q-82 -18 -82 -77q0 -55 55 -82q51 -29 154 -68 q51 -18 98 -43t88 -57q14 -8 33.5 -23.5t38 -31t31.5 -25.5l12 -10v-46q0 -4 -16.5 -11t-38 -17t-45 -21.5t-37.5 -19.5q-51 -18 -100.5 -21.5t-104.5 -3.5h-17q-10 0 -20 2q-72 92 -176 56q-74 -176 8 -238q8 -4 41 -9t78 -11.5t96 -10.5t97 -8t82 -6t50 -2q29 0 88.5 1 t119 11t103.5 37t44 76q61 109 35 213q-31 113 -82.5 158t-96.5 120q-45 74 -63.5 82.5t-36.5 36.5q33 23 57.5 40.5t42.5 31.5q16 14 38 37.5t48 58.5q51 68 80 148q31 76 -22 172q0 49 -44 75.5t-103.5 36.5t-119 11.5t-88.5 1.5q-10 0 -21 -1.5t-30 -5.5q-16 -2 -70.5 -4 t-148.5 -6z" />
<glyph unicode="4" d="M20 537l271 -74l227 6q70 -6 41 -74q-14 -33 -31.5 -87t-38.5 -126q-10 -33 -19 -55.5t-16.5 -40.5t-11.5 -38.5t-4 -49.5q45 0 104.5 7t120 23.5t111.5 43t80 67.5q23 131 32 266.5t12 271.5t2 271t-1 269v88q-25 23 -43 33t-49 10q-33 0 -53.5 -31t-36.5 -55 q-25 -160 -47.5 -293t-59.5 -250q-111 10 -141 4q-41 -6 -80 -6h-61q0 41 28 172q16 66 36 135.5t40 142.5q10 33 19.5 55.5t16.5 41t11 37t4 47.5q-45 0 -104.5 -6.5t-119.5 -21.5t-111.5 -42t-79.5 -68q-12 -72 -20.5 -133t-13.5 -135t-8 -169t-6 -236z" />
<glyph unicode="5" horiz-adv-x="921" d="M23 143q2 -6 11 -26.5t20.5 -44t21.5 -44t14 -26.5q6 0 17.5 -1t23.5 -1t23.5 -1t15.5 -1q47 0 115.5 14.5t143.5 40t148.5 62.5t132 83t95.5 100t37 116v12q0 6 -3 21.5t-6.5 34t-7.5 36t-6 27.5q-45 20 -121.5 62t-150.5 96.5t-128 112.5t-54 114v14q2 4 10 11.5 t12 11.5q39 29 98.5 42t122 19t119.5 7t92 3q8 0 21 -1l14 -1q10 51 10 49q0 23 -4 52.5t-18 64.5l-27 27l-63 114l-18 3q-17 2 -29 2q-41 0 -105.5 -15.5t-140.5 -40.5q-66 -25 -146 -2q-76 25 -135 -59t-98 -141q-37 -59 -37 -103q0 -4 14.5 -31.5t36 -67.5t47 -86t49 -87 t40 -69t20.5 -32q14 -16 50 -53t76 -78t75.5 -77.5t48.5 -51.5v-12q-6 -2 -28.5 -4t-49.5 -4t-49.5 -3t-30.5 -1q-33 2 -52.5 17t-39 32.5t-43 32t-62.5 14.5q-43 0 -67.5 -32t-36.5 -75t-15 -86.5t-3 -68.5v-21z" />
<glyph unicode="6" horiz-adv-x="968" d="M20 328q0 -25 1.5 -55.5t1.5 -59.5v-33q12 -74 46.5 -128t106.5 -54q250 8 336 63q88 59 162 158q78 104 102 178q25 76 43 172q18 94 -272 144q-123 20 -172 -23q-49 -45 -39 19q8 31 15 61.5t18 60.5q14 47 31.5 89.5t37 75t44 51t53.5 18.5q2 0 7 -1l5 -1 q4 -4 13 -22.5t9 -22.5v-41q324 20 328 76q2 57 -18 123q-23 66 -69 113.5t-128 47.5q-100 0 -187 -45t-161 -120.5t-132.5 -175t-98.5 -208t-61.5 -217t-21.5 -204.5v-39zM290 299q-16 57 0.5 110.5t59 94.5t101.5 47l131 -43q-29 -61 -52.5 -111.5t-42.5 -89.5 q-37 -78 -122 -104q-59 39 -75 96z" />
<glyph unicode="7" horiz-adv-x="1058" d="M18 858q147 47 250 80t162 53q117 45 223 45q0 -123 -31.5 -259t-83 -270t-117 -259t-130.5 -223q33 -18 57.5 -22.5t57.5 -4.5q74 0 128 9t95 34t68.5 65.5t47.5 106.5q10 27 24.5 66.5t28 83t25 84t15.5 71.5q4 27 10 83t13 116.5t13.5 112t8.5 67.5q0 10 1 37t1 55 q0 33 -1 58.5t-1 37.5l92 45q4 4 13 13.5t9 11.5q0 41 -26.5 70.5t-68.5 51t-94 35t-103.5 21.5t-95.5 11.5t-70 3.5q-63 0 -375 -84q-47 -78 -68 -166q-10 -45 -29.5 -104.5t-48.5 -135.5z" />
<glyph unicode="8" horiz-adv-x="1103" d="M20 225q0 -33 23 -67.5t55.5 -65.5t71.5 -53.5t70 -30.5q12 0 37.5 -3t78.5 -3h43t52 2h208q74 -4 115 0t60 4q31 8 67.5 30.5t70.5 53.5t56.5 66t22.5 67q0 63 -17.5 142t-64.5 143q-45 61 -104.5 102t-94.5 76l45 57q68 78 112 151t70 153q27 82 -18 180 q-41 96 -100 104q-31 4 -62 7t-57 3q-14 2 -29 3h-22h-37h-271h-39h-24q-12 0 -27 -3q-55 0 -92 -16q-14 -8 -33.5 -15t-40 -20.5t-39 -34t-32.5 -55.5q-29 -72 -1.5 -152.5t70.5 -154.5q23 -35 51.5 -73t63.5 -77l37 -49q-14 -20 -38 -40.5t-50.5 -42t-54 -47t-50.5 -56.5 q-45 -63 -63.5 -142t-18.5 -143zM315 301q-41 66 52 148q92 84 147 94t88 -23q20 -16 49 -38.5t68 -55.5q76 -61 37 -125q-37 -61 -97 -90l-127 -6l-120 6q-59 29 -97 90zM326 1024q2 33 15 50.5t30.5 25.5t35 13t27.5 15q104 39 203 0q10 -10 26.5 -15t34 -13t30.5 -25.5 t17 -50.5q0 -35 -10 -53.5t-23.5 -30.5t-28.5 -20.5t-24 -20.5q-86 -74 -127 -76q-35 2 -120 76q-10 12 -24.5 20.5t-28 20.5t-23.5 30.5t-10 53.5z" />
<glyph unicode="9" horiz-adv-x="968" d="M25 283q-4 -41 7 -91.5t37.5 -93.5t68.5 -71.5t102 -28.5q98 0 186 45t162 121t132 175t98 207.5t61.5 217t21.5 205.5v39q0 25 -1 55.5t-1 58.5v33q-10 37 -20.5 69.5t-27.5 58.5t-42 40t-64 14q-250 -8 -335 -63q-84 -53 -162 -155.5t-103 -182.5q-25 -78 -43 -172 q-18 -92 273 -141q121 -20 170 20q49 49 37 -14q-4 -31 -12.5 -61.5t-16.5 -63.5q-14 -47 -30.5 -89t-37 -74t-45 -51.5t-53.5 -19.5q-2 0 -7 1l-5 1q-4 6 -13.5 23.5t-9.5 23.5v41q-324 -25 -327 -77zM340 827q29 61 52.5 111.5t41.5 89.5q37 76 123 105q57 -41 73.5 -97.5 t1 -111t-58.5 -94.5t-102 -46z" />
<glyph unicode=":" horiz-adv-x="299" d="M23 57q0 -31 31.5 -45t66.5 -14q37 0 59.5 30.5t40.5 53.5q18 139 -51 141q-76 4 -109 -16q-38 -21 -38 -150zM33 602q0 -29 31.5 -43t64.5 -14q37 0 59.5 30.5t40.5 53.5q18 139 -51 141q-76 4 -108 -16q-37 -23 -37 -152z" />
<glyph unicode=";" horiz-adv-x="299" d="M23 57q0 129 38 150q18 18 109 16q70 -2 51 -141q-16 -127 -96 -211q-82 -82 -29 129q-29 8 -46 22.5t-27 34.5zM33 602q0 129 37 152q20 20 108 16q70 -2 51 -141q-18 -23 -40.5 -53.5t-59.5 -30.5q-33 0 -64.5 14t-31.5 43z" />
<glyph unicode="&#x3c;" horiz-adv-x="872" d="M41 573q37 -37 68 -55q16 -10 44.5 -29.5t69.5 -52.5q31 -31 62.5 -54.5t62.5 -45t62.5 -45t62.5 -53.5q61 -59 136 -99.5t169 -40.5q0 98 -14 159.5t-40 100.5t-63.5 66t-84 57.5t-99.5 73.5t-112 115q2 4 10 12t12 10q6 2 28.5 14.5t50.5 28t51.5 29.5t29.5 18 q27 23 69.5 63t82.5 88t69 100t29 102v12q-2 4 -7.5 21.5t-15.5 45.5l-29 60q-66 -29 -104.5 -45.5t-48.5 -20.5q-25 -10 -35 -20q-8 -8 -16.5 -17.5t-16.5 -23.5q-27 -39 -70.5 -79t-90 -78t-84 -73.5t-52.5 -64.5q-150 -119 -168 -178q-18 -56 -18 -101z" />
<glyph unicode="=" horiz-adv-x="876" d="M14 408q0 -61 56.5 -99.5t132.5 -58t151.5 -26.5t116.5 -7q72 0 111 13.5t62.5 41t37.5 72.5t37 109q14 39 23.5 62.5t17.5 44t14 44t12 60.5q-92 -53 -207.5 -95.5t-232.5 -54.5q-96 -10 -260 18l-45 -63zM14 918q0 -61 56.5 -98.5t132.5 -59t151.5 -28.5t116.5 -7 q72 0 111 13.5t61.5 41t37.5 72.5t38 111q14 39 24.5 62.5t17.5 44t13 43t12 61.5q-92 -53 -207.5 -95.5t-232.5 -54.5q-96 -12 -260 18l-45 -63z" />
<glyph unicode="&#x3e;" horiz-adv-x="872" d="M41 1135v12q2 4 7 21.5t15 45.5l27 60q68 -29 105.5 -45.5t48.5 -20.5q20 -6 35 -20q12 -14 34 -41q27 -39 71 -79t89 -79t83 -73.5t54 -63.5q150 -119 168 -178q19 -56 19 -101q-41 -41 -72 -55q-35 -20 -111 -82q-33 -31 -64.5 -54.5t-62 -45t-61.5 -45t-61 -53.5 q-61 -59 -137 -99.5t-169 -40.5q0 98 14.5 159.5t40 100.5t62.5 66t83 57.5t100.5 73.5t113.5 115q-10 10 -15 16t-36 21q-16 8 -38 20t-41 23.5t-34.5 19.5t-17.5 12q-29 23 -71 63t-82 88t-68.5 101t-28.5 101z" />
<glyph unicode="?" horiz-adv-x="921" d="M20 1106q0 39 10.5 81t31 77.5t53 58.5t78.5 23q55 0 124.5 -12.5t142 -36t141.5 -58.5t123 -82t87 -104.5t33 -124.5q0 -4 -1 -22.5t-1 -22.5q-10 -12 -40 -43t-62.5 -65t-62.5 -62.5t-40 -38.5q-20 -23 -49 -57.5t-53 -75.5q-29 -37 -43.5 -74t-149.5 -61l-92 20 q14 66 43 136.5t57 139.5q31 72 66 139.5t84 133.5q-2 27 -29 26h-37q-47 0 -93 -15t-86 -33.5t-74 -34t-56 -15.5q-39 0 -59.5 21.5t-30.5 53.5t-12.5 66.5t-2.5 61.5zM213 57q0 125 41 162q39 39 123 23q80 -16 51 -162q-20 -20 -44 -51t-62 -31q-39 0 -74 14t-35 45z" />
<glyph unicode="@" horiz-adv-x="1343" d="M37 326l2 -150q12 -74 47 -128t107 -54q184 0 357 58.5t315.5 162.5t243.5 248.5t144 316.5q0 4 5.5 15.5t7.5 23.5q4 12 7 23.5t3 48.5q0 18 -1 50t-4 71t-9.5 80t-16.5 75q-23 74 -69 123t-127 49q-262 0 -454 -76.5t-315.5 -208.5t-183 -309.5t-59.5 -379.5v-39z M246.5 679.5q21.5 106.5 74 183.5t127 128t160.5 81t176 42t170 12q2 0 8 -1l5 -1q4 -6 13 -23.5t9 -23.5v-43q0 -27 1 -59.5t1 -61.5v-43q0 -43 1 -99t-8 -117.5t-36.5 -125t-85.5 -125.5q-2 18 -9 51t-16.5 76t-22.5 93.5t-28 101.5q-16 59 -34.5 111.5t-36.5 95.5 q-10 23 -18.5 35t-14.5 18q-8 4 -17.5 8t-25.5 6q-12 -4 -24.5 -6t-22.5 -10q-10 -6 -21.5 -18.5t-15.5 -18.5q-80 -135 -130 -290.5t-50 -313.5q2 0 13 -6t42 -2q25 0 43.5 5t46.5 17l19 13v141h118q35 0 41.5 -32t6.5 -68q0 -35 7 -65t40 -34q-82 -53 -201 -98t-289 -76 l-14 295q-23 141 -1.5 247.5zM541 662q0 12 5 42.5t13 62.5t19.5 58.5t23.5 30.5q31 -29 45.5 -80t14.5 -86q0 -16 -31 -22t-60 -6h-30z" />
<glyph unicode="A" horiz-adv-x="1044" d="M20 43q4 -1 27 -13q13 -7 40 -7q19 0 44 4q49 0 86 10t96 33l35 24v283h240q33 0 52 -17.5t28.5 -46t11.5 -63.5t2 -72t3 -72.5t15.5 -63.5t35 -45t59.5 -17q57 0 97 15t104 52q0 12 1.5 45t1.5 45q0 16 -11 81t-31.5 157t-49 204.5t-61.5 227.5q-33 117 -70 222.5 t-76 193.5q-37 82 -65.5 104.5t-83.5 30.5q-27 -8 -50.5 -13.5t-44 -19.5t-44 -38.5t-29.5 -35.5q-80 -133 -146.5 -280.5t-114.5 -301t-75 -312t-27 -314.5zM354 680q0 25 9.5 86t26 125.5t38.5 118t49 61.5q31 -31 52.5 -73t36 -88t21.5 -91t7 -80q0 -16 -17.5 -27.5 t-43 -18.5t-57.5 -10t-60 -3h-62z" />
<glyph unicode="B" horiz-adv-x="1126" d="M22 402q2 -136 1 -271v-84q25 -25 43 -37t49 -12h88h84q51 0 116.5 2t116.5 2h94h117h111l227 174v8q0 47 -26.5 82t-67.5 64q-23 18 -47.5 33.5t-56 41t-72.5 68.5t-97 115l29 35q35 39 93.5 100t101.5 131q45 70 72.5 144.5t66.5 162.5l8 86q-119 39 -264 65.5 t-326 41.5q-45 0 -104.5 -8.5t-119.5 -24.5t-111.5 -43t-79.5 -66q-23 -135 -32 -270q-8 -135 -12 -270q-2 -94 -3 -189q1 -40 1 -81zM254 219q-13 19 -13 62q0 53 19 143q32 151 68 151q4 0 8 -2q43 -16 168 -122q12 -16 22.5 -29.5t22.5 -31t32.5 -41t55.5 -58.5 q-66 -72 -209 -72h-174zM328 815q4 88 19 152.5t36 138.5q35 25 72 33q21 5 51 5q22 0 49 -3l137 -35l-10 -90q-27 -39 -58.5 -74t-66.5 -68z" />
<glyph unicode="C" horiz-adv-x="1036" d="M20 979q6 2 41 86t64 106q25 16 33 25q29 39 101.5 67.5t155.5 47t161.5 27t121.5 8.5q25 0 65 2h19q30 0 59 -4q38 -6 65.5 -26t27.5 -61q-4 -23 -11.5 -31.5t-14.5 -19t-15 -31t-14 -65.5l-41 -39q-100 -16 -155.5 -26.5t-68.5 -12.5q-12 0 -26.5 -1t-30.5 -1 q-43 0 -79 -18.5t-61.5 -49t-40 -69.5t-14.5 -82q0 -111 19.5 -226.5t48.5 -215.5q16 -53 45 -83t67 -44.5t82 -17.5t93 -3h37h32t41 2q14 1 28 1q77 0 124 -25q0 -23 -9 -56.5t-24.5 -65.5t-37 -54.5t-46.5 -22.5h-387q-4 0 -16.5 6t-27.5 14.5t-28.5 17.5t-17.5 15 q-20 14 -51 46t-62 65q-14 16 -26.5 29.5t-22.5 30t-21.5 38t-23.5 51.5q-27 51 -59.5 135t-53 176.5t-30.5 182.5t-15 172z" />
<glyph unicode="D" horiz-adv-x="1036" d="M20 197q0 -23 8.5 -57t24 -64.5t37 -53t47.5 -22.5h387q4 0 16.5 6t27 14.5t27.5 16.5t19 12q35 31 80 77t103 118l22 51q27 66 60.5 149.5t54 176t31 180.5t10.5 160q-29 45 -42 63t-28 29q-12 16 -21.5 34.5t-15.5 30.5q-2 8 -6 19.5t-9 22.5t-8 20l-3 8 q-29 39 -101.5 67.5t-155.5 46t-162 25.5t-122 8q-25 0 -65 2q-11 1 -22 1q-28 0 -55 -4q-38 -5 -65.5 -24.5t-27.5 -62.5q0 -18 7 -29.5t16 -20.5t17.5 -18.5t8.5 -25.5v-12q-4 -8 -12.5 -48t-15.5 -86t-13 -86t-6 -47q-6 -68 -14.5 -155.5t-15.5 -181t-12.5 -182 t-5.5 -158.5zM250 279q0 78 10 168t28.5 181t43 179t55.5 164q12 39 17.5 46t37.5 7q43 0 79 -17.5t61.5 -48t40 -69.5t14.5 -82q0 -104 -19.5 -219t-48.5 -213q-16 -51 -44.5 -80t-66.5 -43t-83 -17.5t-92 -3.5q-18 0 -25.5 16t-7.5 32z" />
<glyph unicode="E" horiz-adv-x="991" d="M33 346l8 -37l16 -317q94 0 189.5 16.5t190.5 34.5q95 17 191 29q51 6 102 7q45 0 89 -5q47 84 47 176q0 59 -4 99t-20 106q-4 0 -16.5 1t-18.5 1q-51 0 -103.5 -19.5t-104.5 -42t-105.5 -42t-108.5 -19.5q-31 0 -35 13t-8 61q0 10 1 40.5t3 65.5t3 65.5t1 41.5 q4 0 18.5 1t18.5 1q41 -6 95.5 -21.5t109.5 -32t106.5 -29t85.5 -12.5h13q10 66 17 111t7 104q0 41 -10 66t-29.5 38t-50.5 21.5t-72 16.5q-18 2 -63 8t-96 14t-95.5 15.5t-62.5 11.5v24q0 61 24.5 90t86.5 29q98 0 193 -14t194 -14q29 0 55.5 5t38.5 46q0 10 1 42t1 42v45 q0 41 -13.5 71.5t-58.5 36.5h-24q-18 0 -38 1t-38 1h-25q-27 0 -88 -4t-139 -13t-161 -23.5t-151.5 -38t-112.5 -54t-44 -71.5q0 -23 27.5 -38.5t44.5 -19.5q0 -8 1 -30.5t1 -28.5q0 -12 -1 -33.5t-1 -26.5q-8 -63 -22.5 -163.5t-31.5 -194.5q-14 -94 -26 -152 q-7 -31 -7 -59q0 -23 5 -43z" />
<glyph unicode="F" horiz-adv-x="927" d="M33 969l8 47l16 336q94 0 190.5 -18.5t192 -38t190.5 -31.5q41 -5 82 -4q54 0 107 8q47 -84 47 -183q0 -33 -1 -56t-4 -45.5t-8 -48.5t-11 -61q-4 0 -16.5 -1t-18.5 -1q-51 0 -103.5 19.5t-104.5 44.5t-105.5 44t-108.5 19q-31 0 -35 -14t-8 -61q0 -14 1 -45t3 -66 t3 -65.5t1 -42.5q4 0 18.5 -1.5t18.5 -1.5q43 6 94 9.5t119 11.5q70 10 111 14t75 4q20 -10 27.5 -57t7.5 -109q0 -41 -10 -64.5t-29.5 -37.5t-50.5 -22.5t-72 -18.5q-18 -2 -63 -9t-95 -15.5t-95.5 -15.5t-63.5 -9v-27q0 -33 2 -67.5t6 -75.5q35 -41 60.5 -75t40.5 -60 q-14 -76 -77 -76q-11 0 -24 2q-41 10 -79 20.5t-72 20.5q-68 23 -112 54.5t-44 72.5q0 27 27.5 42t44.5 19q0 10 1 33t1 29q0 14 -1 35.5t-1 25.5q-8 68 -22.5 169.5t-31.5 199.5q-6 49 -11 83t-9 60.5t-6 49t-2 51.5z" />
<glyph unicode="G" horiz-adv-x="1036" d="M20 979q6 2 41 86t64 106q25 16 33 25q29 39 101.5 67.5t155.5 47t161.5 27t121.5 8.5q25 0 65 2h19q30 0 59 -4q38 -7 65.5 -26.5t27.5 -60.5q0 -20 -8 -31.5t-17.5 -20.5t-16.5 -17t-7 -23l-47 -94q-223 -47 -242 -47h-2q-4 6 -37 6q-43 0 -79 -18.5t-61.5 -49 t-40 -69.5t-14.5 -82q0 -111 19.5 -226.5t48.5 -215.5q16 -53 45 -83t67 -44.5t82 -17.5t93 -3q-47 93 -47 190q0 40 8 81l-127 36l37 209l362 -82q-12 -91 -12 -175q0 -154 41 -281q0 -23 -9 -56.5t-24.5 -65.5t-37 -54.5t-46.5 -22.5h-387q-4 0 -16.5 6t-27.5 14.5 t-28.5 17.5t-17.5 15q-20 14 -51 46t-62 65q-33 39 -104 155q-16 47 -48 131.5t-54 172.5q-20 94 -30.5 184t-15.5 172z" />
<glyph unicode="H" horiz-adv-x="1208" d="M20 1356q45 0 104.5 -6.5t119 -22.5t111 -43t79.5 -67q10 -67 14 -167q1 -28 0 -58q0 -79 -6 -173h258q25 264 50 398q27 39 78 66.5t111 43.5t120.5 23.5t103.5 7.5q0 -29 -4 -48.5t-11 -39t-16.5 -42t-19.5 -54.5q-41 -152 -72.5 -280t-57.5 -254t-49.5 -259 t-47.5 -293q-16 -25 -37 -57.5t-53 -32.5q-33 0 -90 111l-23 473q-63 -4 -104 -6.5t-62 -2.5h-61q14 -37 18 -170q6 -133 6 -266v-88q-25 -23 -43 -33t-47 -10q-35 0 -55.5 32t-34.5 56q-27 160 -49.5 292t-59.5 251q-25 123 -42 202t-23 111q-8 35 -21.5 91.5t-33.5 132.5 q-8 33 -17.5 55t-16.5 40.5t-11.5 38t-4.5 48.5z" />
<glyph unicode="I" horiz-adv-x="563" d="M40 402q1 -136 1 -271v-86q25 -25 43 -36t47 -11q35 0 55.5 32.5t36.5 57.5q25 160 48.5 293t49 259t57.5 254t73 280q8 35 17 57t16.5 40.5t11.5 38t4 48.5q-45 0 -104.5 -7.5t-119 -23.5t-110.5 -44t-80 -66q-23 -133 -32 -268.5t-12 -272.5q-2 -103 -2 -205v-69z" />
<glyph unicode="J" horiz-adv-x="909" d="M20 512q0 -68 8.5 -157t37 -169t85 -134t152.5 -54q61 0 111.5 21.5t92.5 56.5t78 82t68 96q31 47 57.5 92t49 97.5t41 117t33.5 150.5l26 645q-78 -8 -149 -19q-35 -4 -93.5 -20.5t-140.5 -42.5q10 -72 17.5 -143.5t15.5 -143.5t10 -147q1 -26 1 -52q0 -53 -3 -110 q-6 -166 -59 -301q-49 -133 -90 -205q-29 -11 -56 -11q-13 0 -26 3q-16 10 -20.5 21.5t-10.5 29.5q-4 23 -6 56.5t-2 68.5v55q0 98 12 158q2 9 2 16q0 48 -63 64q-42 12 -81 12q-22 0 -42 -4q-49 -8 -53 -53q-2 -10 -3 -21v-20v-35z" />
<glyph unicode="K" horiz-adv-x="1126" d="M22 400q2 -136 1 -269v-86q25 -25 43 -36t49 -11q14 0 27.5 10t24.5 23.5t20.5 29t17.5 25.5q12 82 26.5 161t30.5 156q30 143 67 143q3 0 7 -1q43 -12 168 -117q16 -14 25.5 -36.5t31.5 -67.5q29 -45 58.5 -89.5t39.5 -62.5q2 -4 18.5 -23.5t38 -43t44 -47t37.5 -35.5 q8 -6 25.5 -15.5t19.5 -7.5l227 172v10q0 49 -26.5 84t-67.5 62q-20 14 -46 33.5t-57 41.5q-68 47 -170 185l8 9q7 9 21 26q35 39 93.5 99t101.5 130q45 72 72.5 146.5t66.5 162.5l8 86q-62 7 -123 7h-16q-68 -1 -133 -11l-90 -237q-29 -39 -59.5 -78t-65.5 -72l-244 -104 q10 70 17.5 119t15.5 81.5t22.5 87t34.5 129.5q10 31 19.5 52.5t16.5 42t11 41t4 45.5q-45 0 -104.5 -6.5t-118.5 -21.5t-111.5 -43t-80.5 -69q-23 -133 -32 -268q-8 -135 -12 -271q-2 -95 -3 -190q1 -40 1 -81z" />
<glyph unicode="L" horiz-adv-x="903" d="M23 188q0 -59 57 -97t133 -58.5t152.5 -27.5t113.5 -7q72 0 112 13.5t72.5 38t55 60t41.5 91.5q20 57 34.5 94t23.5 63.5t17.5 48t16.5 48.5q-147 -63 -264 -105.5t-221 -42.5q0 121 31.5 256t81.5 268.5t116 257t133 222.5q-33 18 -57.5 21t-57.5 3q-127 0 -197.5 -31.5 t-110.5 -91t-59.5 -146.5t-41.5 -200q-12 -59 -27.5 -135t-27 -157.5t-16.5 -163.5q-2 -32 -2 -61q0 -47 5 -89l-92 -49q-4 -4 -13 -12.5t-9 -10.5z" />
<glyph unicode="M" horiz-adv-x="1263" d="M20 172q0 -66 11.5 -100.5t37 -52t67.5 -20.5t102 -3q14 0 44.5 2t36.5 2l23 23v614l23 92q18 -98 48.5 -198.5t63.5 -188.5q8 -27 31.5 -76t55.5 -98t69 -86t72 -37q29 0 47 22.5t22 47.5q2 4 5 30.5t7.5 57t7.5 58.5t3 34q6 37 16 98.5t21.5 119.5t19.5 101t10 45 l23 46q2 -20 4 -64.5t5 -101t5 -118t4 -117.5t3 -101t1 -66v-26q0 -14 2 -35t2 -39v-25q37 0 74 29t60 49q6 8 28.5 31.5t49 50.5t49 49.5t32.5 28.5v35v34q-12 123 -35.5 254.5t-52 260.5t-59.5 252.5t-58 232.5q-2 6 -10 13t-12 11l-5 1q-5 2 -7 2q-27 0 -56.5 -39 t-60.5 -100.5t-61.5 -135.5t-58.5 -145.5t-51.5 -131t-41.5 -89.5q-10 68 -17.5 146.5t-12.5 158.5t-9 153.5t-6 132.5q-6 18 -18.5 22.5t-24.5 4.5q-18 0 -48 -3t-60.5 -9t-58.5 -15.5t-40 -21.5q-10 -31 -29.5 -94.5t-44 -144.5t-52.5 -170t-52.5 -170t-44 -145.5 t-29.5 -94.5q-8 -29 -20.5 -66t-22.5 -76t-18.5 -75.5t-8.5 -65.5z" />
<glyph unicode="N" horiz-adv-x="1163" d="M24 354q1 -144 1 -284q12 -43 57 -70q28 -4 48 -5h13q12 0 21 1q29 4 55 94q12 100 74 326l49 237q8 43 21.5 97.5t31.5 128.5q45 -100 56 -146q10 -53 26 -86q12 -68 19.5 -146.5t12.5 -158.5t8 -154.5t7 -132.5q6 -18 17.5 -22t25.5 -4q18 0 47 3t60 9t58.5 15.5 t41.5 21.5q8 31 27.5 94.5t45 144t53.5 169.5t52.5 170t44 144.5t27.5 96.5q8 31 19.5 69t21.5 77.5t18.5 78.5t8.5 70q0 66 -12.5 99.5t-38 48t-66.5 15.5t-96 1q-16 0 -47 -2t-35 -2l-23 -23v-614l-22 -92q-18 98 -49 198.5t-66 188.5q-6 25 -22.5 56.5t-35 63t-36 60.5 t-29.5 47q-18 33 -23.5 60.5t-5.5 56.5q-45 0 -104 -6.5t-119.5 -23.5t-112 -45t-79.5 -71q-23 -141 -32 -283.5t-12 -284.5q-2 -106 -2 -214v-72z" />
<glyph unicode="O" horiz-adv-x="968" d="M20 330q0 -25 1.5 -55.5t1.5 -57.5v-37q12 -74 46.5 -128t106.5 -54q184 0 303 58.5t195 164t123 249.5t90 316q0 4 5 15.5t7 23.5q4 12 7 23.5t3 48.5q0 18 -1 50t-4 71t-9 80t-16 76q-23 74 -69 123t-128 49q-100 0 -187 -46.5t-161 -122t-132.5 -176t-98.5 -209 t-61.5 -218t-21.5 -205.5v-39zM315 545q0 27 5.5 78t17.5 112.5t29.5 127t42 117.5t55.5 86t70 34q2 0 7 -1l5 -1q4 -6 13 -23.5t9 -23.5v-43q0 -27 1 -60t1 -61v-43q0 -74 -5 -164t-23.5 -179t-55 -169t-100.5 -131q-47 86 -59.5 169t-12.5 175z" />
<glyph unicode="P" horiz-adv-x="1085" d="M20 475q0 -49 1.5 -98t1.5 -86v-41q0 -23 3 -57.5t13 -68.5t30.5 -57.5t55.5 -23.5q23 0 59.5 13.5t71.5 35t60.5 48t25.5 50.5v15l-47 272q0 2 2 11.5t2 11.5l166 24q94 37 146.5 57.5t64.5 26.5q12 4 25.5 12.5t30 23.5t38 40t51.5 61q88 113 146.5 226.5t58.5 249.5 q0 49 -44 75.5t-103.5 36.5t-119 11.5t-87.5 1.5q-119 0 -204 -3.5t-145.5 -17.5t-101.5 -45t-73.5 -84t-61.5 -134t-63 -198v-61q0 -43 -1.5 -92t-1.5 -95v-59v-82zM262 825q-1 17 -1 35q0 36 3 74q4 57 21.5 108.5t56.5 71.5h45q14 0 26.5 2t18.5 2q55 0 104.5 -4 t100.5 -22q14 -6 37.5 -16.5t45 -22t38 -19.5t16.5 -10v-45q-2 -2 -21.5 -18.5t-47 -40t-46.5 -33.5q-86 -63 -185 -100t-210 -37q0 23 -2 75z" />
<glyph unicode="Q" horiz-adv-x="985" d="M20 330q0 -27 1.5 -57.5t1.5 -55.5v-37q12 -74 46.5 -127t106.5 -53q190 0 281 39q73 31 103 31q8 0 13 -2q8 -4 32 -15.5t59 -32.5q68 -38 182 -38h6q2 0 14 -1q7 -1 13.5 -1t12.5 1q13 1 24.5 7t11.5 18q0 106 -60 184q-51 76 -112 115q-10 33 -2 47.5t49 139.5 q20 59 40.5 131.5t43.5 158.5q0 2 3 13.5t8 25t8 24.5t3 13q0 68 -4 152t-26.5 156.5t-68.5 121.5t-128 49q-100 0 -187 -45t-161 -120.5t-132.5 -175t-98.5 -208t-61.5 -217t-21.5 -204.5v-37zM315 526q0 27 5.5 78t17.5 112.5t29.5 126t42 118t55.5 87t70 33.5q2 0 7 -1 l5 -1q4 -6 13 -23.5t9 -23.5v-43q0 -27 1 -59.5t1 -61.5v-43q0 -39 -2 -97t-8 -146q-9 -151 -41 -151q-3 0 -6 1q-12 4 -25 4q-28 0 -55 -22q-14 -11 -14 -37q0 -45 45 -137l-78 -58q-47 86 -59.5 169t-12.5 175z" />
<glyph unicode="R" horiz-adv-x="1058" d="M23 698q2 -51 6 -139t7 -174t6 -151.5t3 -73.5q0 -18 4 -46t14.5 -53.5t28 -43t43.5 -17.5q18 0 60.5 8t84.5 23.5t74.5 39t32.5 54.5q0 29 -7 58.5t-16.5 60t-16.5 62.5t-7 67q0 10 1 39.5t1 40.5q80 -68 138.5 -147t118.5 -147.5t135 -113.5t190 -45q2 0 14 -1 q6 0 12 -1q6 0 14 1q14 1 25.5 7t11.5 19q0 68 -26.5 122t-70.5 99t-99 84t-110.5 76.5t-106.5 75.5t-88 83q12 12 17 16.5t36 20.5q16 8 37.5 19.5t40 21.5t33 19.5t18.5 13.5q29 20 72 60t83 88t68.5 100.5t28.5 99.5q0 23 -8 39t-4 61q3 20 3 37q-1 21 -5 38q-8 30 -7 65 q0 4 -2 11l-2 7q-4 6 -14 18.5t-21.5 22.5t-20.5 18.5t-11 8.5h-523q-8 -4 -33.5 -12.5t-35.5 -10.5q-2 0 -15.5 -4t-30 -7t-30.5 -7l-14 -4q-23 -10 -42.5 -52.5t-34.5 -99.5t-26.5 -122.5t-18.5 -125t-11 -106t-4 -64.5v-37zM272 774v340q0 12 12.5 21.5t31 14.5t40 7 t41.5 2h47q27 0 65 -4t71.5 -15.5t57.5 -30.5t24 -50q0 -43 -40 -89t-93.5 -89t-106.5 -77t-80 -52q-2 0 -10 -1t-13 -1q-12 0 -29.5 3t-17.5 21z" />
<glyph unicode="S" horiz-adv-x="991" d="M6 422q0 -37 7 -107.5t23.5 -141.5t44.5 -123t71 -52q10 0 29.5 2t23.5 2q18 2 53 6t71 7t65.5 6.5t37.5 3.5q27 4 72 35.5t96 80.5t102.5 106.5t92.5 115t67.5 105.5t26.5 77q0 18 -25.5 42.5t-64.5 52.5t-88 55.5t-94.5 53t-83 47t-56.5 35.5q-14 12 -37.5 34t-45 43.5 t-37 39t-15.5 21.5v49q0 6 18.5 10t46 7t57.5 5t54 2h39q66 0 132.5 -12t131.5 -12q51 0 53 14q4 10 35 53q2 0 6.5 16.5t8.5 38t7 45t3 40.5q0 39 -26.5 62.5t-63.5 34.5t-76 14t-63 3q-80 0 -160 -17t-158 -46t-152.5 -67t-144.5 -79q-6 -6 -15 -32.5t-7 -34.5 q8 -59 49 -127t96 -135.5t118.5 -129t117 -110.5t88 -78.5t34.5 -31.5q0 -31 -31.5 -44.5t-72.5 -16.5q-25 -2 -49 -2q-16 0 -32 1q-40 2 -56 2q-82 0 -160 15.5t-164 15.5z" />
<glyph unicode="T" horiz-adv-x="1048" d="M34 964q-1 -3 -1 -6q0 -12 22 -18q29 4 73 16.5t103 34.5q117 47 222 47q0 -123 -32 -259t-83 -271t-115.5 -259t-132.5 -222q33 -18 57.5 -23.5t57.5 -5.5q125 0 195.5 32.5t110.5 94t60.5 149.5t42.5 199q12 57 27.5 135t27 161t16.5 166q2 32 2 61q0 47 -5 89l63 15 q18 0 42 -3t47.5 -6.5t43 -6.5t29.5 -5h2q40 0 76 168q-82 16 -174 42t-186.5 34t-171 16.5t-113.5 8.5q-74 0 -113 -13.5t-61.5 -42t-36.5 -75t-39 -109.5q-12 -37 -22.5 -60.5t-18.5 -46.5q-8 -21 -15 -37z" />
<glyph unicode="U" d="M23 520q0 -68 13 -158t47 -170.5t93.5 -137t149.5 -56.5q92 0 169.5 57.5t140 150.5t110 208.5t79 232.5t47 223.5t15.5 178.5v36q0 14 -3 51.5t-6.5 78t-7.5 77.5t-6 51q-6 0 -27.5 3.5t-29.5 3.5q-57 0 -96 -16.5t-97 -61.5q-6 -135 -15 -289t-36.5 -304.5t-79 -288.5 t-141.5 -247q-2 0 -6 -1t-6 -1q-18 0 -29.5 21.5t-19 53.5t-9.5 69t-2 67v60q0 100 17.5 191t44 177t59.5 172t64 178q0 2 1 16.5t1 20.5q0 4 -1 16.5t-1 18.5q-18 10 -44 22.5t-54.5 24t-57.5 18.5t-51 7q-35 0 -64.5 -49t-55.5 -126t-45.5 -168t-32.5 -174t-20 -148.5 t-7 -88.5z" />
<glyph unicode="V" horiz-adv-x="1036" d="M2 1305q4 0 20.5 -1t34.5 -1q20 0 36 -2.5t22 -2.5q16 -2 47 -6t59.5 -7t50.5 -5l23 -2l35 -21l2 -292l22 -228q0 -14 1 -37.5t7 -58.5q10 -70 25 -115q14 -43 31.5 -97t64.5 -97q47 43 56 69q4 12 11 32t15 46q29 115 29 197q16 141 27.5 222t19.5 103.5t11 42t5 39.5 q6 43 7 93q0 35 3 68.5t15 61t34.5 45t59.5 17.5q57 0 100.5 -14.5t102.5 -55.5q0 -8 1 -38.5t1 -42.5q0 -16 -11.5 -78t-31.5 -150t-49 -196.5t-61.5 -218t-69.5 -214t-75 -184.5t-76 -129t-72 -49q-8 0 -34 20.5t-54.5 47t-53 51t-28.5 30.5q-80 131 -146.5 271.5 t-115 288t-75 298t-26.5 300.5z" />
<glyph unicode="W" horiz-adv-x="1140" d="M18 578q10 -33 24.5 -88.5t32 -120t39 -131t47 -119.5t55.5 -87t65 -34q4 0 16 2t16 2q25 160 72 329t88 316q2 4 10.5 23.5t12.5 23.5q4 -4 12 -23.5t10 -23.5q2 -12 14.5 -52t29 -86t30.5 -86t18 -52q10 -29 34 -77t51.5 -99.5t54 -98.5t43.5 -71q2 0 5 -1t5 -1 q14 0 45 33.5t63.5 76.5t58 85t27.5 61q6 43 17.5 123.5t23 165.5t19.5 154t8 85q0 6 1 38t1 70q0 41 1 82t1 66q0 14 -1 50t-1 75q0 43 -1 79t-1 48q2 33 -11.5 42t-31.5 9q-14 0 -56 -9t-86 -23.5t-79 -32t-35 -35.5q0 -104 14.5 -204.5t14.5 -205.5v-43q0 -31 -1 -63.5 t-1 -61.5v-41q-82 147 -124 289.5t-42 310.5h-86q-2 0 -16.5 -23.5t-33 -57t-37 -68.5t-26.5 -58q-10 -20 -29.5 -70t-41 -105.5t-40 -103.5t-26.5 -67v15q0 12 -1 24t-1 23v18q0 57 11 115.5t25.5 117t25.5 116t11 114.5q0 14 -3 32.5t-23 22.5h-21q-10 0 -23 1t-28 1h-18 q-117 0 -162 -30.5t-55 -75.5q-3 -45 -9 -78q-3 -19 -4 -40q0 -15 2 -30v-462z" />
<glyph unicode="X" horiz-adv-x="1126" d="M20 16l9 90q39 92 66.5 175.5t70.5 156.5q45 74 103.5 139.5t95.5 106.5q27 33 26 41q-106 143 -168 193q-31 27 -56.5 46t-45.5 35q-41 33 -68.5 70t-27.5 90v8l227 185q1 1 2 1q6 1 18 -7q18 -10 27 -17q12 -12 33.5 -37.5t43 -51.5t39 -47.5t19.5 -25.5q12 -18 42 -64 t54.5 -95.5t33.5 -72t28 -42.5q31 51 60.5 98t58.5 88l90 254q85 13 159 13q61 0 113 -9l-8 -90q-39 -92 -66.5 -175t-72.5 -157q-43 -74 -101.5 -139t-119.5 -125l6 -37q100 -129 161 -180q31 -25 56.5 -45t46.5 -37q41 -31 67.5 -67.5t26.5 -87.5v-11l-227 -184 q-1 -1 -2 -1q-6 0 -18 7q-18 10 -25 17q-14 12 -37 36.5t-44.5 51t-37.5 48t-19 25.5q-6 12 -26.5 44t-44 69t-46 73.5t-32.5 59.5q-37 -39 -67.5 -78t-57.5 -80l-92 -254q-84 -13 -158 -13q-61 0 -115 9z" />
<glyph unicode="Y" horiz-adv-x="1126" d="M25 1149q0 -49 27.5 -86t68.5 -72q39 -27 102 -78q61 -49 168 -192q0 -5 33 -62q-2 -47 -5 -119.5t-6 -155.5t-3 -171q0 -86 4 -164q0 -25 29.5 -38t62.5 -13t53.5 27.5t36.5 44.5q25 129 48.5 232.5t47.5 201.5q12 49 22.5 86t18.5 61q33 53 91.5 119t101.5 139 q45 74 72.5 155t66.5 173l8 92q-59 8 -120 8q-74 0 -152 -12l-90 -254q-29 -41 -58.5 -87t-60.5 -97q-18 18 -27.5 40.5t-34 72t-54.5 95.5t-42 64q-4 6 -20.5 27.5t-38 47.5t-43 50.5t-33.5 34.5q-10 8 -27 19q-12 7 -17 7q-2 0 -3 -2l-227 -184v-10z" />
<glyph unicode="Z" horiz-adv-x="921" d="M23 1196v25q2 6 11 25.5t20.5 43t21.5 44t14 26.5q12 0 41 3t39 3q47 0 115.5 -14.5t143.5 -41t148.5 -64.5t132 -85t95.5 -102t37 -115v-10q0 -8 -3 -26.5t-7.5 -37t-7.5 -35t-5 -22.5q-45 -20 -121.5 -63t-150.5 -98.5t-128 -117t-54 -116.5v-10q2 -4 10 -12.5 t12 -12.5q41 -29 100.5 -43t121 -19.5t117.5 -6.5t93 -3q8 0 21 1l14 1q8 -2 9 -22.5t1 -26.5q0 -23 -4 -54.5t-18 -66.5l-19 -34l-71 -107l-18 -2q-17 -2 -29 -2q-41 0 -105.5 14.5t-137.5 40t-147.5 60t-135 74.5t-98.5 85t-38 90q0 2 14.5 31t37 70t48 88t48 89t39 70.5 t20.5 30.5q12 16 47 54.5t75 79t76.5 77.5t51.5 52v14q-6 0 -28.5 2t-49.5 3t-49.5 3t-30.5 2q-33 -2 -52.5 -17.5t-39 -31.5t-43 -30.5t-62.5 -14.5q-43 0 -67.5 31.5t-36.5 74.5t-15 87t-3 69z" />
<glyph unicode="[" horiz-adv-x="608" d="M39 866q-6 45 2 88l16 43v355q96 0 189.5 -17.5t169.5 -29.5q37 -4 65.5 -11.5t50.5 -15.5q-27 -229 -45 -256q-137 8 -139 -18q-4 -31 -6 -78q0 -10 1 -41t1 -68q4 -35 -12 -119q-12 -74 10 -307v-24q0 -66 18 -93l172 -26q18 -4 0 -221q-98 -27 -181 -9.5t-152 39.5 q-68 23 -112 53.5t-44 73.5q0 23 27.5 39.5t44.5 20.5q0 6 1 28.5t1 30.5q0 10 -1 34.5t-1 29.5q-8 63 -22.5 163.5t-31.5 198.5q-8 47 -13 82t-9 55z" />
<glyph unicode="\" horiz-adv-x="1263" d="M20 1192q0 66 13.5 99.5t39 48t65.5 15.5t95 1q16 0 47 -2t35 -2l25 -23q70 -211 395 -641l408 -506q8 -35 17 -57.5t16.5 -40.5t11.5 -37.5t4 -48.5q-43 0 -103.5 7t-121 23.5t-111.5 43t-78 67.5q-47 115 -372 549q-166 221 -261.5 344t-124.5 160z" />
<glyph unicode="]" horiz-adv-x="608" d="M49 27q98 -27 181 -9.5t151 39.5q70 23 114 53.5t44 73.5q0 23 -27 39.5t-43 20.5q0 6 -1 28.5t-1 30.5q0 10 1 34.5t1 29.5q6 63 21.5 163.5t29.5 198.5q8 47 13.5 82t7.5 55q8 37 0 88l-15 43v355q-98 0 -192 -18.5t-166 -28.5q-37 -6 -67.5 -11.5t-51.5 -15.5 q29 -229 47 -256q135 8 137 -18q0 -14 3.5 -34t5.5 -44q0 -10 -1 -41t-3 -68q0 -37 12 -119q8 -41 5 -117.5t-13 -189.5v-24q0 -66 -19 -93l-174 -26q-16 -4 0 -221z" />
<glyph unicode="^" horiz-adv-x="718" d="M16 1094q0 27 50 61l143 131q63 45 106 45l17 -2q4 0 6 -1t4 -1l12 2l17 2q43 0 106 -45l144 -131q49 -35 49 -61q0 -23 -23 -29q-2 -2 -14 -2q-29 0 -76 20q-37 16 -64.5 27.5t-50.5 22.5q-29 16 -53 29.5t-47 27.5q-2 -2 -6 -2v-2q-20 -12 -42 -25.5t-50 -27.5 q-23 -10 -51.5 -21.5t-63.5 -26.5q-47 -23 -80 -22q-8 0 -10 2q-23 6 -23 29z" />
<glyph unicode="_" horiz-adv-x="698" d="M-59 -170q0 2 9 8t13 12l57 84q178 -23 283 -12q129 8 248 21.5t211 42.5q-12 -45 -24.5 -65.5t-24.5 -51.5q-25 -53 -41.5 -91t-42 -61.5t-69.5 -35t-122 -11.5q-29 0 -76 2t-102 9.5t-112.5 18.5t-102.5 28.5t-74.5 42t-29.5 59.5z" />
<glyph unicode="`" horiz-adv-x="493" d="M16 1663q27 14 50.5 22.5t54.5 10.5q51 8 123 -43l143 -129q45 -33 48 -58.5t-23 -33.5q-25 -10 -88 20q-35 14 -64 25.5t-51 21.5q-250 139 -193 164z" />
<glyph unicode="a" d="M23 66q0 -10 2 -26.5t20 -16.5h274l23 22q2 41 5 92t7 104.5t12.5 106.5t20.5 96q4 0 16.5 1t18.5 1q31 0 69.5 -8t55.5 -37q18 -94 22 -187q2 -46 2 -94t-2 -97q4 -20 20.5 -22.5t31.5 -2.5h16q47 0 92 20.5t80 55.5t56.5 80t21.5 92v20q-8 35 -25.5 109t-39 166 t-46 193.5t-47 193.5t-41 163.5t-29.5 104.5q-2 10 -8 29.5t-14 40t-14.5 39t-8.5 26.5q-2 4 -10 12.5t-12 10.5h-12q-45 0 -103.5 -77t-120 -199t-122 -270.5t-107.5 -290.5t-75.5 -264t-28.5 -187zM414 676q16 115 37.5 174t48.5 106q33 -43 41 -107.5t10 -180.5z" />
<glyph unicode="b" horiz-adv-x="1103" d="M20 485q0 -53 1.5 -103t1.5 -89v-43q0 -25 3 -59.5t13 -66.5t28.5 -56.5t47.5 -30.5q45 -10 80.5 -17.5t62.5 -11.5q28 -5 99 -5t184 5q101 -4 155 -5q27 0 47 -1q21 0 33 1q26 1 33.5 3t24.5 2q31 8 67.5 30.5t70.5 53.5t56.5 66t22.5 67q0 63 -17.5 142t-64.5 143 q-45 63 -104.5 104t-131.5 68l82 63q98 113 154.5 226.5t56.5 249.5q0 49 -44 75.5t-103.5 36.5t-119 11.5t-87.5 1.5q-82 0 -147.5 -3.5t-114.5 -5.5q-49 -4 -95.5 -14t-89.5 -25q-84 -25 -120.5 -110.5t-59.5 -253.5q-2 -6 -10 -23.5t-12 -23.5v-64q0 -45 -1.5 -95 t-1.5 -95v-64v-84zM262 825q-1 17 -1 35q0 36 3 74q4 57 21.5 108.5t56.5 71.5h45q14 0 26.5 2t18.5 2q55 0 104.5 -4t100.5 -22q14 -6 37.5 -16.5t45 -22t38 -19.5t16.5 -10v-45q-2 -2 -21.5 -18.5t-47 -40t-46.5 -33.5q-86 -63 -185 -100t-210 -37q0 23 -2 75zM295 510 q11 2 31 2q44 0 129 -12q25 -4 54.5 -6t63 -10.5t70.5 -24t76 -45.5q51 -39 51 -79q0 -21 -14 -42q-41 -59 -97 -84q-35 -3 -83 -3q-24 0 -50 1q-80 2 -184 12v10z" />
<glyph unicode="c" horiz-adv-x="950" d="M20 330q0 -25 1.5 -55.5t1.5 -57.5v-37q12 -74 46.5 -128t106.5 -54q250 8 336 63q88 59 162 158q57 80 57 115q0 12 -6 18q-25 31 -113 33h-4q-84 0 -120 -76q-36 -78 -123 -104q-25 55 -37.5 139t-12.5 176q0 29 5.5 80t17.5 112.5t29.5 125t42 116t55.5 85t70 32.5 q2 0 7 -1l5 -1q4 -4 13 -22.5t9 -22.5v-41q324 20 328 78v10q0 53 -18 113q-23 66 -69 116t-128 50q-100 0 -187 -46.5t-161 -123t-132.5 -177t-98.5 -209t-61.5 -219t-21.5 -206.5v-39z" />
<glyph unicode="d" horiz-adv-x="1036" d="M20 197q0 -23 8.5 -57t24 -64.5t37 -53t47.5 -22.5h387q4 0 16.5 6t27 14.5t27.5 16.5t19 12q35 31 80 77t103 118l22 51q27 66 60.5 149.5t54 176t31 180.5t10.5 160q-29 45 -42 63t-28 29q-12 16 -21.5 34.5t-15.5 30.5q-2 8 -6 19.5t-9 22.5t-8 20l-3 8 q-29 39 -101.5 67.5t-155.5 46t-162 25.5t-122 8q-25 0 -65 2q-11 1 -22 1q-28 0 -55 -4q-38 -5 -65.5 -24.5t-27.5 -62.5q0 -18 7 -29.5t16 -20.5t17.5 -18.5t8.5 -25.5v-12q-4 -8 -12.5 -48t-15.5 -86t-13 -86t-6 -47q-6 -68 -14.5 -155.5t-15.5 -181t-12.5 -182 t-5.5 -158.5zM250 279q0 78 10 168t28.5 181t43 179t55.5 164q12 39 17.5 46t37.5 7q43 0 79 -17.5t61.5 -48t40 -69.5t14.5 -82q0 -104 -19.5 -219t-48.5 -213q-16 -51 -44.5 -80t-66.5 -43t-83 -17.5t-92 -3.5q-18 0 -25.5 16t-7.5 32z" />
<glyph unicode="e" horiz-adv-x="991" d="M33 346l8 -37l16 -317q94 0 189.5 16.5t190.5 34.5q95 17 191 29q51 6 102 7q45 0 89 -5q47 84 47 176q0 59 -4 99t-20 106q-4 0 -16.5 1t-18.5 1q-51 0 -103.5 -19.5t-104.5 -42t-105.5 -42t-108.5 -19.5q-31 0 -35 13t-8 61q0 10 1 40.5t3 65.5t3 65.5t1 41.5 q4 0 18.5 1t18.5 1q41 -6 95.5 -21.5t109.5 -32t106.5 -29t85.5 -12.5h13q10 66 17 111t7 104q0 41 -10 66t-29.5 38t-50.5 21.5t-72 16.5q-18 2 -63 8t-96 14t-95.5 15.5t-62.5 11.5v24q0 61 24.5 90t86.5 29q98 0 193 -14t194 -14q29 0 55.5 5t38.5 46q0 10 1 42t1 42v45 q0 41 -13.5 71.5t-58.5 36.5h-24q-18 0 -38 1t-38 1h-25q-27 0 -88 -4t-139 -13t-161 -23.5t-151.5 -38t-112.5 -54t-44 -71.5q0 -23 27.5 -38.5t44.5 -19.5q0 -8 1 -30.5t1 -28.5q0 -12 -1 -33.5t-1 -26.5q-8 -63 -22.5 -163.5t-31.5 -194.5q-14 -94 -26 -152 q-7 -31 -7 -59q0 -23 5 -43z" />
<glyph unicode="f" horiz-adv-x="991" d="M33 354l8 -90l16 -272q47 0 95.5 4t95.5 12q94 14 108 33q9 13 9 168v33q-4 49 -7.5 69.5t-6.5 30.5t-5 20.5t-4 40.5q0 10 1 40t3 64t3 63.5t1 41.5q4 0 18.5 1t18.5 1q43 -4 96.5 -19t108.5 -32.5t106.5 -31t85.5 -13.5h13q10 68 17 113t7 104q0 39 -10 62.5t-29.5 37 t-50.5 21.5t-72 18q-18 2 -63 8.5t-95 14.5t-95.5 14.5t-63.5 8.5v24q0 61 24.5 90t86.5 29q98 0 193 -13.5t194 -13.5q29 0 55.5 3t38.5 46v15q0 12 1 26.5t1 24.5v16v45q0 39 -13.5 70t-58.5 37h-24q-18 0 -38 3t-38 3h-25q-27 0 -88 -4t-139 -13.5t-161 -24.5 t-151.5 -38.5t-112.5 -54.5t-44 -70q0 -23 27.5 -38t44.5 -19q0 -10 1 -31.5t1 -27.5q0 -12 -1 -34t-1 -26q-8 -61 -22.5 -160.5t-31.5 -193.5q-8 -49 -13 -82t-9 -55q-6 -43 -6 -99z" />
<glyph unicode="g" horiz-adv-x="950" d="M20 328q0 -25 1.5 -55.5t1.5 -59.5v-33q12 -74 46.5 -128t106.5 -54q250 8 336 63q88 59 162 158q78 104 102 178q25 76 43 172q1 5 1 11q0 86 -273 133l-64 -168l99 -37q-29 -61 -52.5 -111.5t-42.5 -89.5q-37 -78 -122 -104q-25 57 -37.5 140t-12.5 175q0 27 5.5 78 t17.5 111.5t29.5 124t42 115.5t55.5 85t70 33q2 0 7 -1l5 -1q4 -4 13 -22.5t9 -22.5v-41q324 20 328 76v10q0 53 -18 113q-23 66 -69 113.5t-128 47.5q-100 0 -187 -45t-161 -120.5t-132.5 -175t-98.5 -208t-61.5 -217t-21.5 -204.5v-39z" />
<glyph unicode="h" d="M22 400q2 -136 1 -271v-86q25 -23 43 -34t49 -11q14 0 27.5 9t24.5 23.5t20.5 29t17.5 26.5q25 160 86 373l227 8q49 -6 49 -40q0 -14 -8 -34q-14 -33 -31.5 -86t-38.5 -127q-10 -31 -19 -53.5t-16.5 -41.5t-11.5 -39.5t-4 -47.5q43 0 103.5 6t120 22.5t111.5 43t81 67.5 q23 133 32 268.5t12 270.5q2 101 2 203v68q-1 136 -1 270v88q-25 23 -43 33t-49 10q-33 0 -53.5 -32t-36.5 -54q-25 -162 -47.5 -294t-59.5 -251q-53 4 -85.5 5t-55.5 0t-40 -3t-40 -2h-61q0 39 28 172q18 66 37 134.5t39 143.5q10 31 19.5 52.5t16.5 42t11 41t4 45.5 q-45 0 -104.5 -6.5t-117.5 -21.5t-110.5 -42t-82.5 -68q-23 -137 -32 -272q-8 -135 -12 -269q-2 -94 -3 -188q1 -40 1 -81z" />
<glyph unicode="i" horiz-adv-x="563" d="M40 402q1 -136 1 -271v-86q25 -25 43 -36t47 -11q35 0 55.5 32.5t36.5 57.5q25 160 48.5 293t49 259t57.5 254t73 280q8 35 17 57t16.5 40.5t11.5 38t4 48.5q-45 0 -104.5 -7.5t-119 -23.5t-110.5 -44t-80 -66q-23 -133 -32 -268.5t-12 -272.5q-2 -103 -2 -205v-69z" />
<glyph unicode="j" horiz-adv-x="909" d="M20 512q0 -68 8.5 -157t37 -169t85 -134t152.5 -54q61 0 111.5 21.5t92.5 56.5t78 82t68 96q31 47 57.5 92t49 97.5t41 117t33.5 150.5l26 645q-78 -8 -149 -19q-35 -4 -93.5 -20.5t-140.5 -42.5q10 -72 17.5 -143.5t15.5 -143.5t10 -147q1 -26 1 -52q0 -53 -3 -110 q-6 -166 -59 -301q-49 -133 -90 -205q-29 -11 -56 -11q-13 0 -26 3q-16 10 -20.5 21.5t-10.5 29.5q-4 23 -6 56.5t-2 68.5v55q0 98 12 158q2 9 2 16q0 48 -63 64q-42 12 -81 12q-22 0 -42 -4q-49 -8 -53 -53q-2 -10 -3 -21v-20v-35z" />
<glyph unicode="k" horiz-adv-x="1126" d="M22 400q2 -136 1 -269v-86q25 -25 43 -36t49 -11q14 0 27.5 10t24.5 23.5t20.5 29t17.5 25.5q12 82 26.5 161t30.5 156q30 143 67 143q3 0 7 -1q43 -12 168 -117q16 -14 25.5 -36.5t31.5 -67.5q29 -45 58.5 -89.5t39.5 -62.5q2 -4 18.5 -23.5t38 -43t44 -47t37.5 -35.5 q8 -6 25.5 -15.5t19.5 -7.5l227 172v10q0 49 -26.5 84t-67.5 62q-20 14 -46 33.5t-57 41.5q-68 47 -170 185l8 9q7 9 21 26q35 39 93.5 99t101.5 130q45 72 72.5 146.5t66.5 162.5l8 86q-62 7 -123 7h-16q-68 -1 -133 -11l-90 -237q-29 -39 -59.5 -78t-65.5 -72l-244 -104 q10 70 17.5 119t15.5 81.5t22.5 87t34.5 129.5q10 31 19.5 52.5t16.5 42t11 41t4 45.5q-45 0 -104.5 -6.5t-118.5 -21.5t-111.5 -43t-80.5 -69q-23 -133 -32 -268q-8 -135 -12 -271q-2 -95 -3 -190q1 -40 1 -81z" />
<glyph unicode="l" horiz-adv-x="903" d="M23 188q0 -59 57 -97t133 -58.5t152.5 -27.5t113.5 -7q72 0 112 13.5t72.5 38t55 60t41.5 91.5q20 57 34.5 94t23.5 63.5t17.5 48t16.5 48.5q-147 -63 -264 -105.5t-221 -42.5q0 121 31.5 256t81.5 268.5t116 257t133 222.5q-33 18 -57.5 21t-57.5 3q-127 0 -197.5 -31.5 t-110.5 -91t-59.5 -146.5t-41.5 -200q-12 -59 -27.5 -135t-27 -157.5t-16.5 -163.5q-2 -32 -2 -61q0 -47 5 -89l-92 -49q-4 -4 -13 -12.5t-9 -10.5z" />
<glyph unicode="m" horiz-adv-x="1263" d="M20 172q0 29 8.5 66.5t18.5 75.5t22.5 75t20.5 66q10 31 29.5 95t44 145t51.5 170t52.5 169t45 144.5t29.5 95.5q12 12 40 21.5t58.5 15.5t60 9t48.5 3q12 0 24.5 -4t18.5 -23q2 -57 6 -131.5t9 -154.5t12.5 -159t17.5 -146q18 31 41.5 90t51.5 130.5t58.5 145.5 t61.5 135.5t60.5 100.5t56.5 39q2 0 7 -2l5 -1q4 -4 12 -11t10 -13q27 -109 58 -232.5t59.5 -252.5t52 -260.5t35.5 -254.5v-34v-35q-10 -8 -32.5 -30.5t-47 -48.5t-48 -49.5l-31.5 -31.5q-23 -20 -60 -49t-74 -29v25q0 18 -2 38.5t-2 35.5v26q0 20 -1 65.5t-3 101.5 t-5 117.5t-5 118t-4 100.5t-4 65l-23 -46q-2 -2 -10 -45t-19.5 -101t-21.5 -119.5t-16 -98.5q0 -6 -3 -34t-7.5 -58.5t-7.5 -57t-5 -30.5q-4 -25 -22.5 -47.5t-46.5 -22.5q-35 0 -72 37t-69 86t-55.5 98t-31.5 76q-33 88 -63.5 188.5t-48.5 198.5l-23 -92v-614l-23 -23 q-6 0 -36.5 -2t-44.5 -2q-59 0 -101.5 3t-68 20.5t-37 52t-11.5 100.5z" />
<glyph unicode="n" horiz-adv-x="1263" d="M20 -2q43 0 103.5 7t121 23.5t112 43t77.5 67.5q23 135 32 270.5t13 270.5q0 70 5 119t12 80q23 -51 36 -87t17 -58.5t11 -43t18 -43.5q12 -68 20 -146.5t12 -158.5t7.5 -154.5t5.5 -132.5q8 -18 19 -22t26 -4q16 0 45.5 3t60.5 9t58.5 15.5t41.5 21.5q8 31 27 95.5 t43.5 145t52 168.5t52 169t45 145.5t30.5 95.5q8 29 19.5 68t23 78.5t18.5 78.5t7 70q0 66 -13.5 99.5t-39 48t-65.5 15.5t-95 1q-16 0 -47 -2t-35 -2l-23 -23l-14 -600l-8 -106q-18 98 -49 198.5t-66 188.5q-6 25 -22.5 56.5t-34.5 63t-35.5 60.5t-30.5 47q-18 33 -59 49.5 t-76 24.5q-25 25 -43 36t-47 11q-35 0 -55.5 -33t-34.5 -57q-27 -160 -51.5 -293t-50 -259t-56 -254t-71.5 -280q-8 -35 -17.5 -57.5t-16.5 -40.5t-11.5 -37.5t-4.5 -48.5z" />
<glyph unicode="o" horiz-adv-x="958" d="M20 330q0 -25 1.5 -55.5t1.5 -57.5v-37q12 -74 46.5 -128t106.5 -54q184 0 303 58.5t195 164t123 249.5t90 316q0 10 11 39t11 37q0 70 -4 155t-26.5 157.5t-68.5 122t-128 49.5q-100 0 -187 -46.5t-161 -122t-132.5 -176t-98.5 -209t-61.5 -218t-21.5 -205.5v-39z M315 545q0 27 5.5 78t17.5 112.5t29.5 127t42 117.5t55.5 86t70 34q2 0 7 -1l5 -1q4 -6 13 -23.5t9 -23.5v-43q0 -27 1 -60t1 -61v-43q0 -74 -5 -164t-23.5 -179t-55 -169t-100.5 -131q-47 86 -59.5 169t-12.5 175z" />
<glyph unicode="p" horiz-adv-x="1085" d="M20 475q0 -49 1.5 -98t1.5 -86v-41q0 -23 3 -57.5t13 -69.5q10 -33 30.5 -56.5t53.5 -58.5q55 10 81.5 23.5t57.5 36.5q33 23 56.5 60.5t23.5 61.5v15l-47 272q0 2 2 11.5t2 11.5l166 24q94 37 146.5 57.5t64.5 26.5q14 4 28.5 13.5t30.5 19.5q35 23 90 102 q86 115 143.5 227.5t57.5 250.5q0 49 -44 75.5t-103.5 36.5t-119 11.5t-87.5 1.5q-119 0 -204 -3.5t-145.5 -17.5t-101.5 -45t-73.5 -84t-61.5 -134t-63 -198v-61q0 -43 -1.5 -92t-1.5 -95v-59v-82zM262 825q-1 17 -1 35q0 36 3 74q4 57 21.5 108.5t56.5 71.5h45 q14 0 26.5 2t18.5 2q55 0 104.5 -4t100.5 -22q14 -6 37.5 -16.5t45 -22t38 -19.5t16.5 -10v-45q-2 -2 -21.5 -18.5t-47 -40t-46.5 -33.5q-86 -63 -185 -100t-210 -37q0 23 -2 75z" />
<glyph unicode="q" horiz-adv-x="976" d="M20 330q0 -27 1.5 -57.5t1.5 -55.5v-37q12 -74 46.5 -127t106.5 -53q190 0 281 39q73 31 103 31q8 0 13 -2q8 -4 32 -15.5t59 -32.5q68 -38 182 -38h6q2 0 14 -1q7 -1 13.5 -1t12.5 1q13 1 24.5 7t11.5 18q0 106 -60 184q-51 76 -112 115q-10 33 -2 47.5t49 139.5 q20 59 40.5 131.5t43.5 158.5q0 2 3 13.5t8 25t8 24.5t3 13q0 68 -4 152t-26.5 156.5t-68.5 121.5t-128 49q-100 0 -187 -45t-161 -120.5t-132.5 -175t-98.5 -208t-61.5 -217t-21.5 -204.5v-37zM315 526q0 27 5.5 78t17.5 112.5t29.5 126t42 118t55.5 87t70 33.5q2 0 7 -1 l5 -1q4 -6 13 -23.5t9 -23.5v-43q0 -27 1 -59.5t1 -61.5v-43q0 -39 -2 -97t-8 -146q-9 -151 -41 -151q-3 0 -6 1q-12 4 -25 4q-28 0 -55 -22q-14 -11 -14 -37q0 -45 45 -137l-78 -58q-47 86 -59.5 169t-12.5 175z" />
<glyph unicode="r" horiz-adv-x="1103" d="M20 485v84v64q0 45 1.5 95t1.5 95v64q4 6 12 23.5t10 23.5q55 150 98 233.5t105.5 122.5t161 47.5t262.5 8.5q29 0 88 -1.5t118.5 -11.5t103.5 -36.5t44 -75.5q0 -90 -27.5 -171t-71.5 -154t-102.5 -137.5t-119.5 -121.5q0 -2 -1.5 -10.5t-1.5 -12.5q0 -47 27 -81.5 t64.5 -63.5t83 -55.5t84 -54t64.5 -59.5t26 -75q0 -37 -23.5 -69.5t-57.5 -61t-69 -52.5t-59 -42q-29 8 -55.5 30.5t-50 49t-43 54.5t-34.5 48q-10 18 -38.5 63.5t-61.5 96.5t-62.5 96.5t-41.5 61.5h-156q0 -2 -2 -11.5t-2 -11.5l47 -272v-15q0 -25 -25.5 -50t-60.5 -46.5 t-72 -36t-59 -14.5q-35 0 -55.5 23.5t-30.5 57.5t-13 68.5t-3 57.5v43q0 39 -1.5 89t-1.5 103zM262 824q2 -52 2 -74q111 0 210 36.5t185 100.5q14 8 34 23.5t38.5 30.5t30.5 27l12 11v45q0 2 -16.5 10t-38 19.5t-45 21.5t-37.5 17q-51 18 -100.5 22t-104.5 4q-6 0 -18.5 -1 t-26.5 -1t-26.5 -1t-18.5 -1q-39 -20 -56.5 -71.5t-21.5 -108.5q-3 -38 -3 -74q0 -18 1 -36z" />
<glyph unicode="s" horiz-adv-x="1103" d="M20 244q0 -39 10.5 -82t31 -79t53 -59.5t78.5 -23.5q92 0 205.5 29.5t214 86t172 140.5t79.5 193q-16 10 -49 42.5t-67.5 70.5t-66.5 73t-44 49q-20 25 -48 58.5t-53.5 72.5t-43 78t-17.5 74q0 4 1 12t1 10q51 27 96 28t99 1q37 0 71.5 -8.5t67.5 -17.5t66.5 -17t68.5 -8 q33 0 52.5 29.5t30.5 69.5t15.5 82t4.5 66q0 51 -26 78t-65.5 39t-86 14.5t-87.5 2.5q-31 0 -89 -12.5t-127.5 -35t-142.5 -53t-132.5 -66.5t-97 -75t-37.5 -80q0 -2 1 -6l1 -4q2 -4 12 -15.5t22.5 -23.5t21.5 -21.5t11 -11.5q37 -78 66 -150.5t58.5 -143t64.5 -138.5 t84 -135q-4 -25 -29 -25h-37q-47 0 -93 15.5t-86 34t-74 34t-56 15.5q-39 0 -59.5 -21.5t-30.5 -53.5t-12.5 -67.5t-2.5 -64.5z" />
<glyph unicode="t" horiz-adv-x="976" d="M34 964q-1 -3 -1 -6q0 -12 22 -18q29 4 73 16.5t103 34.5q117 47 222 47q0 -123 -32 -259t-83 -271t-115.5 -259t-132.5 -222q33 -18 57.5 -23.5t57.5 -5.5q125 0 195.5 32.5t110.5 94t60.5 149.5t42.5 199q12 57 27.5 135t27 161t16.5 166q2 32 2 61q0 47 -5 89l63 15 q74 0 115 -6h2q40 0 76 168q-82 16 -150.5 34.5t-163 26.5t-171 16.5t-113.5 8.5q-74 0 -113 -13.5t-61.5 -42t-36.5 -75t-39 -109.5q-12 -37 -22.5 -60.5t-18.5 -46.5q-8 -21 -15 -37z" />
<glyph unicode="u" d="M23 520q0 -68 13 -158t47 -170.5t93.5 -137t149.5 -56.5q92 0 169.5 57.5t140 150.5t110 208.5t79 232.5t47 223.5t15.5 178.5v36q0 14 -3 51.5t-6.5 78t-7.5 77.5t-6 51q-6 0 -27.5 3.5t-29.5 3.5q-57 0 -96 -16.5t-97 -61.5q-6 -135 -15 -289t-36.5 -304.5t-79 -288.5 t-141.5 -247q-2 0 -6 -1t-6 -1q-18 0 -29.5 21.5t-19 53.5t-9.5 69t-2 67v60q0 100 17.5 191t44 177t59.5 172t64 178q0 2 1 16.5t1 20.5q0 4 -1 16.5t-1 18.5q-18 10 -44 22.5t-54.5 24t-57.5 18.5t-51 7q-35 0 -64.5 -49t-55.5 -126t-45.5 -168t-32.5 -174t-20 -148.5 t-7 -88.5z" />
<glyph unicode="v" horiz-adv-x="962" d="M23 1288q0 10 2 25.5t20 15.5h274l23 -22q2 -41 5 -93q1 -14 1 -27q0 -35 -6 -65q-4 -19 -4 -45q0 -18 2 -39q4 -23 9 -61.5t16 -95.5q63 -315 86 -365q8 -27 21 -50.5t28 -43.5q33 37 41 93t24 142q4 63 6 108.5t2 74.5t2.5 72.5t6.5 103.5q0 82 -4.5 150.5t-8.5 162.5 q4 23 30 24t38 1q43 0 98 -17q23 -8 65 -17t102 -24q-4 -82 -8.5 -134t-6.5 -77q-8 -35 -25.5 -107.5t-39 -164.5t-46 -193.5t-47 -193.5t-41 -165t-29.5 -105q-2 -10 -8 -28.5t-13 -39t-14.5 -39t-9.5 -26.5q-2 -4 -10 -12.5t-12 -10.5l-5 -2t-7 -2q-33 0 -81 65.5 t-104.5 167t-114 224t-106.5 236.5t-84 204t-45 127q-12 61 -17 134t-5 134z" />
<glyph unicode="w" horiz-adv-x="1140" d="M18 578q10 -33 24.5 -88.5t32 -120t39 -131t47 -119.5t55.5 -87t65 -34q4 0 16 2t16 2q25 160 72 329t88 316q2 4 10.5 23.5t12.5 23.5q4 -4 12 -23.5t10 -23.5q2 -12 14.5 -52t29 -86t30.5 -86t18 -52q10 -29 34 -77t51.5 -99.5t54 -98.5t43.5 -71q2 0 5 -1t5 -1 q14 0 45 33.5t63.5 76.5t58 85t27.5 61q6 43 17.5 123.5t23 165.5t19.5 154t8 85q0 6 1 38t1 70q0 41 1 82t1 66q0 14 -1 50t-1 75q0 43 -1 79t-1 48q2 33 -11.5 42t-31.5 9q-14 0 -56 -9t-86 -23.5t-79 -32t-35 -35.5q0 -104 14.5 -204.5t14.5 -205.5v-43q0 -31 -1 -63.5 t-1 -61.5v-41q-82 147 -124 289.5t-42 310.5h-86q-2 0 -16.5 -23.5t-33 -57t-37 -68.5t-26.5 -58q-10 -20 -29.5 -70t-41 -105.5t-40 -103.5t-26.5 -67v15q0 12 -1 24t-1 23v18q0 57 11 115.5t25.5 117t25.5 116t11 114.5q0 14 -3 32.5t-23 22.5h-21q-10 0 -23 1t-28 1h-18 q-117 0 -162 -30.5t-55 -75.5q-3 -45 -9 -78q-3 -19 -4 -40q0 -15 2 -30v-462z" />
<glyph unicode="x" horiz-adv-x="1126" d="M20 16l9 90q39 92 66.5 175.5t70.5 156.5q45 74 103.5 139.5t95.5 106.5q27 33 26 41q-106 143 -168 193q-31 27 -56.5 46t-45.5 35q-41 33 -68.5 70t-27.5 90v8l227 185q1 1 2 1q6 1 18 -7q18 -10 27 -17q12 -12 33.5 -37.5t43 -51.5t39 -47.5t19.5 -25.5q12 -18 42 -64 t54.5 -95.5t33.5 -72t28 -42.5q31 51 60.5 98t58.5 88l90 254q85 13 159 13q61 0 113 -9l-8 -90q-39 -92 -66.5 -175t-72.5 -157q-43 -74 -101.5 -139t-119.5 -125l6 -37q100 -129 161 -180q31 -25 56.5 -45t46.5 -37q41 -31 67.5 -67.5t26.5 -87.5v-11l-227 -184 q-1 -1 -2 -1q-6 0 -18 7q-18 10 -25 17q-14 12 -37 36.5t-44.5 51t-37.5 48t-19 25.5q-6 12 -26.5 44t-44 69t-46 73.5t-32.5 59.5q-37 -39 -67.5 -78t-57.5 -80l-92 -254q-84 -13 -158 -13q-61 0 -115 9z" />
<glyph unicode="y" horiz-adv-x="1126" d="M25 1149q0 -49 27.5 -86t68.5 -72q39 -27 102 -78q61 -49 168 -192q0 -5 33 -62q-2 -47 -5 -119.5t-6 -155.5t-3 -171q0 -86 4 -164q0 -25 29.5 -38t62.5 -13t53.5 27.5t36.5 44.5q25 129 48.5 232.5t47.5 201.5q12 49 22.5 86t18.5 61q33 53 91.5 119t101.5 139 q45 74 72.5 155t66.5 173l8 92q-59 8 -120 8q-74 0 -152 -12l-90 -254q-29 -41 -58.5 -87t-60.5 -97q-18 18 -27.5 40.5t-34 72t-54.5 95.5t-42 64q-4 6 -20.5 27.5t-38 47.5t-43 50.5t-33.5 34.5q-10 8 -27 19q-12 7 -17 7q-2 0 -3 -2l-227 -184v-10z" />
<glyph unicode="z" horiz-adv-x="1058" d="M23 1104q0 14 8 31.5t19 36t22.5 34t17.5 23.5q8 14 23.5 33.5t31 37t26.5 30.5l11 13h68q2 0 28.5 -12t62.5 -30.5t74 -38t62 -33.5q49 -25 115.5 -63t127 -87t103.5 -106.5t43 -118.5q0 -6 -1 -18.5t-1 -16.5h-8q-48 -1 -100 -23q-56 -24 -108 -65t-98 -96t-80 -112.5 t-54.5 -114t-20.5 -101.5q74 0 134.5 4t116.5 13.5t113.5 25t127.5 37.5h12q23 0 43.5 -37t34.5 -84q13 -47 21 -92q5 -28 5 -44q1 -10 -1 -16q-4 -14 -29 -29t-55.5 -28.5t-58.5 -22.5t-40 -11.5t-36.5 -6.5t-51 -7t-47 -6t-25.5 -3q-131 0 -271 31.5t-251 105.5q0 6 -1 33 t-1 35q0 104 24.5 198.5t64.5 182.5t89 174t97 174l1 4q1 4 1 8q0 23 -29 31t-72 10t-94 3t-94 11.5t-71.5 33t-28.5 69.5z" />
<glyph unicode="{" horiz-adv-x="821" d="M20 981v41q0 25 1.5 57.5t1.5 63.5v39q10 39 21 71.5t26 61.5q31 59 106 59q254 -8 303 -71q57 -63 -106 -111q-33 -98 -45.5 -187.5t-12.5 -187.5q0 -31 6.5 -86t18.5 -119.5t29.5 -132t40.5 -123.5q18 -45 40.5 -73.5t45 -45t43 -24.5t34.5 -10q70 -104 114 -160.5 t54 -75.5q20 -31 -59 -30q-74 0 -142.5 27.5t-129 76.5t-112.5 116.5t-95 147.5q-86 160 -134.5 338t-48.5 338z" />
<glyph unicode="|" horiz-adv-x="507" d="M23 1593q41 0 95 -8t107.5 -29.5t99.5 -57.5t70 -89q20 -180 30.5 -360.5t10.5 -360.5v-721q0 -29 -2 -64.5t-10 -69.5t-24.5 -56.5t-45.5 -22.5t-47 45q-12 23 -19 41.5t-16 34.5q-20 217 -40.5 397.5t-44 352.5t-52.5 346t-67 379q-6 43 -14.5 73.5t-14.5 57t-11 52.5 t-5 60z" />
<glyph unicode="}" horiz-adv-x="821" d="M43 -33q-23 -31 59 -30q74 0 142.5 27.5t129 76.5t113 116.5t95.5 147.5q88 160 135 338t47 338v41q0 25 -1 57.5t-1 63.5v39q-10 35 -21.5 69.5t-28 62t-41 44t-61.5 16.5q-256 -10 -309 -71q-53 -66 111 -111q35 -98 46 -187.5t11 -187.5q0 -31 -6 -85t-17.5 -119.5 t-30 -133t-42.5 -123.5q-16 -45 -39 -73.5t-45.5 -45t-44 -24.5t-33.5 -10q-72 -104 -115 -160.5t-53 -75.5z" />
<glyph unicode="~" horiz-adv-x="899" d="M16 631q0 -23 23 -29q2 -2 10 -2q25 0 80 23q35 14 63.5 25t51.5 22q29 14 50 27.5t42 25.5v2h6q23 -10 47.5 -25.5t52.5 -29.5q23 -10 50.5 -21.5t64.5 -27.5q14 -4 21.5 -10.5t10.5 -9.5t4 1t1 21q0 6 10 11t23.5 10t24 11.5t10.5 14.5q92 92 117.5 131t11.5 39 q-16 0 -25.5 5t-17 11t-15.5 11t-22 5q-27 4 -60.5 -12t-68.5 -43q-20 -14 -31.5 -22.5t-24.5 -16.5l-49 45q-63 45 -106 45l-17 -2l-12 -2q-2 0 -4 1t-6 1l-17 2q-43 0 -106 -45l-143 -129q-49 -35 -50 -63z" />
<glyph unicode="&#xa1;" horiz-adv-x="534" d="M18 -4q43 0 103.5 6t120 22.5t112 44t78.5 68.5q12 78 21.5 144.5t13.5 148.5t0 191.5t-16 275.5l-201 -8q-72 -283 -117 -457t-65 -252q-8 -35 -17.5 -56.5t-16.5 -39.5t-11.5 -37.5t-4.5 -50.5zM287 1253q-25 -170 43 -184q66 -16 102 25q37 39 37 184q0 37 -29.5 52.5 t-62.5 15.5t-53.5 -34t-36.5 -59z" />
<glyph unicode="&#xa2;" horiz-adv-x="950" d="M27 373l2 -25q12 -53 47 -91t106 -38q162 4 246 21l-27 -213q16 -23 40 -35t40 -12q25 0 25 22q0 14 -17 47q10 59 17.5 112.5t17.5 104.5q41 20 80 47t76 62q57 55 57 80q0 6 -6 12q-25 23 -113 25q-31 0 -55 -7q20 109 43 212.5t51 215.5q242 14 246 52v10q0 35 -18 76 q-23 41 -60 72.5t-102 39.5q8 25 15 43.5t13.5 34.5t10.5 33.5t4 44.5q-45 0 -72.5 -1t-49 -11.5t-41 -32t-48.5 -60.5q-4 -16 -6 -34.5t-6 -34.5q-119 -31 -214.5 -105.5t-163 -170t-103 -199t-35.5 -191.5v-106zM322 586q0 27 11 86t35.5 121.5t61.5 113.5t88 62 q-16 -119 -28.5 -238t-28.5 -239l-12 -97q-35 -22 -78 -30q-25 39 -37 97t-12 124z" />
<glyph unicode="&#xa3;" horiz-adv-x="1216" d="M-6 727q0 -33 36 -57.5t96 -42t137 -29.5t157 -18q-12 -84 -18.5 -167t4.5 -153l-93 -49q-4 -4 -13 -12.5t-9 -10.5q0 -59 57.5 -97t133 -58.5t152.5 -27.5t114 -7q72 0 111.5 13.5t72.5 38t55.5 60t40.5 91.5q20 57 34.5 94t24 63.5t17.5 48t16 48.5 q-147 -63 -264 -105.5t-221 -42.5q0 61 8 127t25 133q59 -2 104 -2h66q72 0 110.5 13.5t61 41t38 72.5t37.5 107q14 39 23.5 63.5t18 45t14.5 44t12 60.5q-23 -12 -60.5 -25.5t-88 -27t-107.5 -26.5t-119 -26q47 113 103.5 215.5t115.5 188.5q-33 18 -57.5 21t-56.5 3 q-127 0 -198 -31.5t-110.5 -91t-59 -146.5t-42.5 -200q-2 -4 -2 -8q0 -2 -2 -6q-45 -6 -83 -11t-60 -7q-96 -10 -260 18l-46 -64z" />
<glyph unicode="&#xa4;" horiz-adv-x="1277" d="M16 670q0 -84 46.5 -157t127.5 -126q-31 -63 -54 -133t-56 -148l-8 -90q123 -18 272 4l92 254q4 8 8 13q41 -10 83 -13.5t89 -3.5h41q18 -29 33 -51t21 -33q2 -4 18 -25.5t37.5 -48t44.5 -51t37 -36.5q8 -6 25.5 -16.5t19.5 -6.5l227 184v11q0 51 -26.5 88t-67.5 67 q-12 8 -18 15q98 53 153.5 132t55.5 171t-56.5 170t-152.5 133q29 63 52 130.5t56 143.5l8 90q-119 18 -272 -4l-90 -254q-4 -4 -7 -9t-7 -11q-33 4 -65 7t-67 3h-34q-16 0 -33 -2q-18 33 -36.5 59.5t-27.5 40.5q-2 4 -19 25.5t-38.5 47.5t-43.5 51.5t-34 37.5l-27.5 16.5 t-19.5 6.5l-227 -185v-8q0 -53 27.5 -90t68.5 -70q10 -8 20.5 -16t20.5 -18q-92 -53 -144.5 -130t-52.5 -165zM336 678q0 31 21.5 57.5t58.5 47t86 31.5t106 11t107.5 -11t87.5 -31.5t58.5 -47t21.5 -57.5t-21.5 -57.5t-58.5 -47t-87 -32t-108 -11.5q-57 0 -106 11.5t-86 32 t-58.5 47t-21.5 57.5z" />
<glyph unicode="&#xa5;" horiz-adv-x="1126" d="M25 1149v10l227 184q2 4 19.5 -6t27.5 -18q12 -10 33.5 -34.5t43 -50.5t38 -47.5t20.5 -27.5q12 -18 42 -64t54.5 -95.5t33.5 -72t28 -40.5q31 51 60.5 97t58.5 87l90 254q143 23 272 4l-8 -92q-39 -92 -66.5 -173t-72.5 -155q-37 -61 -84 -116.5t-82 -102.5q41 0 79 7.5 t79 33.5q-8 -37 -6.5 -43t6 -5t3.5 -5t-16 -45q-23 -63 -36 -99t-33.5 -54.5t-55.5 -23.5t-102 -5q-4 -23 -9 -43.5t-12 -42.5q55 -4 107.5 1t103.5 37q-4 -37 -1 -42t5 -5q4 0 2 -6t-16 -45q-23 -66 -36 -101.5t-34.5 -54t-59.5 -22.5t-107 -4h-15q-4 -14 -6 -26.5 t-4 -26.5q-16 -16 -36.5 -44t-53.5 -28t-62.5 13.5t-29.5 37.5q-2 8 -2 17v18v18q0 10 -2 21q-47 2 -93.5 10t-83 23.5t-59 41t-22.5 62.5l28 62l45 63q102 -20 187 -20q0 23 1 45t1 45q-43 4 -81 13t-67.5 24.5t-47 39t-17.5 56.5l26 61l45 64q68 -12 131 -19 q-12 25 -12 27q-106 143 -168 192q-33 27 -57.5 45.5t-44.5 32.5q-41 35 -68.5 72t-27.5 86z" />
<glyph unicode="&#xa6;" horiz-adv-x="507" d="M23 1593q41 0 95 -8t107.5 -29.5t99.5 -57.5t70 -89q20 -180 30.5 -360.5t10.5 -360.5v-721q0 -29 -2 -64.5t-10 -69.5t-24.5 -56.5t-45.5 -22.5t-47 45q-12 23 -19 41.5t-16 34.5q-20 217 -40.5 397.5t-44 352.5t-52.5 346t-67 379q-6 43 -14.5 73.5t-14.5 57t-11 52.5 t-5 60z" />
<glyph unicode="&#xa7;" horiz-adv-x="1103" d="M20 244q0 29 2.5 64.5t12.5 67.5t30.5 53.5t59.5 21.5q20 0 54 -15.5t75 -34t87 -34t93 -15.5h37q25 0 29 25q-23 29 -43.5 60.5t-38.5 66.5q-72 6 -134.5 22.5t-108.5 41t-71.5 57t-25.5 69.5q0 51 51 92t137 70q-12 23 -20 44.5t-19 43.5q-2 2 -11 11.5t-21.5 21.5 t-22.5 23.5t-12 15.5l-1 4t-1 6q0 41 37.5 80t97 75t132.5 66.5t142.5 53t128 35t88.5 12.5q41 0 87.5 -2.5t86 -14.5t65.5 -38.5t26 -78.5q0 -25 -4.5 -66.5t-15.5 -81.5t-30.5 -69.5t-52.5 -29.5q-37 0 -69.5 8t-65.5 17t-67.5 17.5t-71.5 8.5q-53 0 -98.5 -1t-96.5 -28 q0 -2 -1 -10t-1 -12q0 -39 19 -78q84 0 157.5 -16.5t129 -43t88 -61.5t32.5 -74q0 -45 -38 -82t-103 -63q33 -35 60.5 -62.5t43.5 -37.5q-8 -109 -79.5 -193t-172 -140.5t-214 -86t-205.5 -29.5q-45 0 -78 23.5t-53.5 59.5t-31 79t-10.5 82zM336 684q0 -20 44 -31.5 t105 -11.5t105.5 11.5t44.5 31.5q0 18 -44 31.5t-106 13.5q-61 0 -105 -13.5t-44 -31.5z" />
<glyph unicode="&#xa8;" horiz-adv-x="651" d="M18 1511q0 131 39 152q31 20 107 16q70 -2 53 -143q-18 -23 -41.5 -53.5t-58.5 -30.5t-67 15t-32 44zM389 1516q0 131 39 151q29 20 109 16q70 -2 51 -143q-18 -23 -41 -53.5t-60 -30.5q-35 0 -66.5 15.5t-31.5 44.5z" />
<glyph unicode="&#xa9;" horiz-adv-x="1343" d="M37 326l2 -150q12 -74 47 -128t107 -54q184 0 357 58.5t315.5 162.5t243.5 248.5t144 316.5q0 4 5.5 15.5t7.5 23.5q4 12 7 23.5t3 48.5q0 18 -1 50t-4 71t-9.5 80t-16.5 75q-23 74 -69 123t-127 49q-262 0 -454 -76.5t-315.5 -208.5t-183 -309.5t-59.5 -379.5v-39z M219 673.5q12 104.5 62.5 181.5t129 129t171 84t189.5 45t183 13q2 0 8 -1l5 -1q4 -6 13 -23.5t9 -23.5v-43q0 -27 1 -59.5t1 -61.5v-43q0 -49 1 -111.5t-13 -132t-53 -140t-120 -136t-213 -121t-331 -92.5l-14 295q-41 137 -29 241.5zM383 416q6 -37 24.5 -64.5t53.5 -27.5 q127 6 168 32.5t80 77.5q39 53 26 68q-10 12 -57 16q-43 0 -62 -39q-20 -39 -61 -51q-12 29 -18.5 70t-6.5 88q0 20 6.5 66t19.5 92.5t33.5 81t49.5 34.5h6q4 -4 8 -12t4 -10v-21q160 8 164 39q0 33 -10 62q-10 33 -33.5 57t-64.5 24q-74 0 -135.5 -49t-104.5 -122.5 t-66.5 -159.5t-23.5 -158v-21v-55v-18z" />
<glyph unicode="&#xaa;" horiz-adv-x="739" d="M6 442q0 221 70.5 438.5t183.5 407.5q4 8 19.5 24.5t29.5 26.5q16 10 31.5 14.5t36.5 6.5q39 -2 59 -21q20 -14 43 -71q61 -123 103 -291q25 -80 45 -159t34.5 -144.5t22.5 -109.5t8 -56q0 -10 -1 -31.5t-1 -32.5q-47 -27 -73.5 -37t-67.5 -10q-27 0 -43.5 11.5t-24.5 31 t-10 45t-2 52.5q0 25 -1 50t-7 44.5t-19.5 32t-38.5 12.5h-170v-199l-22 -18q-41 -14 -66.5 -21.5t-60.5 -7.5q-43 -4 -59.5 4t-18.5 8zM240 887h43q20 0 41.5 2t40 6t31 13.5t12.5 21.5q0 25 -5.5 56.5t-15.5 63t-25.5 61.5t-35.5 50q-18 -6 -35 -43t-28 -82t-17 -88 t-6 -61z" />
<glyph unicode="&#xab;" horiz-adv-x="1193" d="M12 606q0 33 13 70q14 45 118 125q8 18 35 43.5t58.5 53.5t63.5 56.5t50 53.5q12 18 23 28q8 8 24 15q12 2 109 43l20 -41q6 -20 10.5 -30.5t4.5 -14.5v-9q0 -35 -20.5 -72.5t-48.5 -71.5t-57.5 -61.5t-47.5 -41.5q-2 -4 -19.5 -14.5t-37 -20.5t-37 -18.5t-19.5 -8.5 q-14 -4 -14 -16q41 -51 77.5 -81t69.5 -51.5t58.5 -40t44 -46t28.5 -69.5t10 -112q-66 0 -119 28t-94 69q-43 43 -88 69.5t-88 69.5q-31 25 -49 37t-30.5 20t-23 16.5t-24.5 22.5zM561 565q0 35 14 70q10 41 119 125q8 18 35 43.5t58.5 53.5t63.5 56.5t50 53.5q12 18 23 28 q6 8 24 15q12 2 109 43l20 -41q6 -20 10.5 -30.5t4.5 -14.5v-9q0 -35 -20.5 -72.5t-48.5 -71.5t-57.5 -61.5t-47.5 -41.5q-2 -4 -19.5 -14.5t-38 -20.5t-37 -18.5t-18.5 -8.5q-14 -4 -14 -16q41 -51 78.5 -82t69.5 -52.5t58.5 -39t44 -45t27.5 -69.5t10 -112q-68 0 -119 28 t-94 69q-43 43 -88 69.5t-88 69.5q-31 25 -49 37t-30.5 20.5t-23 16.5t-26.5 22z" />
<glyph unicode="&#xac;" horiz-adv-x="1269" d="M14 653l27 62l45 63q164 -29 260 -18q39 4 106.5 14t149.5 23.5t170 31t167 36t141.5 37t93.5 36.5q-6 -37 -12.5 -60.5t-13.5 -45t-17.5 -45t-24.5 -62.5q-14 -37 -22.5 -62.5t-14.5 -44t-15.5 -32t-25.5 -25.5q12 -29 5 -99.5t-23 -148.5q-10 -20 -20.5 -42.5 t-20.5 -51.5q-23 -55 -60 -55q-35 0 -66.5 28.5t-31.5 79.5l-37 193v12q0 10 2 15q-57 0 -135 2t-163 8t-168 18t-148.5 29.5t-106.5 43t-41 60.5z" />
<glyph unicode="&#xad;" horiz-adv-x="757" d="M14 653l27 62l45 63q31 -4 46 -8t23.5 -6t12.5 -3t10 -1h10q8 0 21 2q117 12 232.5 54t207.5 93q-6 -35 -12 -58.5t-14.5 -44t-17.5 -45t-23 -61.5q-23 -63 -37.5 -108t-38 -72.5t-62 -41t-110.5 -13.5q-41 0 -95.5 6t-104.5 26.5t-85 57.5t-35 98z" />
<glyph unicode="&#xae;" horiz-adv-x="1343" d="M37 326l2 -150q12 -74 47 -128t107 -54q184 0 357 58.5t315.5 162.5t243.5 248.5t144 316.5q0 4 5.5 15.5t7.5 23.5q4 12 7 23.5t3 48.5q0 18 -1 50t-4 71t-9.5 80t-16.5 75q-23 74 -69 123t-127 49q-262 0 -454 -76.5t-315.5 -208.5t-183 -309.5t-59.5 -379.5v-39z M219 673.5q12 104.5 62.5 181.5t129 129t171 84t189.5 45t183 13q2 0 8 -1l5 -1q4 -6 13 -23.5t9 -23.5v-43q0 -27 1 -59.5t1 -61.5v-43q0 -45 1 -101t-8 -117.5t-37.5 -126t-86.5 -126.5q-18 31 -49 54.5t-63.5 46t-63.5 45t-51 49.5q6 6 8 7t18 11q16 8 38 20.5t26 16.5 q14 10 35.5 29.5t42 44.5t35 50.5t14.5 49.5q0 10 -5 18.5t-1 31t0 38t-4 31.5q0 4 -1 7l-1 3q-4 6 -17.5 19.5t-17.5 13.5h-260q-4 -2 -17.5 -6t-17.5 -4q-2 -2 -23.5 -6t-21.5 -6q-18 -8 -30.5 -48.5t-22 -88.5t-13.5 -91t-4 -57v-19q2 -25 4 -68.5t4 -86.5t3.5 -76 t1.5 -37q0 -10 2 -23.5t7 -25.5t13 -21.5t23 -9.5q8 0 29.5 4t42 11.5t36.5 18.5t16 28q0 29 -11 59.5t-11 65.5v39q33 -29 57.5 -61t49 -61.5t50 -54t60.5 -36.5q-82 -57 -205 -104.5t-303 -82.5l-14 295q-41 137 -29 241.5zM518 698v170q0 12 21.5 17.5t42.5 5.5h22 q14 0 32.5 -2t35 -8.5t29 -16.5t12.5 -24q0 -23 -19.5 -45.5t-46 -44t-53.5 -39t-41 -25.5h-10q-6 0 -15.5 1t-9.5 11z" />
<glyph unicode="&#xaf;" horiz-adv-x="698" d="M-66 1573q0 2 9.5 7t13.5 13l57 84q178 -23 281 -12q131 8 250 21.5t211 42.5q-12 -45 -23.5 -66t-27.5 -51q-23 -53 -39.5 -91t-42 -61.5t-69.5 -35t-120 -11.5q-29 0 -77 2t-103 9.5t-112.5 18.5t-103.5 28.5t-75 42t-29 59.5z" />
<glyph unicode="&#xb0;" horiz-adv-x="688" d="M18 725q0 29 2.5 35t6.5 18q2 8 5 16l3 9q31 123 63.5 224t86 175t136 114t211.5 40q53 0 72 -37t35 -90v-25q0 -18 1 -40.5t1 -39.5v-26q0 -68 -15.5 -144.5t-43 -153.5t-68.5 -146.5t-92 -124t-112.5 -86t-131.5 -31.5q-57 0 -89 33.5t-50 86.5q-6 25 -10 53.5 t-6.5 56.5t-3.5 50.5t-1 32.5zM254 745q0 -20 2 -41.5t2 -44.5v-28q0 -4 6 -16.5t10 -14.5l2 -1q3 -1 5 -1q39 0 67.5 49t48 114.5t28.5 129t9 92.5q0 66 -8 123t-41 115q-45 -37 -70.5 -92.5t-39 -117t-17.5 -124t-4 -113.5v-29z" />
<glyph unicode="&#xb1;" horiz-adv-x="876" d="M-6 213l26 61l46 62q82 -14 147.5 -17.5t112.5 0.5q117 12 232.5 54.5t207.5 95.5q-6 -37 -12 -60.5t-13.5 -45t-17.5 -45t-25 -60.5q-23 -63 -38 -108.5t-37.5 -73t-62.5 -40.5t-109 -13q-41 0 -117 7t-152 26.5t-132 57.5t-56 99zM29 975l26 61l45 64l201 -23v256 l227 35q-4 -66 -17 -134.5t-34 -139.5q229 82 324 139q-6 -37 -13.5 -60.5t-14.5 -44t-17.5 -45t-22.5 -63.5q-23 -63 -37 -108.5t-37.5 -73t-62.5 -41t-111 -13.5l-12 -24l21 -211q-139 -10 -265 37l66 215q-78 18 -129 36.5t-82 39t-43 44t-12 54.5z" />
<glyph unicode="&#xb2;" horiz-adv-x="655" d="M8 1243q0 -18 3 -50t12.5 -61.5t27 -51t45.5 -21.5q27 0 43.5 9t29.5 21.5t27.5 23.5t36.5 13q6 0 21.5 -1t34 -3t35 -3t20.5 -1v-10q-10 -10 -34.5 -35.5t-52.5 -55.5t-53.5 -55.5t-35.5 -33.5q-2 -6 -24.5 -46t-49 -87t-48 -87t-21.5 -44q0 -31 24 -70l31.5 -45 l38.5 -55q39 -57 94 -41q53 16 102 -2q53 -16 98.5 -26.5t73.5 -10.5q8 0 21 2l12 2l49 82l13 16q12 23 14 44.5t2 37.5l-1 9t-5 26l-10 -1q-11 -1 -15 -1q-27 2 -65.5 3t-81.5 5t-84 13.5t-72 27.5q-4 4 -9 8t-5 8v9q0 39 38 80.5t89 79.5t105.5 68t84.5 44q4 10 9.5 42 t5.5 40v8q0 63 -54.5 117.5t-129 93.5t-155.5 60.5t-132 21.5q-2 0 -9.5 -1t-15.5 -1q-10 0 -17.5 -1t-11.5 -1q-4 -4 -11 -18.5t-14 -31t-13.5 -30.5t-10.5 -19v-14z" />
<glyph unicode="&#xb3;" horiz-adv-x="667" d="M12 1325l140 31q68 4 104 4q39 0 51 4q16 4 19 4h16q20 0 61 -1t83 -8t73 -25.5t31 -55.5q37 -66 16 -119q-16 -55 -55 -102q-37 -49 -62 -68q-12 -10 -29.5 -21.5t-41.5 -27.5q10 -16 28 -27q12 -6 43 -57q35 -59 68 -84q35 -33 57 -110q23 -72 -24 -150 q0 -27 -18.5 -44t-46 -26.5t-60.5 -13.5t-62 -4h-61q-16 0 -62.5 4t-98.5 9t-96 10.5t-56 9.5q-55 43 -2 166q74 27 123 -37q8 -4 14 -4h8q41 0 76 3t67 15q12 6 28.5 13.5t32 14.5t27 13t11.5 8v33q-2 2 -14.5 12.5t-32 25.5t-33.5 23q-59 45 -131 72q-35 12 -61.5 24.5 t-45.5 22.5q-39 18 -39 58q0 43 58 51l63 10h64q55 16 102 51q12 20 19.5 30.5t21.5 20.5l29 29v31l-12 6q-11 6 -26.5 14t-31.5 15.5t-29 11.5q-33 12 -67.5 16t-97.5 4q-86 -39 -113 -18q-20 25 -25 133z" />
<glyph unicode="&#xb4;" horiz-adv-x="493" d="M6 1465.5q-2 -25.5 23 -33.5q23 -10 90 20q33 14 62.5 25.5t51.5 21.5q250 139 193 164q-29 14 -52.5 22.5t-51.5 10.5q-53 8 -123 -43l-144 -129q-47 -33 -49 -58.5z" />
<glyph unicode="&#xb5;" d="M23 520q0 23 7 88.5t20 148.5t32.5 174t44.5 168t55.5 126t65.5 49q23 0 51.5 -7t57 -18.5t54 -24t44.5 -22.5q0 -6 1 -18.5t1 -16.5q0 -6 -1 -20t-1 -17q-31 -92 -64 -178t-59.5 -172t-44 -177t-17.5 -191v-60q0 -31 2 -67.5t9.5 -68.5t18.5 -53.5t30 -21.5q2 0 6 1t6 1 q90 109 141.5 247t79 287.5t36.5 302.5t15 292q57 45 96.5 61.5t96.5 16.5q8 0 29.5 -3.5t27.5 -3.5q2 -14 6 -51t7.5 -77.5t6.5 -77.5t3 -52v-36q0 -74 -15.5 -179.5t-47 -222.5t-79 -232.5t-110 -208.5t-140 -150.5t-169.5 -57.5q-53 0 -93 18q-4 -12 -8 -37.5t-8 -54 t-10 -56.5t-14 -44q-23 -53 -58 -53t-66.5 28.5t-31.5 79.5l-8 307q0 53 28 76q-20 68 -27 136.5t-7 121.5z" />
<glyph unicode="&#xb6;" horiz-adv-x="1064" d="M4 1221q0 -90 27.5 -171t71.5 -154t102.5 -137.5t120.5 -121.5q0 -2 1 -10.5t1 -12.5q0 -70 -11.5 -125t-24.5 -107t-24.5 -104.5t-11.5 -115.5q0 -37 26.5 -58.5t63.5 -36t75 -26.5t62 -31q27 8 30 29.5t-2 48.5t-9 54.5t10 47.5q10 18 16.5 62.5t12.5 93.5t14 93t20 61 l-24 518l133 -10l4 -40t9 -98.5t12.5 -127t12.5 -127t9 -98.5l4 -40l-47 -272v-15q0 -25 25.5 -50t60.5 -46.5t72 -36t59 -14.5q35 0 55.5 23.5t30.5 57.5t13.5 68.5t3.5 57.5v43q0 39 1 89t1 103v84v64q0 45 -1 95t-1 95v64q-4 6 -12.5 23.5t-10.5 23.5q-55 150 -98 233.5 t-105.5 122.5t-161 47.5t-262.5 8.5q-29 0 -88 -1.5t-118.5 -11.5t-103.5 -36.5t-44 -75.5z" />
<glyph unicode="&#xb7;" horiz-adv-x="299" d="M33 602q0 129 37 152q31 20 108 16q70 -2 51 -141q-18 -23 -40.5 -53.5t-59.5 -30.5q-33 0 -64.5 14t-31.5 43z" />
<glyph unicode="&#xb8;" horiz-adv-x="268" d="M-170 -156q6 10 38 12.5t71 2.5q37 0 73.5 -1t50.5 3q-6 20 -11 46.5t-8 51.5t-4 44.5t-1 29.5q0 8 15.5 11t36 4t38.5 0t23 -1q2 0 1 -8t-2 -19.5t-2.5 -22.5t3.5 -17q20 -20 26 -35t6 -29q0 -16 -2 -35.5t2 -50.5q2 -16 3 -28.5t1 -24.5q0 -86 -57 -88h-20 q-14 0 -51 -1t-76 -1q-41 0 -75 2t-40 6q-39 20 -39 149z" />
<glyph unicode="&#xb9;" horiz-adv-x="417" d="M12 406q0 20 3 33.5t8.5 26.5t11.5 28.5t12 40.5q29 106 50.5 196t40 178t34.5 181.5t35 203.5q10 18 24.5 41t38.5 23q20 0 33 -9.5t31 -23.5v-59v-383q0 -195 -33 -377q-18 -29 -54 -48.5t-78 -30.5t-84 -16t-73 -5z" />
<glyph unicode="&#xba;" horiz-adv-x="688" d="M18 725q0 29 2.5 35t6.5 18q2 8 5 16l3 9q31 123 63.5 224t86 175t136 114t211.5 40q53 0 72 -37t35 -90v-25q0 -18 1 -40.5t1 -39.5v-26q0 -68 -15.5 -144.5t-43 -153.5t-68.5 -146.5t-92 -124t-112.5 -86t-131.5 -31.5q-57 0 -89 33.5t-50 86.5q-6 25 -10 53.5 t-6.5 56.5t-3.5 50.5t-1 32.5zM254 745q0 -20 2 -41.5t2 -44.5v-28q0 -4 6 -16.5t10 -14.5l2 -1q3 -1 5 -1q39 0 67.5 49t48 114.5t28.5 129t9 92.5q0 66 -8 123t-41 115q-45 -37 -70.5 -92.5t-39 -117t-17.5 -124t-4 -113.5v-29z" />
<glyph unicode="&#xbb;" horiz-adv-x="1193" d="M14 958q0 -35 20.5 -72.5t48.5 -71.5t57.5 -61.5t47.5 -41.5q2 -4 18.5 -14.5t37 -20.5t37 -18.5t20.5 -8.5q14 -4 14 -16q-41 -51 -78.5 -82t-69.5 -52.5t-58.5 -39t-44 -45t-27.5 -69.5t-10 -112q63 0 116.5 28t96.5 69q43 43 88 69.5t88 69.5q31 25 49 37t31.5 20.5 t23 15.5t21.5 23q0 29 -11 70q-10 23 -37.5 53.5t-80.5 71.5q-10 18 -36 43.5t-58.5 53.5t-63.5 55.5t-49 54.5q-12 18 -23 28q-8 8 -24 15q-12 2 -109 43l-20 -41q-6 -20 -10.5 -30.5t-4.5 -14.5v-9zM565 999q0 -35 20.5 -72.5t48.5 -71.5t57.5 -61.5t47.5 -41.5 q2 -4 19.5 -14.5t37 -20.5t37 -18.5t19.5 -8.5q14 -4 14 -16q-41 -51 -78.5 -82t-69.5 -51.5t-58.5 -39t-44 -45t-27.5 -69.5t-10 -113q66 0 116.5 28t96.5 69q43 43 88 69.5t88 69.5q31 25 49 37t30.5 20t23 16.5t24.5 22.5q0 33 -13 70q-14 45 -118 125q-10 18 -37 42.5 t-58.5 52.5t-62.5 56.5t-49 55.5q-12 18 -23 28q-8 8 -24 15q-12 2 -109 43l-20 -41q-6 -20 -10.5 -30.5t-4.5 -14.5v-9z" />
<glyph unicode="&#xbc;" horiz-adv-x="1751" d="M14 403q31 0 73 5.5t84 16.5t78 30.5t54 48.5q33 176 33 377v383v59q-20 14 -31.5 23.5t-32.5 9.5q-12 0 -26.5 -9.5t-27.5 -22.5t-24.5 -27.5t-17.5 -22.5q-18 -111 -29.5 -201t-23.5 -175t-28.5 -172t-45.5 -194q-6 -25 -12 -40t-11.5 -28t-8.5 -26.5t-3 -34.5zM139 8 q43 0 103.5 7.5t121 23.5t111.5 43t78 68q25 57 117 192t254 356q168 223 263 345t124 159q0 66 -13.5 99.5t-40 48t-66.5 15.5t-93 1q-16 0 -47 -3t-35 -3l-25 -21q-72 -209 -395 -641l-410 -505q-6 -37 -14 -59.5t-15 -40t-12.5 -36t-5.5 -49.5zM1094 375l188 -51l160 4 q47 -4 28 -54q-10 -20 -22 -58t-27 -89q-6 -23 -12 -38t-11 -28.5t-8.5 -28t-3.5 -34.5q31 0 73 4t83 15.5t77 31t58 49.5q31 184 31 375v379v61q-16 16 -28.5 23.5t-34.5 7.5q-25 0 -38.5 -22.5t-27.5 -38.5q-14 -113 -30.5 -205t-41.5 -174q-82 10 -100 2q-14 -2 -27.5 -4 t-27.5 -2h-43q0 43 20 123q10 47 24.5 94t26.5 100q16 43 25.5 64.5t9.5 62.5q-31 0 -73 -4t-82.5 -15.5t-76.5 -29.5t-57 -47q-8 -49 -14 -92t-10 -95.5t-6 -120t-2 -165.5z" />
<glyph unicode="&#xbd;" horiz-adv-x="1869" d="M14 403q31 0 73 5.5t84 16.5t78 30.5t54 48.5q33 176 33 377v383v59q-20 14 -31.5 23.5t-32.5 9.5q-12 0 -26.5 -9.5t-27.5 -22.5t-24.5 -27.5t-17.5 -22.5q-18 -111 -29.5 -201t-23.5 -175t-28.5 -172t-45.5 -194q-6 -25 -12 -40t-11.5 -28t-8.5 -26.5t-3 -34.5zM139 8 q43 0 103.5 7.5t121 23.5t111.5 43t78 68q25 57 117 192t254 356q168 223 263 345t124 159q0 66 -13.5 99.5t-40 48t-66.5 15.5t-93 1q-16 0 -47 -3t-35 -3l-25 -21q-72 -209 -395 -641l-410 -505q-6 -37 -14 -59.5t-15 -40t-12.5 -36t-5.5 -49.5zM1200 823q0 -18 3 -50 t12.5 -61.5t27 -51t45.5 -21.5q27 0 43.5 10t28.5 22.5t26.5 23t38.5 10.5q6 0 21.5 -1.5t34 -2.5t35 -2t20.5 -1v-10l-35.5 -35.5t-53.5 -55.5t-52.5 -55.5t-34.5 -33.5q-2 -6 -24.5 -47t-49 -87t-48 -85t-21.5 -45q0 -33 24 -72q14 -20 31.5 -44t38.5 -54q39 -57 94 -41 t102 -4q53 -14 98.5 -24.5t73.5 -10.5q8 0 21 2l12 2l49 82l13 16q12 23 14 44.5t2 37.5l-1 10q-1 9 -5 25l-10 -1q-11 -1 -15 -1q-27 2 -65.5 3t-81.5 5t-84 13.5t-72 27.5q-4 4 -9 8t-5 6v11q0 41 38 82t89 77.5t105.5 66.5t84.5 46q2 6 5 17.5t5.5 24.5t3.5 24.5t1 15.5 v8q0 63 -54.5 117.5t-129 93.5t-155.5 60.5t-132 21.5q-4 0 -10.5 -1t-14.5 -1q-10 0 -17.5 -1t-11.5 -1q-4 -6 -10 -20.5t-14 -31t-15.5 -30.5t-9.5 -16v-15z" />
<glyph unicode="&#xbe;" horiz-adv-x="1998" d="M33 1325q4 -109 24 -133q27 -20 113 18q63 0 98 -4t68 -16q12 -4 28.5 -11.5t32 -15.5t26.5 -14l11 -6v-31l-28 -29q-14 -10 -21.5 -20t-19.5 -31q-53 -37 -103 -51h-63l-64 -10q-57 -8 -57 -51q0 -39 39 -58q18 -10 44.5 -22.5t61.5 -24.5q72 -29 131 -72q14 -8 34 -23 t32 -25.5t14 -12.5v-33q0 -2 -11 -8t-26.5 -13t-32 -14.5t-28.5 -13.5q-33 -12 -68 -15t-75 -3h-9q-2 0 -14 4q-49 63 -123 37q-53 -123 2 -166q12 -4 56.5 -9.5t96.5 -10.5t98 -9t62 -4h62q29 0 61.5 4t60 13.5t46 26.5t18.5 44q47 78 25 150q-20 74 -57 110q-33 25 -68 84 q-31 51 -43 57q-18 8 -29 27q25 16 42.5 27.5t29.5 21.5q25 18 61 68q39 45 56 102q23 53 -17 119q0 37 -30.5 55.5t-72.5 25.5t-83 8t-62 1h-16q2 0 -18 -4q-16 -4 -54 -4q-16 0 -41.5 -1t-60.5 -3zM387 8q43 0 103.5 7.5t121 23.5t111.5 43t78 68q25 57 117 192t253 356 q168 223 263.5 345t124.5 159q0 66 -13.5 99.5t-40 48t-66.5 15.5t-93 1q-16 0 -47 -3t-35 -3l-23 -21q-70 -205 -397 -641l-410 -505q-6 -37 -14 -59.5t-15.5 -40t-12.5 -36t-5 -49.5zM1339 375l191 -51l158 4q49 -4 30 -54q-10 -20 -22.5 -58t-28.5 -89q-4 -23 -9 -38 t-10.5 -28.5t-9.5 -28t-4 -34.5q31 0 73 4t83 15.5t77 31t58 49.5q14 92 21.5 185.5t7.5 189.5v379v61q-25 31 -62 31q-25 0 -38 -22.5t-27 -38.5q-16 -113 -31.5 -205t-40.5 -174q-82 10 -100 2q-14 -2 -27.5 -4t-28.5 -2h-43q0 43 21 123q8 47 23.5 94t29.5 100 q12 43 22.5 64.5t10.5 62.5q-31 0 -72 -4t-83 -15.5t-77.5 -29.5t-56.5 -47q-8 -49 -13 -92t-8 -95.5t-6.5 -120t-7.5 -165.5z" />
<glyph unicode="&#xbf;" horiz-adv-x="921" d="M20 416q0 -104 71 -182t172.5 -130.5t213 -79t195.5 -26.5q45 0 77.5 21.5t53 56.5t31 78t10.5 84q0 27 -2 61.5t-12.5 65t-31 52t-59.5 21.5q-25 0 -57.5 -15t-72.5 -32.5t-85 -33t-94 -15.5h-37q-27 0 -28 27q49 66 83.5 133t65.5 139q27 70 56.5 140.5t43.5 136.5 l-94 20q-133 -25 -147 -61q-8 -16 -18.5 -36t-24.5 -40q-25 -39 -53.5 -74t-49.5 -57q-10 -10 -39.5 -40t-63.5 -64t-63.5 -64.5t-37.5 -42.5q0 -2 -1.5 -21.5t-1.5 -21.5zM436 1264q-27 -150 51 -162q82 -16 121 22q43 37 43 162q0 31 -34.5 45.5t-75.5 14.5 q-37 0 -60.5 -31t-44.5 -51z" />
<glyph unicode="&#xc0;" horiz-adv-x="1044" d="M20 43q0 156 27 314.5t75 312t114.5 301t146.5 280.5q6 10 29.5 35t44 39t44 19.5t50.5 13.5q57 -10 84 -31q29 -23 65 -104q39 -88 76 -193.5t70 -222.5q33 -115 61.5 -227.5t49 -204.5t31.5 -156.5t11 -81.5q0 -12 -1 -45t-1 -45q-35 -18 -59.5 -31.5t-47 -21.5 t-45 -11t-50.5 -3q-37 0 -59.5 17t-35 45t-15.5 63.5t-3 72.5q0 35 -2 71t-11.5 64.5t-28.5 46t-52 17.5h-240v-283l-35 -24q-59 -23 -96 -33t-86 -10q-61 -8 -83.5 4t-27.5 12zM238 1663q27 14 51 22.5t53 10.5q51 8 123 -43l143 -129q45 -33 48 -58.5t-23 -33.5 q-25 -10 -88 20q-35 14 -63.5 25.5t-51.5 21.5q-250 139 -192 164zM354 680h62q29 0 60.5 3t57 10t43 18.5t17.5 27.5q0 35 -7 80t-21.5 91t-36 88t-52.5 73q-27 -8 -49 -61.5t-38.5 -118t-26 -125.5t-9.5 -86z" />
<glyph unicode="&#xc1;" horiz-adv-x="1044" d="M20 43q0 156 27 314.5t75 312t114.5 301t146.5 280.5q6 10 29.5 35t44 39t44 19.5t50.5 13.5q57 -10 84 -31q29 -23 65 -104q39 -88 76 -193.5t70 -222.5q33 -115 61.5 -227.5t49 -204.5t31.5 -156.5t11 -81.5q0 -12 -1 -45t-1 -45q-35 -18 -59.5 -31.5t-47 -21.5 t-45 -11t-50.5 -3q-37 0 -59.5 17t-35 45t-15.5 63.5t-3 72.5q0 35 -2 71t-11.5 64.5t-28.5 46t-52 17.5h-240v-283l-35 -24q-59 -23 -96 -33t-86 -10q-61 -8 -83.5 4t-27.5 12zM351 1468.5q3 26.5 46 55.5l144 133q70 51 123 43q31 -2 55 -10.5t47 -22.5q61 -25 -188 -164 q-23 -10 -50.5 -21.5t-68.5 -25.5q-68 -29 -84 -20q-27 6 -24 32.5zM354 680h62q29 0 60.5 3t57 10t43 18.5t17.5 27.5q0 35 -7 80t-21.5 91t-36 88t-52.5 73q-27 -8 -49 -61.5t-38.5 -118t-26 -125.5t-9.5 -86z" />
<glyph unicode="&#xc2;" horiz-adv-x="1044" d="M20 43q0 156 27 314.5t75 312t114.5 301t146.5 280.5q6 10 29.5 35t44 39t44 19.5t50.5 13.5q57 -10 84 -31q29 -23 65 -104q39 -88 76 -193.5t70 -222.5q33 -115 61.5 -227.5t49 -204.5t31.5 -156.5t11 -81.5q0 -12 -1 -45t-1 -45q-35 -18 -59.5 -31.5t-47 -21.5 t-45 -11t-50.5 -3q-37 0 -59.5 17t-35 45t-15.5 63.5t-3 72.5q0 35 -2 71t-11.5 64.5t-28.5 46t-52 17.5h-240v-283l-35 -24q-59 -23 -96 -33t-86 -10q-61 -8 -83.5 4t-27.5 12zM217 1468q0 29 49 64l144 129q63 45 106 45l16 -2q4 0 6 -1l3 -1l14 2l16 2q44 0 107 -45 l143 -129q47 -35 47 -64q0 -23 -20 -28q-2 -2 -14 -2q-29 0 -76 20q-37 16 -65.5 27.5t-49.5 21.5q-29 16 -53.5 30.5t-48.5 27.5q0 -2 -2 -2l-2 -2q-18 -12 -41 -25.5t-52 -28.5q-23 -10 -51 -21t-63 -26q-27 -12 -46.5 -17t-31.5 -5q-10 0 -12 2q-23 6 -23 28zM354 680h62 q29 0 60.5 3t57 10t43 18.5t17.5 27.5q0 35 -7 80t-21.5 91t-36 88t-52.5 73q-27 -8 -49 -61.5t-38.5 -118t-26 -125.5t-9.5 -86z" />
<glyph unicode="&#xc3;" horiz-adv-x="1044" d="M20 43q0 156 27 314.5t75 312t114.5 301t146.5 280.5q6 10 29.5 35t44 39t44 19.5t50.5 13.5q57 -10 84 -31q29 -23 65 -104q39 -88 76 -193.5t70 -222.5q33 -115 61.5 -227.5t49 -204.5t31.5 -156.5t11 -81.5q0 -12 -1 -45t-1 -45q-35 -18 -59.5 -31.5t-47 -21.5 t-45 -11t-50.5 -3q-37 0 -59.5 17t-35 45t-15.5 63.5t-3 72.5q0 35 -2 71t-11.5 64.5t-28.5 46t-52 17.5h-240v-283l-35 -24q-59 -23 -96 -33t-86 -10q-61 -8 -83.5 4t-27.5 12zM162 1470q0 29 49 64l143 129q63 45 105 45l18 -2q2 0 5 -1t5 -1l13 2l16 2q43 0 107 -45 l49 -45q12 8 22.5 16.5t30.5 22.5q37 27 69.5 43t61.5 12q14 0 22.5 -5t15.5 -11t16.5 -11.5t25.5 -5.5q14 0 -11.5 -38.5t-117.5 -131.5q0 -8 -10.5 -14t-23.5 -11t-23.5 -10.5t-10.5 -11.5q0 -16 -1 -20t-4 -1t-10 9t-22 10q-39 16 -65.5 27.5t-48.5 21.5 q-29 14 -53.5 29.5t-47.5 26.5h-4h-2l-2 -2q-16 -12 -38.5 -25.5t-51.5 -28.5q-23 -10 -51.5 -21t-63.5 -26q-27 -12 -46 -17t-31 -5q-10 0 -13 2q-23 6 -22 28zM354 680h62q29 0 60.5 3t57 10t43 18.5t17.5 27.5q0 35 -7 80t-21.5 91t-36 88t-52.5 73q-27 -8 -49 -61.5 t-38.5 -118t-26 -125.5t-9.5 -86z" />
<glyph unicode="&#xc4;" horiz-adv-x="1044" d="M20 43q0 156 27 314.5t75 312t114.5 301t146.5 280.5q6 10 29.5 35t44 39t44 19.5t50.5 13.5q57 -10 84 -31q29 -23 65 -104q39 -88 76 -193.5t70 -222.5q33 -115 61.5 -227.5t49 -204.5t31.5 -156.5t11 -81.5q0 -12 -1 -45t-1 -45q-35 -18 -59.5 -31.5t-47 -21.5 t-45 -11t-50.5 -3q-37 0 -59.5 17t-35 45t-15.5 63.5t-3 72.5q0 35 -2 71t-11.5 64.5t-28.5 46t-52 17.5h-240v-283l-35 -24q-59 -23 -96 -33t-86 -10q-61 -8 -83.5 4t-27.5 12zM268 1520q0 131 39 151q25 20 107 17q68 -2 53 -144q-18 -23 -42 -53.5t-58 -30.5 q-35 0 -67 15.5t-32 44.5zM354 680h62q29 0 60.5 3t57 10t43 18.5t17.5 27.5q0 35 -7 80t-21.5 91t-36 88t-52.5 73q-27 -8 -49 -61.5t-38.5 -118t-26 -125.5t-9.5 -86zM639 1524q0 131 39 151q25 20 108 17q70 -2 52 -144q-18 -25 -41 -55.5t-60 -30.5q-35 0 -66.5 16.5 t-31.5 45.5z" />
<glyph unicode="&#xc5;" horiz-adv-x="1044" d="M20 43q0 156 27 314.5t75 312t114.5 301t146.5 280.5q6 10 29.5 35t44 39t44 19.5t50.5 13.5q57 -10 84 -31q29 -23 65 -104q39 -88 76 -193.5t70 -222.5q33 -115 61.5 -227.5t49 -204.5t31.5 -156.5t11 -81.5q0 -12 -1 -45t-1 -45q-35 -18 -59.5 -31.5t-47 -21.5 t-45 -11t-50.5 -3q-37 0 -59.5 17t-35 45t-15.5 63.5t-3 72.5q0 35 -2 71t-11.5 64.5t-28.5 46t-52 17.5h-240v-283l-35 -24q-59 -23 -96 -33t-86 -10q-61 -8 -83.5 4t-27.5 12zM354 680h62q29 0 60.5 3t57 10t43 18.5t17.5 27.5q0 35 -7 80t-21.5 91t-36 88t-52.5 73 q-27 -8 -49 -61.5t-38.5 -118t-26 -125.5t-9.5 -86zM463 1534q0 129 37 152q31 20 108 16q68 -2 54 -143q-18 -23 -42 -53.5t-59 -30.5t-66.5 14t-31.5 45z" />
<glyph unicode="&#xc6;" horiz-adv-x="1640" d="M20 43q0 156 27 314.5t75 312t114.5 301t146.5 280.5q6 10 29.5 35t44 39t44 19.5t50.5 13.5q57 -10 84 -31q29 -23 65 -104l13 -31q27 31 80 53.5t120.5 40t141 28.5t140.5 18t119 10.5t75 3.5h24q18 0 37.5 -1.5t38.5 -1.5h24q45 -6 58.5 -36.5t13.5 -71.5v-45v-19 q0 -12 -1 -25t-1 -26v-14q-12 -41 -38.5 -47t-55.5 -6q-98 0 -193.5 15t-193.5 15q-61 0 -86 -28.5t-25 -89.5v-25q18 -4 62.5 -11t95.5 -14.5t96 -14.5t64 -11q41 -6 71.5 -13.5t50 -21.5t29.5 -38.5t10 -65.5q0 -59 -7 -104.5l-17 -110.5h-12q-35 0 -86.5 12t-106.5 28.5 t-109.5 32t-95.5 21.5q-4 0 -18 -1t-19 -1q0 -10 -1 -41t-3 -66t-3 -65.5t-1 -40.5q4 -47 8.5 -60.5t32.5 -13.5q57 0 110.5 19.5t105.5 42t103.5 42t104.5 19.5q6 0 18.5 -2t16.5 -2q8 -31 13 -55.5t7 -48t3.5 -47t1.5 -54.5q0 -90 -48 -174q-129 10 -256 -11.5t-256 -43.5 q-47 -25 -80.5 -35t-80.5 -10q-39 0 -64 18h-26v35q-16 29 -19.5 66.5t-3.5 78.5q0 35 -2 71t-11.5 64.5t-28.5 46t-52 17.5h-240v-283l-35 -24q-59 -23 -96 -33t-86 -10q-61 -8 -83.5 4t-27.5 12zM354 680h62q29 0 60.5 3t57 10t43 18.5t17.5 27.5q0 35 -7 80t-21.5 91 t-36 88t-52.5 73q-27 -8 -49 -61.5t-38.5 -118t-26 -125.5t-9.5 -86zM756 1085q4 -16 8 -22v20q-6 0 -8 2z" />
<glyph unicode="&#xc7;" horiz-adv-x="1036" d="M20 979q8 4 41 86q35 84 64 106q23 14 33 25q29 39 101.5 67.5t155.5 47t161.5 27t121.5 8.5q25 0 65 2t78 -4.5t65.5 -26t27.5 -60.5q-4 -23 -11.5 -31.5t-14.5 -19t-15 -31t-14 -65.5l-41 -39q-100 -18 -155.5 -28.5t-68.5 -10.5q-12 0 -26.5 -1t-30.5 -1 q-43 0 -79 -19.5t-61.5 -50t-40 -69.5t-14.5 -80q0 -111 19.5 -226.5t48.5 -215.5q16 -53 45 -83t67 -44.5t82 -17.5t93 -3h37h32h21q10 0 20 2q96 4 152 -24q0 -23 -9 -56.5t-24.5 -65.5t-37 -54.5t-46.5 -22.5h-178q0 -16 6 -23q20 -20 25.5 -35.5t5.5 -27.5 q0 -16 -2 -35.5t2 -50.5q2 -16 3 -28.5t1 -24.5q0 -86 -55 -88h-23q-14 0 -51 -1t-78 -1q-39 0 -72.5 2t-39.5 6q-39 20 -39 149q6 10 37.5 12.5t68.5 2.5q39 0 76 -1t51 3q-8 31 -13 71.5t-9 69.5h-103q-4 0 -16.5 6t-27.5 14.5t-28.5 17.5t-17.5 15q-20 14 -51 46t-62 65 q-14 16 -26.5 29.5t-22.5 30t-21.5 38t-23.5 51.5q-27 51 -59.5 135t-53 176.5t-30.5 182.5t-15 172z" />
<glyph unicode="&#xc8;" horiz-adv-x="991" d="M33 346q-10 45 2 102.5t26 151.5q16 94 30.5 194.5t23.5 163.5q0 4 1 26t1 34q0 6 -1 28.5t-1 30.5q-16 4 -44 19.5t-28 38.5q0 41 44 71.5t112.5 54t151.5 38t161 23.5t139.5 13t87.5 4h25q18 0 37.5 -1t38.5 -1h24q45 -6 58.5 -36.5t13.5 -71.5v-45q0 -10 -1 -42 t-1 -42q-12 -41 -39 -46t-55 -5q-98 0 -193.5 14t-193.5 14q-61 0 -86 -28.5t-25 -90.5v-24q18 -4 62.5 -11.5t95.5 -15.5t96 -14t63 -8q41 -8 72 -16.5t50.5 -21.5t29.5 -38t10 -66q0 -59 -7 -104t-17 -111h-13q-35 0 -86 12.5t-106 29t-109.5 31.5t-95.5 22q-4 0 -18.5 -1 t-18.5 -1q0 -10 -1 -41t-3 -66t-3 -65.5t-1 -40.5q4 -47 8 -60.5t35 -13.5q55 0 108.5 19.5t105.5 42t104.5 42t103.5 19.5q6 0 18.5 -1t16.5 -1q16 -66 20 -106t4 -99q0 -92 -47 -176q-96 10 -191.5 -1.5t-190.5 -29.5t-190 -34.5t-190 -16.5l-16 317zM238 1663 q27 14 51 22.5t53 10.5q51 8 123 -43l143 -129q45 -33 48 -58.5t-23 -33.5q-23 -10 -88 20q-70 27 -115 47q-250 139 -192 164z" />
<glyph unicode="&#xc9;" horiz-adv-x="991" d="M33 346q-10 45 2 102.5t26 151.5q16 94 30.5 194.5t23.5 163.5q0 4 1 26t1 34q0 6 -1 28.5t-1 30.5q-16 4 -44 19.5t-28 38.5q0 41 44 71.5t112.5 54t151.5 38t161 23.5t139.5 13t87.5 4h25q18 0 37.5 -1t38.5 -1h24q45 -6 58.5 -36.5t13.5 -71.5v-45q0 -10 -1 -42 t-1 -42q-12 -41 -39 -46t-55 -5q-98 0 -193.5 14t-193.5 14q-61 0 -86 -28.5t-25 -90.5v-24q18 -4 62.5 -11.5t95.5 -15.5t96 -14t63 -8q41 -8 72 -16.5t50.5 -21.5t29.5 -38t10 -66q0 -59 -7 -104t-17 -111h-13q-35 0 -86 12.5t-106 29t-109.5 31.5t-95.5 22q-4 0 -18.5 -1 t-18.5 -1q0 -10 -1 -41t-3 -66t-3 -65.5t-1 -40.5q4 -47 8 -60.5t35 -13.5q55 0 108.5 19.5t105.5 42t104.5 42t103.5 19.5q6 0 18.5 -1t16.5 -1q16 -66 20 -106t4 -99q0 -92 -47 -176q-96 10 -191.5 -1.5t-190.5 -29.5t-190 -34.5t-190 -16.5l-16 317zM308 1467.5 q3 25.5 48 56.5l144 131q70 51 123 43q29 -2 53 -10.5t49 -22.5q59 -25 -190 -164q-23 -10 -50.5 -21.5t-66.5 -25.5q-68 -29 -86 -20q-27 8 -24 33.5z" />
<glyph unicode="&#xca;" horiz-adv-x="991" d="M33 346q-10 45 2 102.5t26 151.5q16 94 30.5 194.5t23.5 163.5q0 4 1 26t1 34q0 6 -1 28.5t-1 30.5q-16 4 -44 19.5t-28 38.5q0 41 44 71.5t112.5 54t151.5 38t161 23.5t139.5 13t87.5 4h25q18 0 37.5 -1t38.5 -1h24q45 -6 58.5 -36.5t13.5 -71.5v-45q0 -10 -1 -42 t-1 -42q-12 -41 -39 -46t-55 -5q-98 0 -193.5 14t-193.5 14q-61 0 -86 -28.5t-25 -90.5v-24q18 -4 62.5 -11.5t95.5 -15.5t96 -14t63 -8q41 -8 72 -16.5t50.5 -21.5t29.5 -38t10 -66q0 -59 -7 -104t-17 -111h-13q-35 0 -86 12.5t-106 29t-109.5 31.5t-95.5 22q-4 0 -18.5 -1 t-18.5 -1q0 -10 -1 -41t-3 -66t-3 -65.5t-1 -40.5q4 -47 8 -60.5t35 -13.5q55 0 108.5 19.5t105.5 42t104.5 42t103.5 19.5q6 0 18.5 -1t16.5 -1q16 -66 20 -106t4 -99q0 -92 -47 -176q-96 10 -191.5 -1.5t-190.5 -29.5t-190 -34.5t-190 -16.5l-16 317zM213 1468q0 31 51 64 l144 129q63 45 106 45l16 -2q4 0 6.5 -1t4.5 -1l12 2l16 2q44 0 107 -45l143 -129q49 -35 49 -64q0 -23 -22 -28q-2 -2 -15 -2q-29 0 -75 20q-37 16 -64.5 27.5t-50.5 21.5q-29 16 -54.5 30.5t-45.5 27.5q-2 -2 -4 -2l-2 -2q-18 -12 -41 -25.5t-52 -28.5q-23 -10 -51.5 -21 t-62.5 -26q-27 -12 -46.5 -17t-31.5 -5q-10 0 -12 2q-25 6 -25 28z" />
<glyph unicode="&#xcb;" horiz-adv-x="991" d="M33 346q-10 45 2 102.5t26 151.5q16 94 30.5 194.5t23.5 163.5q0 4 1 26t1 34q0 6 -1 28.5t-1 30.5q-16 4 -44 19.5t-28 38.5q0 41 44 71.5t112.5 54t151.5 38t161 23.5t139.5 13t87.5 4h25q18 0 37.5 -1t38.5 -1h24q45 -6 58.5 -36.5t13.5 -71.5v-45q0 -10 -1 -42 t-1 -42q-12 -41 -39 -46t-55 -5q-98 0 -193.5 14t-193.5 14q-61 0 -86 -28.5t-25 -90.5v-24q18 -4 62.5 -11.5t95.5 -15.5t96 -14t63 -8q41 -8 72 -16.5t50.5 -21.5t29.5 -38t10 -66q0 -59 -7 -104t-17 -111h-13q-35 0 -86 12.5t-106 29t-109.5 31.5t-95.5 22q-4 0 -18.5 -1 t-18.5 -1q0 -10 -1 -41t-3 -66t-3 -65.5t-1 -40.5q4 -47 8 -60.5t35 -13.5q55 0 108.5 19.5t105.5 42t104.5 42t103.5 19.5q6 0 18.5 -1t16.5 -1q16 -66 20 -106t4 -99q0 -92 -47 -176q-96 10 -191.5 -1.5t-190.5 -29.5t-190 -34.5t-190 -16.5l-16 317zM252 1518 q0 129 39 149q33 20 106 19q72 -4 54 -144q-18 -23 -41 -53.5t-60 -30.5q-35 0 -66.5 15.5t-31.5 44.5zM588 1518q0 129 39 149q33 20 108 19q70 -2 51 -144q-10 -12 -20 -26.5t-21.5 -26.5t-27 -21.5t-33.5 -9.5q-33 0 -64.5 15.5t-31.5 44.5z" />
<glyph unicode="&#xcc;" horiz-adv-x="563" d="M16 1663q27 14 50.5 22.5t54.5 10.5q51 8 123 -43l143 -129q45 -33 48 -58.5t-23 -33.5q-23 -10 -88 20q-70 27 -115 47q-250 139 -193 164zM40 402.5q-1 136.5 2 273.5t12 272t32 269q29 39 80 65.5t110.5 43.5t119 24.5t104.5 7.5q0 -29 -4 -48.5t-11.5 -38t-16.5 -41 t-17 -56.5q-41 -152 -73 -280t-57.5 -254t-49 -259t-48.5 -293q-16 -25 -36.5 -57.5t-55.5 -32.5q-29 0 -47 11t-43 36v86q0 135 -1 271.5z" />
<glyph unicode="&#xcd;" horiz-adv-x="563" d="M40 402.5q-1 136.5 2 273.5t12 272t32 269q29 39 80 65.5t110.5 43.5t119 24.5t104.5 7.5q0 -29 -4 -48.5t-11.5 -38t-16.5 -41t-17 -56.5q-41 -152 -73 -280t-57.5 -254t-49 -259t-48.5 -293q-16 -25 -36.5 -57.5t-55.5 -32.5q-29 0 -47 11t-43 36v86q0 135 -1 271.5z M138 1473.5q3 25.5 48 58.5l144 129q70 51 123 43q27 -2 52 -10t52 -23q57 -25 -192 -164q-45 -20 -115 -47q-70 -29 -88 -20q-27 8 -24 33.5z" />
<glyph unicode="&#xce;" horiz-adv-x="563" d="M6 1460q0 29 49 64l144 129q63 45 106 45l17 -2q4 0 6 -1t4 -1l12 2l16 2q44 0 107 -45l143 -129q49 -35 49 -64q0 -23 -22 -28q-2 -2 -14 -2q-29 0 -76 20q-37 16 -64.5 27.5t-50.5 21.5q-29 16 -53.5 30.5t-46.5 26.5q-2 -2 -4 -2l-2 -2q-18 -12 -41 -25.5t-52 -27.5 q-23 -10 -51 -21.5t-63 -25.5q-53 -23 -78 -22q-10 0 -12 2q-23 6 -23 28zM40 402.5q-1 136.5 2 273.5t12 272t32 269q29 39 80 65.5t110.5 43.5t119 24.5t104.5 7.5q0 -29 -4 -48.5t-11.5 -38t-16.5 -41t-17 -56.5q-41 -152 -73 -280t-57.5 -254t-49 -259t-48.5 -293 q-16 -25 -36.5 -57.5t-55.5 -32.5q-29 0 -47 11t-43 36v86q0 135 -1 271.5z" />
<glyph unicode="&#xcf;" horiz-adv-x="563" d="M18 1511q0 131 39 152q31 20 107 16q70 -2 53 -143q-18 -23 -41.5 -53.5t-58.5 -30.5t-67 15t-32 44zM40 402.5q-1 136.5 2 273.5t12 272t32 269q29 39 80 65.5t110.5 43.5t119 24.5t104.5 7.5q0 -29 -4 -48.5t-11.5 -38t-16.5 -41t-17 -56.5q-41 -152 -73 -280 t-57.5 -254t-49 -259t-48.5 -293q-16 -25 -36.5 -57.5t-55.5 -32.5q-29 0 -47 11t-43 36v86q0 135 -1 271.5zM389 1516q0 131 39 151q29 20 109 16q70 -2 51 -143q-18 -23 -41 -53.5t-60 -30.5q-35 0 -66.5 15.5t-31.5 44.5z" />
<glyph unicode="&#xd0;" horiz-adv-x="1323" d="M-8 580l26 61l45 64q82 -14 147.5 -19.5t113.5 -1.5h2q4 55 9 102.5t9 87.5q0 6 6 46.5t13.5 86.5t15.5 86t12 48v12q0 16 -8 25.5t-17.5 18.5t-16.5 20.5t-7 29.5q0 43 27.5 62.5t65.5 24.5t78 3t65 -2q43 0 121.5 -8t161.5 -25.5t156 -46t101 -67.5l3 -8q3 -9 8.5 -20 t9.5 -22.5t6 -19.5q6 -12 15 -30.5t22 -34.5q14 -10 27.5 -28.5t41.5 -63.5q2 -72 -9 -160t-32.5 -179.5t-52.5 -177.5t-63 -149l-21 -51q-57 -72 -102 -118t-82 -77q-4 -4 -17.5 -12t-29 -16.5t-27.5 -14.5t-14 -6h-387q-27 0 -48.5 22.5t-37 53t-24.5 64.5t-9 57 q0 45 2 94t6 106q-53 8 -107.5 21.5t-100.5 35t-74.5 52.5t-28.5 74zM526 279q0 -16 7.5 -32t25.5 -16q49 0 93 3.5t81 17.5t65.5 43t47.5 80q29 98 48 212.5t19 219.5q0 43 -14 82t-39.5 68.5t-61.5 48t-79 18.5q-18 0 -26.5 -1t-12.5 -6t-7 -16.5t-9 -29.5 q-20 -49 -38 -103.5t-32 -113.5q94 37 170 82q-6 -37 -12.5 -60.5t-14.5 -44t-17 -45t-24 -63.5q-18 -51 -31.5 -91t-30 -68t-41 -45.5t-63.5 -23.5q-2 -31 -3 -59t-1 -57z" />
<glyph unicode="&#xd1;" horiz-adv-x="1163" d="M24 354.5q-1 143.5 2 285.5t12 284.5t32 283.5q29 43 80 71t110 44t119.5 23.5t105.5 7.5q0 -29 5.5 -56.5t23.5 -60.5q12 -18 29.5 -47t36 -60.5t35 -63.5t22.5 -56q35 -88 65.5 -188.5t49.5 -198.5l22 92v614l23 23q4 0 34.5 2t47.5 2q55 0 96 -1t66.5 -15.5t38 -48 t12.5 -99.5q0 -31 -8.5 -70t-18.5 -78.5t-21.5 -78.5t-19.5 -68q-8 -31 -27.5 -95.5t-44 -145.5t-52.5 -170t-53.5 -169.5t-45 -144t-27.5 -94.5q-14 -12 -41.5 -21.5t-58.5 -15.5t-59.5 -9t-47.5 -3q-14 0 -25.5 4t-17.5 22q-4 57 -7 132t-8 155t-12.5 159t-19.5 146 q-16 31 -26 86q-10 41 -56 146q-18 -74 -31.5 -128.5t-21.5 -97.5l-49 -237q-61 -225 -74 -326q-29 -92 -55 -94q-14 -2 -33.5 -1t-48.5 5q-45 27 -57 70q0 141 -1 284.5zM238 1483q0 27 49 61l143 131q63 45 107 45l16 -2q4 0 6 -1l2 -1l14 2l17 2q43 0 106 -45l47 -45 q14 10 26 17.5t32 19.5q35 29 68.5 45.5t58.5 11.5q16 0 24.5 -5t15.5 -11t16 -11t26 -5q14 0 -11.5 -39t-117.5 -131q0 -8 -10.5 -14.5t-23.5 -11.5t-23.5 -10t-10.5 -9q0 -18 -1 -22.5t-4 -1.5t-10 9t-22 11q-37 16 -65.5 27t-48.5 22q-29 16 -53.5 29.5t-49.5 27.5 q0 -2 -2 -2l-2 -2q-18 -12 -40.5 -25.5t-51.5 -27.5q-23 -10 -51.5 -21.5t-63.5 -25.5q-27 -12 -46 -17.5t-32 -5.5q-10 0 -12 2q-23 6 -22 29z" />
<glyph unicode="&#xd2;" horiz-adv-x="958" d="M20 330v39q0 96 21.5 205.5t61.5 218t98.5 209t132.5 176t162 122t186 46.5q82 0 128 -49.5t68.5 -123t26.5 -157.5t4 -154q0 -4 -3 -14t-8 -22.5t-8 -22.5t-3 -17q-43 -172 -90 -316t-123 -249.5t-195 -164t-303 -58.5q-72 0 -106.5 54t-46.5 128v37q0 27 -1.5 57.5 t-1.5 55.5zM152 1667q49 33 102 35q51 6 123 -43l143 -129q47 -33 50 -58.5t-23 -33.5q-25 -10 -88 20q-72 25 -115 45q-250 143 -192 164zM315 545q0 -92 12.5 -175t59.5 -169q63 51 100 131t55.5 169t23.5 179t5 164v43q0 29 -1 61.5t-1 59.5v43q0 6 -9 23.5t-13 23.5 l-5 1t-7 1q-39 0 -70 -34t-55.5 -86t-42 -117.5t-29.5 -127t-17.5 -112.5t-5.5 -78z" />
<glyph unicode="&#xd3;" horiz-adv-x="968" d="M20 330v39q0 96 21.5 205.5t61.5 218t98.5 209t132.5 176t162 122t186 46.5q82 0 128 -49.5t69 -122.5q10 -35 16 -76t9 -80t4 -71t1 -50q0 -37 -3 -48t-7 -24q-2 -12 -7 -23t-5 -16q-43 -172 -90 -316t-123 -249.5t-195 -164t-303 -58.5q-72 0 -106.5 54t-46.5 128v37 q0 27 -1.5 57.5t-1.5 55.5zM315 545q0 -92 12.5 -175t59.5 -169q63 51 100 131t55.5 169t23.5 179t5 164v43q0 29 -1 61.5t-1 59.5v43q0 6 -9 23.5t-13 23.5l-5 1t-7 1q-39 0 -70 -34t-55.5 -86t-42 -117.5t-29.5 -127t-17.5 -112.5t-5.5 -78zM369.5 1471.5 q3.5 25.5 48.5 58.5l143 129q70 51 123 43q55 -2 102 -35q59 -23 -190 -164q-23 -8 -50.5 -19t-66.5 -26q-68 -29 -86 -20q-27 8 -23.5 33.5z" />
<glyph unicode="&#xd4;" horiz-adv-x="958" d="M20 330v39q0 96 21.5 205.5t61.5 218t98.5 209t132.5 176t162 122t186 46.5q82 0 128 -49.5t68.5 -123t26.5 -157.5t4 -154q0 -4 -3 -14t-8 -22.5t-8 -22.5t-3 -17q-43 -172 -90 -316t-123 -249.5t-195 -164t-303 -58.5q-72 0 -106.5 54t-46.5 128v37q0 27 -1.5 57.5 t-1.5 55.5zM315 545q0 -92 12.5 -175t59.5 -169q63 51 100 131t55.5 169t23.5 179t5 164v43q0 29 -1 61.5t-1 59.5v43q0 6 -9 23.5t-13 23.5l-5 1t-7 1q-39 0 -70 -34t-55.5 -86t-42 -117.5t-29.5 -127t-17.5 -112.5t-5.5 -78zM356 1436q0 27 52 63l143 127q66 47 106 47 l17 -2q4 0 6 -2t4 -2l12 4l17 2q40 0 106 -47l144 -127q49 -37 49 -63q0 -23 -23 -29q-2 -2 -14 -2q-29 0 -76 20q-37 16 -64.5 26.5t-50.5 23.5q-29 16 -54 30.5t-46 26.5q-2 -2 -4 -2l-2 -2q-18 -12 -41 -25.5t-51 -27.5q-23 -10 -51.5 -21.5t-63.5 -26.5q-27 -12 -46 -17 t-32 -5q-10 0 -12 2q-25 6 -25 29z" />
<glyph unicode="&#xd5;" horiz-adv-x="958" d="M20 330v39q0 96 21.5 205.5t61.5 218t98.5 209t132.5 176t162 122t186 46.5q82 0 128 -49.5t68.5 -123t26.5 -157.5t4 -154q0 -4 -3 -14t-8 -22.5t-8 -22.5t-3 -17q-43 -172 -90 -316t-123 -249.5t-195 -164t-303 -58.5q-72 0 -106.5 54t-46.5 128v37q0 27 -1.5 57.5 t-1.5 55.5zM301 1468q0 29 49 64l144 129q63 45 106 45l16 -2q4 0 5.5 -1t5.5 -1l12 2l16 2q43 0 107 -45l49 -45q12 10 23.5 17.5t31.5 21.5q35 27 69 43t60 10q27 0 38 -15.5t40 -15.5q16 0 -9.5 -39t-117.5 -131q0 -8 -10 -14t-23.5 -11t-23.5 -10.5t-10 -9.5 q0 -18 -1 -22t-5.5 -1t-11.5 9t-19 10q-37 16 -64.5 27.5t-52.5 21.5q-27 16 -51.5 30.5t-46.5 27.5q-2 -2 -4 -2l-2 -2q-18 -12 -41 -25.5t-52 -28.5q-23 -10 -51 -21t-63 -26q-27 -12 -46.5 -17t-31.5 -5q-10 0 -12 2q-23 6 -23 28zM315 545q0 -92 12.5 -175t59.5 -169 q63 51 100 131t55.5 169t23.5 179t5 164v43q0 29 -1 61.5t-1 59.5v43q0 6 -9 23.5t-13 23.5l-5 1t-7 1q-39 0 -70 -34t-55.5 -86t-42 -117.5t-29.5 -127t-17.5 -112.5t-5.5 -78z" />
<glyph unicode="&#xd6;" horiz-adv-x="958" d="M20 330v39q0 96 21.5 205.5t61.5 218t98.5 209t132.5 176t162 122t186 46.5q82 0 128 -49.5t68.5 -123t26.5 -157.5t4 -154q0 -4 -3 -14t-8 -22.5t-8 -22.5t-3 -17q-43 -172 -90 -316t-123 -249.5t-195 -164t-303 -58.5q-72 0 -106.5 54t-46.5 128v37q0 27 -1.5 57.5 t-1.5 55.5zM315 545q0 -92 12.5 -175t59.5 -169q63 51 100 131t55.5 169t23.5 179t5 164v43q0 29 -1 61.5t-1 59.5v43q0 6 -9 23.5t-13 23.5l-5 1t-7 1q-39 0 -70 -34t-55.5 -86t-42 -117.5t-29.5 -127t-17.5 -112.5t-5.5 -78zM428 1518q0 129 39 149q33 20 106 19 q70 -2 54 -144q-18 -23 -42 -53.5t-59 -30.5t-66.5 15.5t-31.5 44.5zM711 1518q0 129 39 149q33 20 108 19q70 -2 51 -144q-10 -12 -20 -26.5t-21.5 -26.5t-27 -21.5t-33.5 -9.5q-33 0 -64.5 15.5t-31.5 44.5z" />
<glyph unicode="&#xd7;" horiz-adv-x="851" d="M8 754l135 184q45 -51 83 -108.5t75 -124.5q53 113 85 194.5t46 132.5q23 -29 36 -49t22.5 -40.5t18.5 -45.5t26 -61q27 -61 48 -104.5t25 -80.5t-13 -72.5t-71 -84.5l11 -27l225 -174q-92 -104 -215 -162l-168 240q-133 -84 -201.5 -96.5t-107.5 32.5l-25 62l-14 77 l159 125z" />
<glyph unicode="&#xd8;" horiz-adv-x="1200" d="M-29 -12q0 31 4.5 50t11.5 37.5t16 40t17 56.5l130 164q-2 16 -3 33v32v48q0 39 2.5 50t6.5 23q14 29 14 37q43 174 90 319.5t124 250t194.5 162t304.5 57.5q12 0 16 -2q6 2 16 2h15q53 0 93 -1t66.5 -15.5t40 -48t13.5 -99.5q-14 -16 -40 -50t-67 -87v-29v-39 q0 -96 -21.5 -205.5t-61.5 -219.5t-98 -209t-132 -176t-162 -123t-186 -46q-70 0 -117 41q-72 -29 -151.5 -41t-135.5 -12zM489 307q4 -8 11.5 -21.5t11.5 -17.5l8 -4q41 0 72 34t54.5 87t41 117.5t31.5 126.5q-72 -98 -129.5 -178t-100.5 -144zM500 776q61 88 112.5 164 t92.5 141q-13 33 -33 74q-82 -66 -120 -167t-52 -212z" />
<glyph unicode="&#xd9;" d="M23 520q0 23 7 88.5t20 148.5t32.5 174t44.5 168t55.5 126t65.5 49q23 0 51.5 -7t57 -18.5t54 -24t44.5 -22.5q0 -6 1 -18.5t1 -16.5q0 -6 -1 -20t-1 -17q-31 -92 -64 -178t-59.5 -172t-44 -177t-17.5 -191v-60q0 -31 2 -67.5t9.5 -68.5t18.5 -53.5t30 -21.5q2 0 6 1t6 1 q90 109 141.5 247t79 287.5t36.5 302.5t15 292q57 45 96.5 61.5t96.5 16.5q8 0 29.5 -3.5t27.5 -3.5q2 -14 6 -51t7.5 -77.5t6.5 -77.5t3 -52v-36q0 -74 -15.5 -179.5t-47 -222.5t-79 -232.5t-110 -208.5t-140 -150.5t-169.5 -57.5t-150.5 56.5t-92.5 137t-47 170.5t-13 158 zM186 1665q27 14 51.5 22.5t53.5 10.5q51 8 123 -43l143 -131q45 -31 48 -56.5t-23 -33.5q-18 -8 -88 20q-37 14 -65 25.5t-52 21.5q-250 139 -191 164z" />
<glyph unicode="&#xda;" d="M23 520q0 23 7 88.5t20 148.5t32.5 174t44.5 168t55.5 126t65.5 49q23 0 51.5 -7t57 -18.5t54 -24t44.5 -22.5q0 -6 1 -18.5t1 -16.5q0 -6 -1 -20t-1 -17q-31 -92 -64 -178t-59.5 -172t-44 -177t-17.5 -191v-60q0 -31 2 -67.5t9.5 -68.5t18.5 -53.5t30 -21.5q2 0 6 1t6 1 q90 109 141.5 247t79 287.5t36.5 302.5t15 292q57 45 96.5 61.5t96.5 16.5q8 0 29.5 -3.5t27.5 -3.5q2 -14 6 -51t7.5 -77.5t6.5 -77.5t3 -52v-36q0 -74 -15.5 -179.5t-47 -222.5t-79 -232.5t-110 -208.5t-140 -150.5t-169.5 -57.5t-150.5 56.5t-92.5 137t-47 170.5t-13 158 zM408.5 1461q3.5 26 48.5 59l143 127q70 55 123 45q29 -4 53.5 -11.5t50.5 -21.5q57 -25 -192 -164q-23 -12 -50.5 -22.5t-64.5 -24.5q-70 -29 -88 -21q-27 8 -23.5 34z" />
<glyph unicode="&#xdb;" d="M23 520q0 23 7 88.5t20 148.5t32.5 174t44.5 168t55.5 126t65.5 49q23 0 51.5 -7t57 -18.5t54 -24t44.5 -22.5q0 -6 1 -18.5t1 -16.5q0 -6 -1 -20t-1 -17q-31 -92 -64 -178t-59.5 -172t-44 -177t-17.5 -191v-60q0 -31 2 -67.5t9.5 -68.5t18.5 -53.5t30 -21.5q2 0 6 1t6 1 q90 109 141.5 247t79 287.5t36.5 302.5t15 292q57 45 96.5 61.5t96.5 16.5q8 0 29.5 -3.5t27.5 -3.5q2 -14 6 -51t7.5 -77.5t6.5 -77.5t3 -52v-36q0 -74 -15.5 -179.5t-47 -222.5t-79 -232.5t-110 -208.5t-140 -150.5t-169.5 -57.5t-150.5 56.5t-92.5 137t-47 170.5t-13 158 zM219 1475q0 29 49 63l144 129q63 45 106 45l17 -4h10h12l16 4q44 0 107 -45l143 -129q49 -35 49 -63q0 -23 -24 -29q-4 -4 -12 -4q-33 0 -76 20q-37 18 -64.5 29.5t-52.5 21.5q-27 16 -51.5 31t-46.5 27q-2 -2 -4 -2v-2l-2 -2q-18 -10 -41 -23.5t-52 -28.5q-23 -10 -51 -21 t-63 -26q-53 -25 -78 -24q-8 0 -12 4q-23 6 -23 29z" />
<glyph unicode="&#xdc;" d="M23 520q0 23 7 88.5t20 148.5t32.5 174t44.5 168t55.5 126t65.5 49q23 0 51.5 -7t57 -18.5t54 -24t44.5 -22.5q0 -6 1 -18.5t1 -16.5q0 -6 -1 -20t-1 -17q-31 -92 -64 -178t-59.5 -172t-44 -177t-17.5 -191v-60q0 -31 2 -67.5t9.5 -68.5t18.5 -53.5t30 -21.5q2 0 6 1t6 1 q90 109 141.5 247t79 287.5t36.5 302.5t15 292q57 45 96.5 61.5t96.5 16.5q8 0 29.5 -3.5t27.5 -3.5q2 -14 6 -51t7.5 -77.5t6.5 -77.5t3 -52v-36q0 -74 -15.5 -179.5t-47 -222.5t-79 -232.5t-110 -208.5t-140 -150.5t-169.5 -57.5t-150.5 56.5t-92.5 137t-47 170.5t-13 158 zM299 1513q0 129 37 152q31 20 108 16q72 -4 54 -143q-18 -23 -41 -53.5t-60 -30.5q-35 0 -66.5 14t-31.5 45zM582 1513q0 131 39 152q31 20 108 16q70 -2 51 -143q-18 -23 -40.5 -53.5t-59.5 -30.5t-67.5 14t-30.5 45z" />
<glyph unicode="&#xdd;" horiz-adv-x="1126" d="M25 1149v10l227 184q2 4 19.5 -6t27.5 -18q12 -10 33.5 -34.5t43 -50.5t38 -47.5t20.5 -27.5q12 -18 42 -64t54.5 -95.5t33.5 -72t28 -40.5q31 51 60.5 97t58.5 87l90 254q143 23 272 4l-8 -92q-39 -92 -66.5 -173t-72.5 -155q-43 -74 -101.5 -139t-91.5 -119 q-8 -25 -18 -61.5t-23 -85.5q-25 -98 -48 -201.5t-48 -232.5q-16 -16 -36.5 -44t-53.5 -28t-62.5 13.5t-29.5 37.5q-2 39 -3 80t-1 84q0 63 2 129t4 124t4 108t4 85q-33 57 -33 62q-106 143 -168 192q-33 27 -57.5 45.5t-44.5 32.5q-41 35 -68.5 72t-27.5 86zM406.5 1467.5 q3.5 25.5 48.5 56.5l143 131q70 51 123 43q29 -2 53.5 -10.5t50.5 -22.5q57 -25 -192 -164q-45 -20 -115 -47q-70 -29 -88 -20q-27 8 -23.5 33.5z" />
<glyph unicode="&#xde;" horiz-adv-x="1085" d="M19 710.5q-1 49.5 4 92.5l24 414q39 43 45 65.5t6 32.5q0 12 6.5 14t47.5 2q4 0 35.5 1t68.5 3t68.5 3t35.5 1l-18 -198q-6 -31 21.5 -34t75.5 5t109.5 20.5t123.5 12.5q29 0 88 -1t118.5 -11.5t103.5 -37t44 -75.5q0 -135 -58.5 -249t-146.5 -226q-61 -74 -90 -101.5 t-55 -35.5q-12 -6 -64.5 -26.5t-146.5 -57.5l-166 -25l-4 -25l65 -204v-13q0 -25 -28.5 -29.5t-66.5 -1.5t-78 10t-62 7q-35 0 -55.5 23.5t-30.5 57.5t-13 68.5t-3 57.5v41q0 37 -1.5 86t-1.5 98v82v59q0 45 -1 94.5zM262 623.5q2 -52.5 2 -74.5q111 0 210 37t185 98 q18 12 46 35.5t47.5 40t21.5 18.5v45q0 2 -16.5 11.5t-38 19.5t-45 20.5t-37.5 14.5q-51 20 -100.5 24.5t-104.5 4.5q-6 0 -18.5 -2.5t-26.5 -2.5h-45q-39 -20 -56.5 -71t-21.5 -108.5t-2 -110z" />
<glyph unicode="&#xdf;" horiz-adv-x="1103" d="M20 485q0 -53 1.5 -103t1.5 -89v-43q0 -18 2 -43t7 -50.5t13 -49t23 -41.5q-6 25 -11.5 58.5t-8.5 60t-4 41t-1 -0.5l8 -133l23 -346q0 -51 31.5 -79.5t66.5 -28.5q33 0 55 55q14 29 24.5 51.5t20.5 42.5q31 166 2 219q35 -4 100.5 -3t166.5 5q102 -4 155.5 -5t79 0 t33.5 3t25 2q31 8 67.5 30.5t70.5 53.5t56.5 66t22.5 67q0 63 -17.5 142t-64.5 143q-45 63 -104.5 104t-131.5 68l82 63q49 55 79 88t47 64t22.5 69t5.5 105q0 49 -36 98.5t-84 88t-98.5 63.5t-78.5 25q-82 0 -147.5 -3.5t-114.5 -5.5q-49 -4 -95.5 -14t-89.5 -25 q-84 -25 -120.5 -110.5t-59.5 -253.5q-2 -6 -10 -23.5t-12 -23.5v-64q0 -45 -1.5 -95t-1.5 -95v-148zM68 66q20 -23 47 -29q2 -2 8 -2q-20 -4 -29 -6q-12 -2 -26 37zM265 745.5q-1 53.5 1 113t10.5 111.5t23.5 91t42 53h45q14 0 26.5 2t18.5 2q55 0 104.5 -4t100.5 -22 q14 -6 37.5 -16.5t45 -22t38 -19.5t16.5 -10v-45q-2 -2 -21.5 -18.5t-47 -40t-46.5 -33.5q-43 -31 -88 -80t-94 -95t-100 -80t-107 -34q0 14 -2 54t-3 93.5zM291 584q10 2 25.5 -9.5t36 -27t46 -29.5t56.5 -18q25 -4 54.5 -6t63 -10.5t70.5 -24t76 -45.5q78 -59 37 -121 q-41 -59 -97 -84q-27 -2 -65.5 -28.5t-84.5 -57.5t-98.5 -54.5t-103.5 -17.5l35 178z" />
<glyph unicode="&#xe0;" d="M23 66q0 66 28.5 187.5t75.5 263.5t106.5 290.5t122 270.5t121 199t103.5 77h12q4 -2 12 -10.5t10 -12.5q2 -8 8.5 -26.5t14.5 -39t14 -40t8 -29.5q10 -33 29 -104.5t41.5 -163.5t47 -193.5t46 -193.5t39 -166t25.5 -109v-20q0 -47 -21.5 -92t-56.5 -80t-80 -55.5 t-92 -20.5h-16q-14 0 -31 2.5t-21 22.5q4 98 0 191t-22 187q-16 29 -55 37t-70 8q-6 0 -18.5 -1t-16.5 -1q-12 -45 -20.5 -97t-12.5 -105.5t-7 -104.5t-5 -92l-23 -22h-274q-18 0 -20 16t-2 27zM238 1663q27 14 51 22.5t53 10.5q51 8 123 -43l143 -129q45 -33 48 -58.5 t-23 -33.5q-25 -10 -88 20q-35 14 -63.5 25.5t-51.5 21.5q-250 139 -192 164zM414 676l137 -8q-2 117 -10 181t-41 107q-27 -47 -48.5 -106t-37.5 -174z" />
<glyph unicode="&#xe1;" d="M23 66q0 66 28.5 187.5t75.5 263.5t106.5 290.5t122 270.5t121 199t103.5 77h12q4 -2 12 -10.5t10 -12.5q2 -8 8.5 -26.5t14.5 -39t14 -40t8 -29.5q10 -33 29 -104.5t41.5 -163.5t47 -193.5t46 -193.5t39 -166t25.5 -109v-20q0 -47 -21.5 -92t-56.5 -80t-80 -55.5 t-92 -20.5h-16q-14 0 -31 2.5t-21 22.5q4 98 0 191t-22 187q-16 29 -55 37t-70 8q-6 0 -18.5 -1t-16.5 -1q-12 -45 -20.5 -97t-12.5 -105.5t-7 -104.5t-5 -92l-23 -22h-274q-18 0 -20 16t-2 27zM363.5 1475.5q3.5 25.5 48.5 56.5l143 131q68 51 123 43q49 -2 102 -33 q57 -27 -190 -164q-23 -10 -50.5 -21t-66.5 -26q-70 -29 -86 -20q-27 8 -23.5 33.5zM414 676l137 -8q-2 117 -10 181t-41 107q-27 -47 -48.5 -106t-37.5 -174z" />
<glyph unicode="&#xe2;" d="M23 66q0 66 28.5 187.5t75.5 263.5t106.5 290.5t122 270.5t121 199t103.5 77h12q4 -2 12 -10.5t10 -12.5q2 -8 8.5 -26.5t14.5 -39t14 -40t8 -29.5q10 -33 29 -104.5t41.5 -163.5t47 -193.5t46 -193.5t39 -166t25.5 -109v-20q0 -47 -21.5 -92t-56.5 -80t-80 -55.5 t-92 -20.5h-16q-14 0 -31 2.5t-21 22.5q4 98 0 191t-22 187q-16 29 -55 37t-70 8q-6 0 -18.5 -1t-16.5 -1q-12 -45 -20.5 -97t-12.5 -105.5t-7 -104.5t-5 -92l-23 -22h-274q-18 0 -20 16t-2 27zM250 1473q0 29 49 63l143 129q63 43 107 43h16q4 0 6 -1t4 -1l13 2h14 q43 0 109 -43l143 -129q49 -35 49 -63q0 -20 -22 -31h-15q-29 0 -75 20q-37 16 -65 27.5t-50 21.5q-29 16 -53.5 30.5t-47.5 27.5l-4 -4h-2q-18 -12 -40.5 -26.5t-51.5 -27.5q-23 -10 -51.5 -22t-63.5 -27q-27 -10 -47 -15t-30 -5h-13q-23 10 -22 31zM414 676l137 -8 q-2 117 -10 181t-41 107q-27 -47 -48.5 -106t-37.5 -174z" />
<glyph unicode="&#xe3;" d="M23 66q0 66 28.5 187.5t75.5 263.5t106.5 290.5t122 270.5t121 199t103.5 77h12q4 -2 12 -10.5t10 -12.5q2 -8 8.5 -26.5t14.5 -39t14 -40t8 -29.5q10 -33 29 -104.5t41.5 -163.5t47 -193.5t46 -193.5t39 -166t25.5 -109v-20q0 -47 -21.5 -92t-56.5 -80t-80 -55.5 t-92 -20.5h-16q-14 0 -31 2.5t-21 22.5q4 98 0 191t-22 187q-16 29 -55 37t-70 8q-6 0 -18.5 -1t-16.5 -1q-12 -45 -20.5 -97t-12.5 -105.5t-7 -104.5t-5 -92l-23 -22h-274q-18 0 -20 16t-2 27zM186 1468q0 29 47 64l144 129q63 45 108 45l15 -2q6 0 8 -1t4 -1l12 2l17 2 q43 0 106 -45l49 -45q12 10 24 17.5t32 21.5q35 27 68.5 43t60.5 10q12 0 20 -5t16.5 -10t17.5 -10.5t26 -5.5q14 0 -11.5 -39t-118.5 -131q0 -8 -10 -14t-23.5 -11t-23.5 -10.5t-10 -9.5q0 -18 -1 -22t-4 -1t-11.5 9t-22.5 10q-35 16 -62.5 27.5t-50.5 21.5 q-31 16 -54 30.5t-46 27.5q-2 -2 -4 -2l-2 -2q-18 -12 -41 -25.5t-51 -28.5q-23 -10 -51.5 -21t-63.5 -26q-27 -12 -46.5 -17t-31.5 -5q-10 0 -12 2q-23 6 -23 28zM414 676l137 -8q-2 117 -10 181t-41 107q-27 -47 -48.5 -106t-37.5 -174z" />
<glyph unicode="&#xe4;" d="M23 66q0 66 28.5 187.5t75.5 263.5t106.5 290.5t122 270.5t121 199t103.5 77h12q4 -2 12 -10.5t10 -12.5q2 -8 8.5 -26.5t14.5 -39t14 -40t8 -29.5q10 -33 29 -104.5t41.5 -163.5t47 -193.5t46 -193.5t39 -166t25.5 -109v-20q0 -47 -21.5 -92t-56.5 -80t-80 -55.5 t-92 -20.5h-16q-14 0 -31 2.5t-21 22.5q4 98 0 191t-22 187q-16 29 -55 37t-70 8q-6 0 -18.5 -1t-16.5 -1q-12 -45 -20.5 -97t-12.5 -105.5t-7 -104.5t-5 -92l-23 -22h-274q-18 0 -20 16t-2 27zM268 1520q0 131 39 151q25 20 107 17q68 -2 53 -144q-18 -23 -42 -53.5 t-58 -30.5q-35 0 -67 15.5t-32 44.5zM414 676l137 -8q-2 117 -10 181t-41 107q-27 -47 -48.5 -106t-37.5 -174zM639 1524q0 131 39 151q25 20 108 17q70 -2 52 -144q-18 -25 -41 -55.5t-60 -30.5q-35 0 -66.5 16.5t-31.5 45.5z" />
<glyph unicode="&#xe5;" d="M23 66q0 66 28.5 187.5t75.5 263.5t106.5 290.5t122 270.5t121 199t103.5 77h12q4 -2 12 -10.5t10 -12.5q2 -8 8.5 -26.5t14.5 -39t14 -40t8 -29.5q10 -33 29 -104.5t41.5 -163.5t47 -193.5t46 -193.5t39 -166t25.5 -109v-20q0 -47 -21.5 -92t-56.5 -80t-80 -55.5 t-92 -20.5h-16q-14 0 -31 2.5t-21 22.5q4 98 0 191t-22 187q-16 29 -55 37t-70 8q-6 0 -18.5 -1t-16.5 -1q-12 -45 -20.5 -97t-12.5 -105.5t-7 -104.5t-5 -92l-23 -22h-274q-18 0 -20 16t-2 27zM414 676l137 -8q-2 117 -10 181t-41 107q-27 -47 -48.5 -106t-37.5 -174z M510 1518q0 129 39 149q29 23 108 19q66 -2 52 -144q-18 -23 -42 -53.5t-59 -30.5t-66.5 15.5t-31.5 44.5z" />
<glyph unicode="&#xe6;" horiz-adv-x="1536" d="M23 66q0 66 28.5 187.5t75.5 263.5t106.5 290.5t122 270.5t121 199t103.5 77h12q4 -2 12 -10.5t10 -12.5l13.5 -40.5t19.5 -57.5q59 33 152.5 55.5t188.5 36.5t175 19.5t111 5.5h24q18 0 38 -1t38 -1h25q43 -8 57 -39t14 -72v-43q0 -10 -1 -42t-1 -42q-12 -41 -39.5 -46 t-54.5 -5q-98 0 -193.5 14t-193.5 14q-61 0 -85.5 -28.5t-24.5 -89.5v-25q18 -4 62 -11t95 -15.5t96.5 -14.5t63.5 -8q41 -8 71.5 -16.5t50 -22.5t30 -37.5t10.5 -64.5q0 -59 -8.5 -105.5t-16.5 -109.5h-12q-35 0 -86 12t-106.5 28.5t-109.5 32t-95 21.5q-4 0 -18.5 -1 t-18.5 -1q0 -10 -1 -41t-3 -66t-3 -65.5t-1 -40.5q4 -47 8 -60.5t35 -13.5q55 0 108 19.5t105.5 42t104.5 42t101 19.5q8 0 20.5 -1t16.5 -1q8 -35 13.5 -59.5t7.5 -47t3 -45t1 -53.5q0 -92 -47 -176q-84 6 -166 -2t-164 -21.5t-163 -29t-163 -23.5q-37 -10 -61 -10h-16 q-14 0 -31 2.5t-21 22.5q4 98 0 191t-22 187q-16 29 -55 37t-70 8q-6 0 -18.5 -1t-16.5 -1q-12 -45 -20.5 -97t-12.5 -105.5t-7 -104.5t-5 -92l-23 -22h-274q-18 0 -20 16t-2 27zM414 676l137 -8q-2 117 -10 181t-41 107q-27 -47 -48.5 -106t-37.5 -174z" />
<glyph unicode="&#xe7;" horiz-adv-x="950" d="M16 -160q6 10 38 12.5t69 2.5q39 0 74.5 -1t52.5 3q-10 33 -15.5 73.5t-9.5 69.5h-24q-16 0 -25 -2q-72 0 -106.5 54t-46.5 128v37q0 27 -1.5 57.5t-1.5 55.5v39q0 96 21.5 206.5t61.5 219t98.5 209t132.5 177t162 123t186 46.5q82 0 128 -50.5t69 -115.5q20 -66 18 -123 q-2 -55 -328 -78v41q0 4 -9 22.5t-13 22.5l-5 1t-7 1q-39 0 -70 -32.5t-55.5 -85t-42 -116t-29.5 -125t-17.5 -112.5t-5.5 -80q0 -92 12.5 -176t37.5 -139q86 27 122.5 104.5t124.5 75.5t113 -33q25 -27 -51 -133q-76 -102 -162 -158q-57 -39 -176 -53q-4 -25 4 -33 q20 -20 25.5 -34.5t5.5 -28.5q0 -16 -2 -35.5t2 -52.5q2 -14 3 -27.5t1 -23.5q0 -86 -56 -88h-24q-12 0 -49 -2t-78 -2q-39 0 -73 3t-40 7q-39 20 -39 149z" />
<glyph unicode="&#xe8;" horiz-adv-x="991" d="M33 346q-10 45 2 102.5t26 151.5q16 94 30.5 194.5t23.5 163.5q0 4 1 26t1 34q0 6 -1 28.5t-1 30.5q-16 4 -44 19.5t-28 38.5q0 41 44 71.5t112.5 54t151.5 38t161 23.5t139.5 13t87.5 4h25q18 0 37.5 -1t38.5 -1h24q45 -6 58.5 -36.5t13.5 -71.5v-45q0 -10 -1 -42 t-1 -42q-12 -41 -39 -46t-55 -5q-98 0 -193.5 14t-193.5 14q-61 0 -86 -28.5t-25 -90.5v-24q18 -4 62.5 -11.5t95.5 -15.5t96 -14t63 -8q41 -8 72 -16.5t50.5 -21.5t29.5 -38t10 -66q0 -59 -7 -104t-17 -111h-13q-35 0 -86 12.5t-106 29t-109.5 31.5t-95.5 22q-4 0 -18.5 -1 t-18.5 -1q0 -10 -1 -41t-3 -66t-3 -65.5t-1 -40.5q4 -47 8 -60.5t35 -13.5q55 0 108.5 19.5t105.5 42t104.5 42t103.5 19.5q6 0 18.5 -1t16.5 -1q16 -66 20 -106t4 -99q0 -92 -47 -176q-96 10 -191.5 -1.5t-190.5 -29.5t-190 -34.5t-190 -16.5l-16 317zM238 1663 q27 14 51 22.5t53 10.5q51 8 123 -43l143 -129q45 -33 48 -58.5t-23 -33.5q-23 -10 -88 20q-70 27 -115 47q-250 139 -192 164z" />
<glyph unicode="&#xe9;" horiz-adv-x="991" d="M33 346q-10 45 2 102.5t26 151.5q16 94 30.5 194.5t23.5 163.5q0 4 1 26t1 34q0 6 -1 28.5t-1 30.5q-16 4 -44 19.5t-28 38.5q0 41 44 71.5t112.5 54t151.5 38t161 23.5t139.5 13t87.5 4h25q18 0 37.5 -1t38.5 -1h24q45 -6 58.5 -36.5t13.5 -71.5v-45q0 -10 -1 -42 t-1 -42q-12 -41 -39 -46t-55 -5q-98 0 -193.5 14t-193.5 14q-61 0 -86 -28.5t-25 -90.5v-24q18 -4 62.5 -11.5t95.5 -15.5t96 -14t63 -8q41 -8 72 -16.5t50.5 -21.5t29.5 -38t10 -66q0 -59 -7 -104t-17 -111h-13q-35 0 -86 12.5t-106 29t-109.5 31.5t-95.5 22q-4 0 -18.5 -1 t-18.5 -1q0 -10 -1 -41t-3 -66t-3 -65.5t-1 -40.5q4 -47 8 -60.5t35 -13.5q55 0 108.5 19.5t105.5 42t104.5 42t103.5 19.5q6 0 18.5 -1t16.5 -1q16 -66 20 -106t4 -99q0 -92 -47 -176q-96 10 -191.5 -1.5t-190.5 -29.5t-190 -34.5t-190 -16.5l-16 317zM308 1467.5 q3 25.5 48 56.5l144 131q70 51 123 43q29 -2 53 -10.5t49 -22.5q59 -25 -190 -164q-23 -10 -50.5 -21.5t-66.5 -25.5q-68 -29 -86 -20q-27 8 -24 33.5z" />
<glyph unicode="&#xea;" horiz-adv-x="991" d="M33 346q-10 45 2 102.5t26 151.5q16 94 30.5 194.5t23.5 163.5q0 4 1 26t1 34q0 6 -1 28.5t-1 30.5q-16 4 -44 19.5t-28 38.5q0 41 44 71.5t112.5 54t151.5 38t161 23.5t139.5 13t87.5 4h25q18 0 37.5 -1t38.5 -1h24q45 -6 58.5 -36.5t13.5 -71.5v-45q0 -10 -1 -42 t-1 -42q-12 -41 -39 -46t-55 -5q-98 0 -193.5 14t-193.5 14q-61 0 -86 -28.5t-25 -90.5v-24q18 -4 62.5 -11.5t95.5 -15.5t96 -14t63 -8q41 -8 72 -16.5t50.5 -21.5t29.5 -38t10 -66q0 -59 -7 -104t-17 -111h-13q-35 0 -86 12.5t-106 29t-109.5 31.5t-95.5 22q-4 0 -18.5 -1 t-18.5 -1q0 -10 -1 -41t-3 -66t-3 -65.5t-1 -40.5q4 -47 8 -60.5t35 -13.5q55 0 108.5 19.5t105.5 42t104.5 42t103.5 19.5q6 0 18.5 -1t16.5 -1q16 -66 20 -106t4 -99q0 -92 -47 -176q-96 10 -191.5 -1.5t-190.5 -29.5t-190 -34.5t-190 -16.5l-16 317zM213 1468q0 31 51 64 l144 129q63 45 106 45l16 -2q4 0 6.5 -1t4.5 -1l12 2l16 2q44 0 107 -45l143 -129q49 -35 49 -64q0 -23 -22 -28q-2 -2 -15 -2q-29 0 -75 20q-37 16 -64.5 27.5t-50.5 21.5q-29 16 -54.5 30.5t-45.5 27.5q-2 -2 -4 -2l-2 -2q-18 -12 -41 -25.5t-52 -28.5q-23 -10 -51.5 -21 t-62.5 -26q-27 -12 -46.5 -17t-31.5 -5q-10 0 -12 2q-25 6 -25 28z" />
<glyph unicode="&#xeb;" horiz-adv-x="991" d="M33 346q-10 45 2 102.5t26 151.5q16 94 30.5 194.5t23.5 163.5q0 4 1 26t1 34q0 6 -1 28.5t-1 30.5q-16 4 -44 19.5t-28 38.5q0 41 44 71.5t112.5 54t151.5 38t161 23.5t139.5 13t87.5 4h25q18 0 37.5 -1t38.5 -1h24q45 -6 58.5 -36.5t13.5 -71.5v-45q0 -10 -1 -42 t-1 -42q-12 -41 -39 -46t-55 -5q-98 0 -193.5 14t-193.5 14q-61 0 -86 -28.5t-25 -90.5v-24q18 -4 62.5 -11.5t95.5 -15.5t96 -14t63 -8q41 -8 72 -16.5t50.5 -21.5t29.5 -38t10 -66q0 -59 -7 -104t-17 -111h-13q-35 0 -86 12.5t-106 29t-109.5 31.5t-95.5 22q-4 0 -18.5 -1 t-18.5 -1q0 -10 -1 -41t-3 -66t-3 -65.5t-1 -40.5q4 -47 8 -60.5t35 -13.5q55 0 108.5 19.5t105.5 42t104.5 42t103.5 19.5q6 0 18.5 -1t16.5 -1q16 -66 20 -106t4 -99q0 -92 -47 -176q-96 10 -191.5 -1.5t-190.5 -29.5t-190 -34.5t-190 -16.5l-16 317zM252 1518 q0 129 39 149q33 20 106 19q72 -4 54 -144q-18 -23 -41 -53.5t-60 -30.5q-35 0 -66.5 15.5t-31.5 44.5zM588 1518q0 129 39 149q33 20 108 19q70 -2 51 -144q-10 -12 -20 -26.5t-21.5 -26.5t-27 -21.5t-33.5 -9.5q-33 0 -64.5 15.5t-31.5 44.5z" />
<glyph unicode="&#xec;" horiz-adv-x="563" d="M16 1663q27 14 50.5 22.5t54.5 10.5q51 8 123 -43l143 -129q45 -33 48 -58.5t-23 -33.5q-23 -10 -88 20q-70 27 -115 47q-250 139 -193 164zM40 402.5q-1 136.5 2 273.5t12 272t32 269q29 39 80 65.5t110.5 43.5t119 24.5t104.5 7.5q0 -29 -4 -48.5t-11.5 -38t-16.5 -41 t-17 -56.5q-41 -152 -73 -280t-57.5 -254t-49 -259t-48.5 -293q-16 -25 -36.5 -57.5t-55.5 -32.5q-29 0 -47 11t-43 36v86q0 135 -1 271.5z" />
<glyph unicode="&#xed;" horiz-adv-x="563" d="M40 402.5q-1 136.5 2 273.5t12 272t32 269q29 39 80 65.5t110.5 43.5t119 24.5t104.5 7.5q0 -29 -4 -48.5t-11.5 -38t-16.5 -41t-17 -56.5q-41 -152 -73 -280t-57.5 -254t-49 -259t-48.5 -293q-16 -25 -36.5 -57.5t-55.5 -32.5q-29 0 -47 11t-43 36v86q0 135 -1 271.5z M138 1473.5q3 25.5 48 58.5l144 129q70 51 123 43q27 -2 52 -10t52 -23q57 -25 -192 -164q-45 -20 -115 -47q-70 -29 -88 -20q-27 8 -24 33.5z" />
<glyph unicode="&#xee;" horiz-adv-x="563" d="M6 1460q0 29 49 64l144 129q63 45 106 45l17 -2q4 0 6 -1t4 -1l12 2l16 2q44 0 107 -45l143 -129q49 -35 49 -64q0 -23 -22 -28q-2 -2 -14 -2q-29 0 -76 20q-37 16 -64.5 27.5t-50.5 21.5q-29 16 -53.5 30.5t-46.5 26.5q-2 -2 -4 -2l-2 -2q-18 -12 -41 -25.5t-52 -27.5 q-23 -10 -51 -21.5t-63 -25.5q-53 -23 -78 -22q-10 0 -12 2q-23 6 -23 28zM40 402.5q-1 136.5 2 273.5t12 272t32 269q29 39 80 65.5t110.5 43.5t119 24.5t104.5 7.5q0 -29 -4 -48.5t-11.5 -38t-16.5 -41t-17 -56.5q-41 -152 -73 -280t-57.5 -254t-49 -259t-48.5 -293 q-16 -25 -36.5 -57.5t-55.5 -32.5q-29 0 -47 11t-43 36v86q0 135 -1 271.5z" />
<glyph unicode="&#xef;" horiz-adv-x="563" d="M18 1511q0 131 39 152q31 20 107 16q70 -2 53 -143q-18 -23 -41.5 -53.5t-58.5 -30.5t-67 15t-32 44zM40 402.5q-1 136.5 2 273.5t12 272t32 269q29 39 80 65.5t110.5 43.5t119 24.5t104.5 7.5q0 -29 -4 -48.5t-11.5 -38t-16.5 -41t-17 -56.5q-41 -152 -73 -280 t-57.5 -254t-49 -259t-48.5 -293q-16 -25 -36.5 -57.5t-55.5 -32.5q-29 0 -47 11t-43 36v86q0 135 -1 271.5zM389 1516q0 131 39 151q29 20 109 16q70 -2 51 -143q-18 -23 -41 -53.5t-60 -30.5q-35 0 -66.5 15.5t-31.5 44.5z" />
<glyph unicode="&#xf0;" horiz-adv-x="968" d="M20 1053v14q0 53 19 109q23 66 68 113.5t126 47.5q123 0 227.5 -68.5t190.5 -178.5q16 4 31 4h18q29 -2 53.5 -11.5t49.5 -21.5q10 -10 10 -14q0 -25 -82 -80q78 -143 122 -303t44 -297l-2 -39v-115v-33q-12 -74 -47 -128t-107 -54q-129 0 -212 18.5t-123 44.5 q-92 59 -162 158q-78 106 -103 178q-25 76 -43 172l-2 11q0 84 275 133q39 6 71 6q63 0 99 -29q20 -18 32 -18q8 0 9 20v17q-8 31 -15.5 61.5t-17.5 60.5l-12 33q-10 -4 -20.5 -7t-20.5 -9q-12 -4 -37 -17.5t-49.5 -28t-46 -25.5t-27.5 -11h-12q-25 8 -25 29q0 8 16.5 24.5 t39 35.5t45 37t34.5 28l60 51q-23 41 -49.5 67.5t-61.5 26.5q-2 0 -7 -1l-5 -1q-4 -4 -13.5 -22.5t-9.5 -22.5v-41q-326 23 -328 76zM336 508l94 -201q37 -78 123 -104q45 29 64.5 68.5t19.5 80.5q0 72 -48 130.5t-122 68.5z" />
<glyph unicode="&#xf1;" horiz-adv-x="1263" d="M20 -2q0 29 4.5 48.5t11.5 37.5t16 40.5t18 57.5q41 150 71.5 279t56 255t50 259t51.5 293q14 25 34.5 57.5t55.5 32.5q29 0 47.5 -11.5t42.5 -35.5q35 -8 76 -24.5t59 -49.5q12 -18 30 -47t36 -60.5t34.5 -63.5t22.5 -56q35 -88 66 -188.5t49 -198.5l8 106l14 600l23 23 q4 0 35 2t47 2q55 0 95 -1t65.5 -15.5t39 -48t13.5 -99.5q0 -31 -7 -70t-18.5 -78.5t-22.5 -78.5t-20 -68q-10 -31 -30.5 -95.5t-45 -145.5t-52 -170t-52 -169.5t-43 -144t-27.5 -94.5q-14 -12 -41.5 -21.5t-58.5 -15.5t-60.5 -9t-45.5 -3q-14 0 -25.5 4t-19.5 22 q-2 57 -5.5 132t-7.5 155t-12 159t-20 146q-10 25 -15.5 44.5t-12.5 43t-18.5 57t-35.5 87.5q-6 -31 -11.5 -80t-5.5 -119q-4 -135 -13 -270.5t-32 -270.5q-27 -41 -78 -67.5t-111.5 -43t-121 -23.5t-103.5 -7zM418 1462q0 33 51 66l143 129q63 45 107 45l16 -2q4 0 6 -1 t4 -1l13 2l16 2q43 0 107 -45l49 -45q12 10 23.5 17.5t31.5 21.5q35 27 68.5 42t60.5 13q14 0 22.5 -5t14.5 -11.5t15.5 -11.5t27.5 -5q14 0 -12.5 -39t-116.5 -131q0 -8 -10.5 -14t-23.5 -11t-23.5 -10.5t-10.5 -9.5q0 -18 -1 -22t-4 -1t-10 9t-21 10q-37 16 -65 27.5 t-50 21.5q-29 16 -54.5 30.5t-46.5 27.5q-2 -2 -4 -2l-2 -3q-18 -12 -40.5 -25t-51.5 -28q-23 -10 -51.5 -21.5t-63.5 -25.5q-27 -14 -46 -18t-31 -4q-10 0 -13 2q-25 6 -24 26z" />
<glyph unicode="&#xf2;" horiz-adv-x="958" d="M20 330v39q0 96 21.5 205.5t61.5 218t98.5 209t132.5 176t162 122t186 46.5q82 0 128 -49.5t68.5 -123t26.5 -157.5t4 -154q0 -4 -3 -14t-8 -22.5t-8 -22.5t-3 -17q-43 -172 -90 -316t-123 -249.5t-195 -164t-303 -58.5q-72 0 -106.5 54t-46.5 128v37q0 27 -1.5 57.5 t-1.5 55.5zM152 1667q49 33 102 35q51 6 123 -43l143 -129q47 -33 50 -58.5t-23 -33.5q-25 -10 -88 20q-72 25 -115 45q-250 143 -192 164zM315 545q0 -92 12.5 -175t59.5 -169q63 51 100 131t55.5 169t23.5 179t5 164v43q0 29 -1 61.5t-1 59.5v43q0 6 -9 23.5t-13 23.5 l-5 1t-7 1q-39 0 -70 -34t-55.5 -86t-42 -117.5t-29.5 -127t-17.5 -112.5t-5.5 -78z" />
<glyph unicode="&#xf3;" horiz-adv-x="968" d="M20 330v39q0 96 21.5 205.5t61.5 218t98.5 209t132.5 176t162 122t186 46.5q82 0 128 -49.5t69 -122.5q10 -35 16 -76t9 -80t4 -71t1 -50q0 -37 -3 -48t-7 -24q-2 -12 -7 -23t-5 -16q-43 -172 -90 -316t-123 -249.5t-195 -164t-303 -58.5q-72 0 -106.5 54t-46.5 128v37 q0 27 -1.5 57.5t-1.5 55.5zM315 545q0 -92 12.5 -175t59.5 -169q63 51 100 131t55.5 169t23.5 179t5 164v43q0 29 -1 61.5t-1 59.5v43q0 6 -9 23.5t-13 23.5l-5 1t-7 1q-39 0 -70 -34t-55.5 -86t-42 -117.5t-29.5 -127t-17.5 -112.5t-5.5 -78zM369.5 1471.5 q3.5 25.5 48.5 58.5l143 129q70 51 123 43q55 -2 102 -35q59 -23 -190 -164q-23 -8 -50.5 -19t-66.5 -26q-68 -29 -86 -20q-27 8 -23.5 33.5z" />
<glyph unicode="&#xf4;" horiz-adv-x="958" d="M20 330v39q0 96 21.5 205.5t61.5 218t98.5 209t132.5 176t162 122t186 46.5q82 0 128 -49.5t68.5 -123t26.5 -157.5t4 -154q0 -4 -3 -14t-8 -22.5t-8 -22.5t-3 -17q-43 -172 -90 -316t-123 -249.5t-195 -164t-303 -58.5q-72 0 -106.5 54t-46.5 128v37q0 27 -1.5 57.5 t-1.5 55.5zM315 545q0 -92 12.5 -175t59.5 -169q63 51 100 131t55.5 169t23.5 179t5 164v43q0 29 -1 61.5t-1 59.5v43q0 6 -9 23.5t-13 23.5l-5 1t-7 1q-39 0 -70 -34t-55.5 -86t-42 -117.5t-29.5 -127t-17.5 -112.5t-5.5 -78zM356 1436q0 27 52 63l143 127q66 47 106 47 l17 -2q4 0 6 -2t4 -2l12 4l17 2q40 0 106 -47l144 -127q49 -37 49 -63q0 -23 -23 -29q-2 -2 -14 -2q-29 0 -76 20q-37 16 -64.5 26.5t-50.5 23.5q-29 16 -54 30.5t-46 26.5q-2 -2 -4 -2l-2 -2q-18 -12 -41 -25.5t-51 -27.5q-23 -10 -51.5 -21.5t-63.5 -26.5q-27 -12 -46 -17 t-32 -5q-10 0 -12 2q-25 6 -25 29z" />
<glyph unicode="&#xf5;" horiz-adv-x="958" d="M20 330v39q0 96 21.5 205.5t61.5 218t98.5 209t132.5 176t162 122t186 46.5q82 0 128 -49.5t68.5 -123t26.5 -157.5t4 -154q0 -4 -3 -14t-8 -22.5t-8 -22.5t-3 -17q-43 -172 -90 -316t-123 -249.5t-195 -164t-303 -58.5q-72 0 -106.5 54t-46.5 128v37q0 27 -1.5 57.5 t-1.5 55.5zM301 1468q0 29 49 64l144 129q63 45 106 45l16 -2q4 0 5.5 -1t5.5 -1l12 2l16 2q43 0 107 -45l49 -45q12 10 23.5 17.5t31.5 21.5q35 27 69 43t60 10q27 0 38 -15.5t40 -15.5q16 0 -9.5 -39t-117.5 -131q0 -8 -10 -14t-23.5 -11t-23.5 -10.5t-10 -9.5 q0 -18 -1 -22t-5.5 -1t-11.5 9t-19 10q-37 16 -64.5 27.5t-52.5 21.5q-27 16 -51.5 30.5t-46.5 27.5q-2 -2 -4 -2l-2 -2q-18 -12 -41 -25.5t-52 -28.5q-23 -10 -51 -21t-63 -26q-27 -12 -46.5 -17t-31.5 -5q-10 0 -12 2q-23 6 -23 28zM315 545q0 -92 12.5 -175t59.5 -169 q63 51 100 131t55.5 169t23.5 179t5 164v43q0 29 -1 61.5t-1 59.5v43q0 6 -9 23.5t-13 23.5l-5 1t-7 1q-39 0 -70 -34t-55.5 -86t-42 -117.5t-29.5 -127t-17.5 -112.5t-5.5 -78z" />
<glyph unicode="&#xf6;" horiz-adv-x="958" d="M20 330v39q0 96 21.5 205.5t61.5 218t98.5 209t132.5 176t162 122t186 46.5q82 0 128 -49.5t68.5 -123t26.5 -157.5t4 -154q0 -4 -3 -14t-8 -22.5t-8 -22.5t-3 -17q-43 -172 -90 -316t-123 -249.5t-195 -164t-303 -58.5q-72 0 -106.5 54t-46.5 128v37q0 27 -1.5 57.5 t-1.5 55.5zM315 545q0 -92 12.5 -175t59.5 -169q63 51 100 131t55.5 169t23.5 179t5 164v43q0 29 -1 61.5t-1 59.5v43q0 6 -9 23.5t-13 23.5l-5 1t-7 1q-39 0 -70 -34t-55.5 -86t-42 -117.5t-29.5 -127t-17.5 -112.5t-5.5 -78zM428 1518q0 129 39 149q33 20 106 19 q70 -2 54 -144q-18 -23 -42 -53.5t-59 -30.5t-66.5 15.5t-31.5 44.5zM711 1518q0 129 39 149q33 20 108 19q70 -2 51 -144q-10 -12 -20 -26.5t-21.5 -26.5t-27 -21.5t-33.5 -9.5q-33 0 -64.5 15.5t-31.5 44.5z" />
<glyph unicode="&#xf7;" horiz-adv-x="876" d="M14 653l27 62l45 63q164 -29 260 -18q117 12 232.5 54t207.5 95q-6 -37 -12 -60.5t-14 -44t-17.5 -45t-23.5 -61.5q-23 -63 -37 -108t-37.5 -73t-62.5 -41t-111 -13q-41 0 -116.5 7t-151.5 26.5t-132.5 57.5t-56.5 99zM274 178q0 129 41 152q31 20 107 16q72 -4 53 -143 q-18 -23 -40.5 -53.5t-59.5 -30.5q-35 0 -68 15t-33 44zM301 983q0 131 39 152q31 20 106 16q72 -4 54 -143q-10 -12 -20.5 -26.5t-22 -27t-26.5 -21.5t-34 -9q-33 0 -64.5 15t-31.5 44z" />
<glyph unicode="&#xf8;" horiz-adv-x="1200" d="M-29 -12q0 31 4.5 50t11.5 37.5t16 40t17 56.5l130 164q-2 16 -3 33v32v48q0 39 2.5 50t6.5 23q14 29 14 37q43 174 90 319.5t124 250t194.5 162t304.5 57.5q12 0 16 -2q6 2 16 2h15q53 0 93 -1t66.5 -15.5t40 -48t13.5 -99.5q-14 -16 -40 -50t-67 -87v-29v-39 q0 -96 -21.5 -205.5t-61.5 -219.5t-98 -209t-132 -176t-162 -123t-186 -46q-70 0 -117 41q-72 -29 -151.5 -41t-135.5 -12zM489 307q4 -8 11.5 -21.5t11.5 -17.5l8 -4q41 0 72 34t54.5 87t41 117.5t31.5 126.5q-72 -98 -129.5 -178t-100.5 -144zM500 776q61 88 112.5 164 t92.5 141q-13 33 -33 74q-82 -66 -120 -167t-52 -212z" />
<glyph unicode="&#xf9;" d="M23 520q0 23 7 88.5t20 148.5t32.5 174t44.5 168t55.5 126t65.5 49q23 0 51.5 -7t57 -18.5t54 -24t44.5 -22.5q0 -6 1 -18.5t1 -16.5q0 -6 -1 -20t-1 -17q-31 -92 -64 -178t-59.5 -172t-44 -177t-17.5 -191v-60q0 -31 2 -67.5t9.5 -68.5t18.5 -53.5t30 -21.5q2 0 6 1t6 1 q90 109 141.5 247t79 287.5t36.5 302.5t15 292q57 45 96.5 61.5t96.5 16.5q8 0 29.5 -3.5t27.5 -3.5q2 -14 6 -51t7.5 -77.5t6.5 -77.5t3 -52v-36q0 -74 -15.5 -179.5t-47 -222.5t-79 -232.5t-110 -208.5t-140 -150.5t-169.5 -57.5t-150.5 56.5t-92.5 137t-47 170.5t-13 158 zM186 1665q27 14 51.5 22.5t53.5 10.5q51 8 123 -43l143 -131q45 -31 48 -56.5t-23 -33.5q-18 -8 -88 20q-37 14 -65 25.5t-52 21.5q-250 139 -191 164z" />
<glyph unicode="&#xfa;" d="M23 520q0 23 7 88.5t20 148.5t32.5 174t44.5 168t55.5 126t65.5 49q23 0 51.5 -7t57 -18.5t54 -24t44.5 -22.5q0 -6 1 -18.5t1 -16.5q0 -6 -1 -20t-1 -17q-31 -92 -64 -178t-59.5 -172t-44 -177t-17.5 -191v-60q0 -31 2 -67.5t9.5 -68.5t18.5 -53.5t30 -21.5q2 0 6 1t6 1 q90 109 141.5 247t79 287.5t36.5 302.5t15 292q57 45 96.5 61.5t96.5 16.5q8 0 29.5 -3.5t27.5 -3.5q2 -14 6 -51t7.5 -77.5t6.5 -77.5t3 -52v-36q0 -74 -15.5 -179.5t-47 -222.5t-79 -232.5t-110 -208.5t-140 -150.5t-169.5 -57.5t-150.5 56.5t-92.5 137t-47 170.5t-13 158 zM408.5 1461q3.5 26 48.5 59l143 127q70 55 123 45q29 -4 53.5 -11.5t50.5 -21.5q57 -25 -192 -164q-23 -12 -50.5 -22.5t-64.5 -24.5q-70 -29 -88 -21q-27 8 -23.5 34z" />
<glyph unicode="&#xfb;" d="M23 520q0 23 7 88.5t20 148.5t32.5 174t44.5 168t55.5 126t65.5 49q23 0 51.5 -7t57 -18.5t54 -24t44.5 -22.5q0 -6 1 -18.5t1 -16.5q0 -6 -1 -20t-1 -17q-31 -92 -64 -178t-59.5 -172t-44 -177t-17.5 -191v-60q0 -31 2 -67.5t9.5 -68.5t18.5 -53.5t30 -21.5q2 0 6 1t6 1 q90 109 141.5 247t79 287.5t36.5 302.5t15 292q57 45 96.5 61.5t96.5 16.5q8 0 29.5 -3.5t27.5 -3.5q2 -14 6 -51t7.5 -77.5t6.5 -77.5t3 -52v-36q0 -74 -15.5 -179.5t-47 -222.5t-79 -232.5t-110 -208.5t-140 -150.5t-169.5 -57.5t-150.5 56.5t-92.5 137t-47 170.5t-13 158 zM219 1475q0 29 49 63l144 129q63 45 106 45l17 -4h10h12l16 4q44 0 107 -45l143 -129q49 -35 49 -63q0 -23 -24 -29q-4 -4 -12 -4q-33 0 -76 20q-37 18 -64.5 29.5t-52.5 21.5q-27 16 -51.5 31t-46.5 27q-2 -2 -4 -2v-2l-2 -2q-18 -10 -41 -23.5t-52 -28.5q-23 -10 -51 -21 t-63 -26q-53 -25 -78 -24q-8 0 -12 4q-23 6 -23 29z" />
<glyph unicode="&#xfc;" d="M23 520q0 23 7 88.5t20 148.5t32.5 174t44.5 168t55.5 126t65.5 49q23 0 51.5 -7t57 -18.5t54 -24t44.5 -22.5q0 -6 1 -18.5t1 -16.5q0 -6 -1 -20t-1 -17q-31 -92 -64 -178t-59.5 -172t-44 -177t-17.5 -191v-60q0 -31 2 -67.5t9.5 -68.5t18.5 -53.5t30 -21.5q2 0 6 1t6 1 q90 109 141.5 247t79 287.5t36.5 302.5t15 292q57 45 96.5 61.5t96.5 16.5q8 0 29.5 -3.5t27.5 -3.5q2 -14 6 -51t7.5 -77.5t6.5 -77.5t3 -52v-36q0 -74 -15.5 -179.5t-47 -222.5t-79 -232.5t-110 -208.5t-140 -150.5t-169.5 -57.5t-150.5 56.5t-92.5 137t-47 170.5t-13 158 zM299 1513q0 129 37 152q31 20 108 16q72 -4 54 -143q-18 -23 -41 -53.5t-60 -30.5q-35 0 -66.5 14t-31.5 45zM582 1513q0 131 39 152q31 20 108 16q70 -2 51 -143q-18 -23 -40.5 -53.5t-59.5 -30.5t-67.5 14t-30.5 45z" />
<glyph unicode="&#xfd;" horiz-adv-x="1126" d="M25 1149v10l227 184q2 4 19.5 -6t27.5 -18q12 -10 33.5 -34.5t43 -50.5t38 -47.5t20.5 -27.5q12 -18 42 -64t54.5 -95.5t33.5 -72t28 -40.5q31 51 60.5 97t58.5 87l90 254q143 23 272 4l-8 -92q-39 -92 -66.5 -173t-72.5 -155q-43 -74 -101.5 -139t-91.5 -119 q-8 -25 -18 -61.5t-23 -85.5q-25 -98 -48 -201.5t-48 -232.5q-16 -16 -36.5 -44t-53.5 -28t-62.5 13.5t-29.5 37.5q-2 39 -3 80t-1 84q0 63 2 129t4 124t4 108t4 85q-33 57 -33 62q-106 143 -168 192q-33 27 -57.5 45.5t-44.5 32.5q-41 35 -68.5 72t-27.5 86zM406.5 1467.5 q3.5 25.5 48.5 56.5l143 131q70 51 123 43q29 -2 53.5 -10.5t50.5 -22.5q57 -25 -192 -164q-45 -20 -115 -47q-70 -29 -88 -20q-27 8 -23.5 33.5z" />
<glyph unicode="&#xfe;" horiz-adv-x="1085" d="M19 710.5q-1 49.5 4 92.5l24 414q39 43 45 65.5t6 32.5q0 12 6.5 14t47.5 2q4 0 35.5 1t68.5 3t68.5 3t35.5 1l-18 -198q-6 -31 21.5 -34t75.5 5t109.5 20.5t123.5 12.5q29 0 88 -1t118.5 -11.5t103.5 -37t44 -75.5q0 -135 -58.5 -249t-146.5 -226q-61 -74 -90 -101.5 t-55 -35.5q-12 -6 -64.5 -26.5t-146.5 -57.5l-166 -25l-4 -25l65 -204v-13q0 -25 -28.5 -29.5t-66.5 -1.5t-78 10t-62 7q-35 0 -55.5 23.5t-30.5 57.5t-13 68.5t-3 57.5v41q0 37 -1.5 86t-1.5 98v82v59q0 45 -1 94.5zM262 623.5q2 -52.5 2 -74.5q111 0 210 37t185 98 q18 12 46 35.5t47.5 40t21.5 18.5v45q0 2 -16.5 11.5t-38 19.5t-45 20.5t-37.5 14.5q-51 20 -100.5 24.5t-104.5 4.5q-6 0 -18.5 -2.5t-26.5 -2.5h-45q-39 -20 -56.5 -71t-21.5 -108.5t-2 -110z" />
<glyph unicode="&#xff;" horiz-adv-x="1126" d="M25 1149v10l227 184q2 4 19.5 -6t27.5 -18q12 -10 33.5 -34.5t43 -50.5t38 -47.5t20.5 -27.5q12 -18 42 -64t54.5 -95.5t33.5 -72t28 -40.5q31 51 60.5 97t58.5 87l90 254q143 23 272 4l-8 -92q-39 -92 -66.5 -173t-72.5 -155q-43 -74 -101.5 -139t-91.5 -119 q-8 -25 -18 -61.5t-23 -85.5q-25 -98 -48 -201.5t-48 -232.5q-16 -16 -36.5 -44t-53.5 -28t-62.5 13.5t-29.5 37.5q-2 39 -3 80t-1 84q0 63 2 129t4 124t4 108t4 85q-33 57 -33 62q-106 143 -168 192q-33 27 -57.5 45.5t-44.5 32.5q-41 35 -68.5 72t-27.5 86zM346 1518 q0 129 39 149q33 20 107 19q70 -2 53 -144q-18 -23 -42 -53.5t-59 -30.5t-66.5 15.5t-31.5 44.5zM629 1518q0 129 39 149q33 20 108 19q70 -2 51 -144q-10 -12 -20 -26.5t-21.5 -26.5t-27 -21.5t-33.5 -9.5q-33 0 -64.5 15.5t-31.5 44.5z" />
<glyph unicode="&#x152;" horiz-adv-x="1740" d="M20 979q8 4 41 86q35 84 64 106q23 14 33 25q29 39 101.5 67.5t155.5 47t161.5 27t121.5 8.5q20 0 59.5 2t76 -3.5t65.5 -21.5t31 -53q70 25 153.5 40t162.5 24t142.5 13.5t90.5 4.5h24q18 0 38 -1t38 -1h25q43 -6 57 -37t14 -72v-45q0 -10 -1 -42t-1 -42 q-12 -41 -39.5 -46t-54.5 -5q-98 0 -193.5 14.5t-193.5 14.5q-61 0 -86 -29t-25 -90v-25q18 -4 62.5 -11t95.5 -15.5t96 -14.5t64 -8q41 -8 71.5 -16.5t50 -21.5t30 -37.5t10.5 -65.5q0 -59 -8.5 -104.5t-16.5 -110.5h-12q-35 0 -86.5 12t-106.5 28.5t-109.5 32t-95.5 21.5 q-4 0 -18 -1t-18 -1q0 -10 -1.5 -41t-3.5 -65.5t-3 -65.5t-1 -43q4 -45 8.5 -58.5t34.5 -13.5q55 0 108.5 19.5t106 42t104.5 42t101 19.5q8 0 20.5 -1t16.5 -1q16 -66 20.5 -105.5t4.5 -99.5q0 -92 -47 -176q-84 8 -168 0t-167 -22.5t-167 -31t-168 -24.5q-8 -8 -27 -8 h-387q-4 0 -16.5 6t-27.5 14.5t-28.5 17.5t-17.5 15q-20 14 -51 46t-62 65q-14 16 -26.5 29.5t-22.5 30t-21.5 38t-23.5 51.5q-27 51 -59.5 135t-53 176.5t-30.5 182.5t-15 172zM362 811q0 -111 19.5 -226.5t48.5 -215.5q16 -53 45 -83t67 -44.5t82 -17.5t93 -3h37h30 l-4 101l-8 34q-10 47 2 104.5t27 151.5q8 45 16 95.5t15.5 98.5t12.5 91t9 74q0 4 1 25.5t1 33.5q0 6 -1 24.5t-1 30.5l-16 -14q-100 -18 -155.5 -28.5t-68.5 -10.5q-12 0 -26.5 -1t-30.5 -1q-43 0 -79 -19.5t-61.5 -50t-40 -69.5t-14.5 -80z" />
<glyph unicode="&#x153;" horiz-adv-x="1624" d="M20 330v39q0 96 21.5 206.5t61.5 219t98.5 209t132.5 177t162 123t186 46.5q51 0 87 -20.5t62 -55.5q68 23 149 38t156.5 23t136 11.5t87.5 3.5h24q16 0 37 -1t39 -1h23q47 -8 60 -39t13 -72v-43q0 -10 -1 -42t-1 -42q-12 -41 -38.5 -46t-55.5 -5q-100 0 -194.5 14 t-192.5 14q-61 0 -85.5 -28.5t-24.5 -89.5v-25q16 -4 61 -11t96 -15.5t96.5 -14.5t61.5 -8q41 -8 71.5 -16.5t51 -22.5t31 -37.5t10.5 -64.5q0 -59 -7.5 -105.5t-17.5 -109.5h-12q-35 0 -86 12t-107.5 28.5t-110.5 32t-93 21.5q-4 0 -18.5 -1t-18.5 -1q0 -10 -1 -41t-3 -66 t-3 -65.5t-1 -40.5q4 -47 8 -60.5t35 -13.5q55 0 108 19.5t105.5 42t104.5 42t103 19.5q6 0 18.5 -1t16.5 -1q8 -35 13.5 -59.5t7.5 -47t3 -45t1 -53.5q0 -92 -47 -176q-96 10 -191.5 -1t-190.5 -29.5t-190.5 -35t-189.5 -16.5l-10 207q-37 -47 -76 -83t-80 -65 q-84 -53 -336 -63q-72 0 -106.5 54t-46.5 128v37q0 27 -1.5 57.5t-1.5 55.5zM315 520q0 -92 12.5 -176t37.5 -139q86 27 122.5 104.5t124.5 75.5q10 0 18.5 -1t18.5 -3q-6 41 7.5 94t25.5 135q16 94 29.5 194.5t23.5 164.5v10q0 14 2 20q-35 -4 -77 -8t-91 -8v41 q0 4 -9 22.5t-13 22.5l-5 1t-7 1q-39 0 -70 -32.5t-55.5 -85t-42 -116t-29.5 -125t-17.5 -112.5t-5.5 -80z" />
<glyph unicode="&#x178;" horiz-adv-x="1126" d="M25 1149v10l227 184q2 4 19.5 -6t27.5 -18q12 -10 33.5 -34.5t43 -50.5t38 -47.5t20.5 -27.5q12 -18 42 -64t54.5 -95.5t33.5 -72t28 -40.5q31 51 60.5 97t58.5 87l90 254q143 23 272 4l-8 -92q-39 -92 -66.5 -173t-72.5 -155q-43 -74 -101.5 -139t-91.5 -119 q-8 -25 -18 -61.5t-23 -85.5q-25 -98 -48 -201.5t-48 -232.5q-16 -16 -36.5 -44t-53.5 -28t-62.5 13.5t-29.5 37.5q-2 39 -3 80t-1 84q0 63 2 129t4 124t4 108t4 85q-33 57 -33 62q-106 143 -168 192q-33 27 -57.5 45.5t-44.5 32.5q-41 35 -68.5 72t-27.5 86zM346 1518 q0 129 39 149q33 20 107 19q70 -2 53 -144q-18 -23 -42 -53.5t-59 -30.5t-66.5 15.5t-31.5 44.5zM629 1518q0 129 39 149q33 20 108 19q70 -2 51 -144q-10 -12 -20 -26.5t-21.5 -26.5t-27 -21.5t-33.5 -9.5q-33 0 -64.5 15.5t-31.5 44.5z" />
<glyph unicode="&#x2c6;" horiz-adv-x="718" d="M6 1460q0 29 49 64l144 129q63 45 106 45l17 -2q4 0 6 -1t4 -1l12 2l16 2q44 0 107 -45l143 -129q49 -35 49 -64q0 -23 -22 -28q-2 -2 -14 -2q-29 0 -76 20q-37 16 -64.5 27.5t-50.5 21.5q-29 16 -53.5 30.5t-46.5 26.5q-2 -2 -4 -2l-2 -2q-18 -12 -41 -25.5t-52 -27.5 q-23 -10 -51 -21.5t-63 -25.5q-53 -23 -78 -22q-10 0 -12 2q-23 6 -23 28z" />
<glyph unicode="&#x2dc;" horiz-adv-x="903" d="M18 1468q0 -23 23 -28q2 -2 12 -2q12 0 31.5 5t46.5 17q35 14 63.5 25.5t51.5 21.5q29 14 51 27.5t39 26.5v2h4q2 0 4 2q23 -12 47.5 -26.5t52.5 -31.5q23 -10 49.5 -21t65.5 -28q14 -4 21.5 -10t10.5 -9t4 1t1 22q0 4 10 9.5t23.5 10.5t24 11t10.5 14q92 92 117.5 131 t11.5 39q-16 0 -25.5 5.5t-17 10.5t-15.5 10t-22 5q-29 6 -61.5 -10t-69.5 -43q-20 -14 -30.5 -21.5t-23.5 -17.5l-49 45q-63 45 -106 45l-17 -2l-12 -2q-2 0 -5 1t-5 1l-19 2q-41 0 -104 -45l-143 -129q-49 -35 -50 -64z" />
<glyph unicode="&#x2000;" horiz-adv-x="864" />
<glyph unicode="&#x2001;" horiz-adv-x="1729" />
<glyph unicode="&#x2002;" horiz-adv-x="864" />
<glyph unicode="&#x2003;" horiz-adv-x="1729" />
<glyph unicode="&#x2004;" horiz-adv-x="576" />
<glyph unicode="&#x2005;" horiz-adv-x="432" />
<glyph unicode="&#x2006;" horiz-adv-x="288" />
<glyph unicode="&#x2007;" horiz-adv-x="288" />
<glyph unicode="&#x2008;" horiz-adv-x="216" />
<glyph unicode="&#x2009;" horiz-adv-x="345" />
<glyph unicode="&#x200a;" horiz-adv-x="96" />
<glyph unicode="&#x2010;" horiz-adv-x="876" d="M14 653q0 -61 56.5 -99t132.5 -57.5t151.5 -26.5t116.5 -7q72 0 111 13t62.5 41t37.5 73t37 108q14 39 23.5 62.5t17.5 44t14 44t12 60.5q-92 -53 -207.5 -95t-232.5 -54q-96 -10 -260 18l-45 -63z" />
<glyph unicode="&#x2011;" horiz-adv-x="876" d="M14 653q0 -61 56.5 -99t132.5 -57.5t151.5 -26.5t116.5 -7q72 0 111 13t62.5 41t37.5 73t37 108q14 39 23.5 62.5t17.5 44t14 44t12 60.5q-92 -53 -207.5 -95t-232.5 -54q-96 -10 -260 18l-45 -63z" />
<glyph unicode="&#x2012;" horiz-adv-x="876" d="M14 653q0 -61 56.5 -99t132.5 -57.5t151.5 -26.5t116.5 -7q72 0 111 13t62.5 41t37.5 73t37 108q14 39 23.5 62.5t17.5 44t14 44t12 60.5q-92 -53 -207.5 -95t-232.5 -54q-96 -10 -260 18l-45 -63z" />
<glyph unicode="&#x2013;" horiz-adv-x="876" d="M14 653q0 -61 56.5 -99t132.5 -57.5t151.5 -26.5t116.5 -7q72 0 111 13t62.5 41t37.5 73t37 108q14 39 23.5 62.5t17.5 44t14 44t12 60.5q-92 -53 -207.5 -95t-232.5 -54q-96 -10 -260 18l-45 -63z" />
<glyph unicode="&#x2014;" horiz-adv-x="1269" d="M14 653l27 62l45 63q164 -29 260 -18q39 4 106.5 14t149.5 23.5t170 31t167 36t141.5 37t93.5 36.5q-6 -37 -12.5 -60.5t-14.5 -44t-17.5 -45t-23.5 -63.5q-23 -61 -38 -106.5t-37.5 -73t-61.5 -40.5t-111 -13q-27 0 -100.5 1t-166.5 5t-195.5 13t-186.5 27.5t-139.5 46 t-55.5 68.5z" />
<glyph unicode="&#x2018;" horiz-adv-x="344" d="M23 1245l36 -192q0 -51 32 -80t67 -29q33 0 55 55q14 29 24.5 51.5t20.5 43.5q45 240 -37 245q-88 10 -141 -4q-57 -12 -57 -90z" />
<glyph unicode="&#x2019;" horiz-adv-x="344" d="M23 1245l36 -192q0 -51 32 -80t67 -29q33 0 55 55q14 29 24.5 51.5t20.5 43.5q45 240 -37 245q-88 10 -141 -4q-57 -12 -57 -90z" />
<glyph unicode="&#x201a;" horiz-adv-x="299" d="M23 57q0 129 38 150q18 18 109 16q70 -2 51 -141q-16 -127 -96 -211q-82 -82 -29 129q-29 8 -46 22.5t-27 34.5z" />
<glyph unicode="&#x201c;" horiz-adv-x="653" d="M23 1245l36 -192q0 -51 32 -80t67 -29q33 0 55 55q14 29 24.5 51.5t20.5 43.5q45 240 -37 245q-88 10 -141 -4q-57 -12 -57 -90zM332 1245l37 -192q0 -51 31.5 -80t66.5 -29q37 0 59 55q20 57 41 95q45 240 -37 245q-88 10 -141 -4q-57 -12 -57 -90z" />
<glyph unicode="&#x201d;" horiz-adv-x="653" d="M23 1245l36 -192q0 -51 32 -80t67 -29q33 0 55 55q14 29 24.5 51.5t20.5 43.5q45 240 -37 245q-88 10 -141 -4q-57 -12 -57 -90zM332 1245l37 -192q0 -51 31.5 -80t66.5 -29q37 0 59 55q20 57 41 95q45 240 -37 245q-88 10 -141 -4q-57 -12 -57 -90z" />
<glyph unicode="&#x201e;" horiz-adv-x="581" d="M23 57q0 129 38 150q18 18 109 16q70 -2 51 -141q-16 -127 -96 -211q-82 -82 -29 129q-29 8 -46 22.5t-27 34.5zM291 59q0 129 39 150q20 20 108 16q70 -2 51 -141q-16 -127 -96 -211q-82 -82 -28 129q-29 6 -46.5 21.5t-27.5 35.5z" />
<glyph unicode="&#x2022;" horiz-adv-x="958" d="M20 330v39q0 96 21.5 205.5t61.5 218t98.5 209t132.5 176t162 122t186 46.5q82 0 128 -49.5t68.5 -123t26.5 -157.5t4 -154q0 -4 -3 -14t-8 -22.5t-8 -22.5t-3 -17q-43 -172 -90 -316t-123 -249.5t-195 -164t-303 -58.5q-72 0 -106.5 54t-46.5 128v37q0 27 -1.5 57.5 t-1.5 55.5z" />
<glyph unicode="&#x2026;" horiz-adv-x="872" d="M23 57q0 -31 31.5 -45t66.5 -14q37 0 59.5 30.5t40.5 53.5q18 139 -51 141q-76 4 -109 -16q-38 -21 -38 -150zM313 66q0 -29 32 -44.5t67 -15.5q37 0 59.5 31t40.5 53q18 139 -53 143q-74 4 -107 -16q-39 -20 -39 -151zM596 66q0 -29 31.5 -44.5t66.5 -15.5q37 0 59.5 31 t41.5 53q18 141 -52 143q-76 4 -108 -16q-39 -20 -39 -151z" />
<glyph unicode="&#x202f;" horiz-adv-x="345" />
<glyph unicode="&#x2039;" horiz-adv-x="620" d="M14 565q0 33 13 70q8 23 35.5 53.5t82.5 71.5q6 18 33 43.5t59.5 53.5t65.5 56.5t49 53.5q12 18 23 28q8 8 22 15q10 2 36 12t75 31l20 -41q12 -41 13 -45v-9q0 -35 -19.5 -72.5t-47.5 -71.5t-57.5 -61.5t-47.5 -41.5q-2 -4 -19.5 -14.5t-37 -20.5t-37 -18.5t-21.5 -8.5 l-7 -7t-5 -9q41 -51 77.5 -81t69.5 -51.5t58.5 -40t44 -46t28.5 -69.5t10 -112q-66 0 -118 28t-97 69q-41 43 -86 69.5t-88 69.5q-33 25 -51 37t-30.5 20.5t-22 16.5t-23.5 22z" />
<glyph unicode="&#x203a;" horiz-adv-x="620" d="M14 958q0 -35 20.5 -72.5t48.5 -71.5t57.5 -61.5t47.5 -41.5q2 -4 18.5 -14.5t37 -20.5t37 -18.5t20.5 -8.5q14 -4 14 -16q-41 -51 -78.5 -82t-69.5 -52.5t-58.5 -39t-44 -45t-27.5 -69.5t-10 -112q63 0 116.5 28t96.5 69q43 43 88 69.5t88 69.5q31 25 49 37t31.5 20.5 t23 15.5t21.5 23q0 29 -11 70q-10 23 -37.5 53.5t-80.5 71.5q-10 18 -36 43.5t-58.5 53.5t-63.5 55.5t-49 54.5q-12 18 -23 28q-8 8 -24 15q-12 2 -109 43l-20 -41q-6 -20 -10.5 -30.5t-4.5 -14.5v-9z" />
<glyph unicode="&#x205f;" horiz-adv-x="432" />
<glyph unicode="&#x20ac;" d="M23 66q0 -10 2 -26.5t20 -16.5h274h250q4 -20 20.5 -22.5t31.5 -2.5h16q47 0 92 20.5t80 55.5t56.5 80t21.5 92v20q-8 35 -25.5 109t-39 166t-46 193.5t-47 193.5t-41 163.5t-29.5 104.5q-2 10 -8 29.5t-14 40t-14.5 39t-8.5 26.5q-2 4 -10 12.5t-12 10.5h-12 q-45 0 -103.5 -77t-120 -199t-122 -270.5t-107.5 -290.5t-75.5 -264t-28.5 -187z" />
<glyph unicode="&#x2122;" horiz-adv-x="1282" d="M12 1467.5q-4 -11.5 13 -15.5q31 6 106 31q70 29 133 28q0 -74 -19.5 -155.5t-50 -162.5t-69.5 -155.5t-80 -132.5q20 -10 34.5 -14t35.5 -4q74 0 116.5 19.5t67.5 56t37 90t24 121.5q8 35 17.5 80.5t15.5 96t9.5 99.5t-1.5 90l37 8h39q18 0 31 -4q27 1 47 103 q-49 10 -90 21t-98.5 15.5t-102.5 9.5t-67 5q-43 0 -68 -8.5t-38 -25.5t-22.5 -44t-23.5 -66q-6 -23 -13 -37t-12 -28q-4 -10 -8 -21.5zM489 987q0 -39 7.5 -59.5t23 -30.5t40 -12t61.5 -2q8 0 26.5 1t22.5 1l12 14v369l14 55q10 -59 28.5 -119.5t39.5 -113.5 q6 -16 19.5 -46t33 -59t41 -51.5t41.5 -22.5q18 0 28.5 13.5t14.5 29.5q0 2 2 17.5t4 34t4 35t2 20.5q4 23 10.5 59.5t13.5 72.5t12 61l5 26l15 27q2 -18 4 -66.5t4 -103t3 -103.5t1 -67v-17q0 -8 2 -20t2 -23v-14q23 0 44.5 17.5t35.5 27.5q6 6 19.5 20.5t27.5 30 t27.5 28.5t19.5 17v21v22q-6 74 -20.5 152t-32 155.5t-35.5 151.5t-35 139q0 4 -4 8.5t-8 8.5h-8q-25 0 -52.5 -50.5t-54 -115t-50 -129t-40.5 -90.5q-6 41 -11 89t-8 95t-5 92t-5 80q-4 16 -24 16q-23 0 -66 -7t-59 -23q-10 -29 -30.5 -97.5t-45 -147.5t-46 -148.5 t-30.5 -98.5q-4 -16 -11 -38.5t-13 -45t-11.5 -45.5t-5.5 -41z" />
<glyph unicode="&#x25fc;" horiz-adv-x="1351" d="M0 0v1352h1352v-1352h-1352z" />
</font>
</defs>
</svg>
